<svg width="25" height="24" viewBox="0 0 25 24" fill="none" xmlns="http://www.w3.org/2000/svg">
<g clip-path="url(#clip0)" opacity="0.7" >
<path d="M21.5 12.601V11.401C21.5 11.2353 21.3656 11.101 21.2 11.101H16.7V5.10097C16.7 4.9353 16.5656 4.80097 16.4 4.80097H13.9667C14.3717 4.407 14.6001 3.86599 14.6 3.30098C14.6 3.1353 14.4657 3.00098 14.3 3.00098C13.5617 3.00214 12.8783 3.3909 12.5 4.02487C12.1217 3.3909 11.4382 3.00214 10.7 3.00098C10.5343 3.00098 10.4 3.1353 10.4 3.30098C10.3998 3.86599 10.6283 4.407 11.0333 4.80097H8.59999C8.43431 4.80097 8.29999 4.9353 8.29999 5.10097V11.101H3.8C3.63432 11.101 3.5 11.2353 3.5 11.401V12.601C3.5 12.7666 3.63432 12.901 3.8 12.901H13.6514L11.8514 13.501H7.39999C7.32042 13.501 7.24414 13.5326 7.18789 13.5889L5.89999 14.8768L5.5121 14.4889C5.39495 14.3717 5.20505 14.3717 5.0879 14.4889L3.5879 15.9889C3.47079 16.106 3.47079 16.2959 3.5879 16.4131L8.08789 20.913C8.20504 21.0302 8.39494 21.0302 8.51209 20.913L10.0121 19.413C10.1292 19.2959 10.1292 19.106 10.0121 18.9888L9.96259 18.9393L11.696 17.701H17.6C17.675 17.701 17.7474 17.6728 17.8028 17.6221L21.065 14.632C21.5569 14.1817 21.6426 13.4381 21.266 12.8878C21.4014 12.8587 21.4987 12.7395 21.5 12.601ZM13.9616 3.63938C13.8312 4.19689 13.3959 4.63219 12.8384 4.76257C12.9688 4.20506 13.4041 3.76976 13.9616 3.63938ZM12.1616 4.76257C11.6041 4.63219 11.1688 4.19689 11.0384 3.63938C11.5959 3.76976 12.0312 4.20506 12.1616 4.76257ZM8.89999 5.40097H16.1V11.101H12.875L15.44 7.68097C15.52 7.57432 15.52 7.42762 15.44 7.32097L14.54 6.12097C14.4833 6.04545 14.3944 6.00097 14.3 6.00097H10.7C10.6056 6.00097 10.5166 6.04545 10.46 6.12097L9.55999 7.32097C9.48 7.42762 9.48 7.57432 9.55999 7.68097L12.125 11.101H8.89999V5.40097ZM11.09 7.80097L11.7395 9.58687L10.4 7.80097H11.09ZM10.4 7.20097L10.85 6.60097H11.7758L11.1758 7.20097H10.4ZM11.7281 7.80097H13.2719L12.5 9.92316L11.7281 7.80097ZM12.0242 7.20097L12.5 6.72517L12.9758 7.20097H12.0242ZM13.8242 7.20097L13.2242 6.60097H14.15L14.6 7.20097H13.8242ZM14.6 7.80097L13.2605 9.58687L13.91 7.80097H14.6ZM4.1 12.301V11.701H20.9V12.301H4.1ZM16.3222 13.0733C16.2902 13.0128 16.2531 12.9551 16.2113 12.901H18.911L16.886 14.701H15.8213C16.4091 14.3898 16.6334 13.6611 16.3222 13.0733ZM8.29999 20.2767L4.2242 16.201L5.3 15.1252L9.37579 19.2009L8.29999 20.2767ZM20.66 14.1909L17.4833 17.1009H11.6C11.5375 17.1009 11.4766 17.1204 11.4257 17.1567L9.53239 18.5091L6.32419 15.3009L7.52419 14.1009H11.9C11.9322 14.101 11.9642 14.0958 11.9948 14.0856L15.0638 13.0626C15.3811 12.9562 15.7246 13.1271 15.8311 13.4444C15.9375 13.7617 15.7666 14.1052 15.4493 14.2117C15.4379 14.2155 15.4264 14.219 15.4148 14.2221L13.6598 14.7009H12.8V15.3009H17C17.0734 15.301 17.1443 15.274 17.1992 15.2253L19.6037 13.0881C19.7393 12.9675 19.9145 12.9008 20.096 12.9009H20.1581C20.5676 12.8995 20.9009 13.2303 20.9023 13.6398C20.9031 13.8496 20.815 14.0498 20.66 14.1909Z" fill="black"/>
<path d="M5.21234 15.688L4.78809 16.1123L5.68815 17.0124L6.11241 16.5881L5.21234 15.688Z" fill="black"/>
<path d="M18.2001 4.2002H17.6001V4.80019H18.2001V4.2002Z" fill="black"/>
<path d="M18.8 3.59961H18.2V4.19961H18.8V3.59961Z" fill="black"/>
<path d="M19.4 4.2002H18.8V4.80019H19.4V4.2002Z" fill="black"/>
<path d="M18.8 4.7998H18.2V5.3998H18.8V4.7998Z" fill="black"/>
<path d="M21.4999 3.2998H20.8999V3.8998H21.4999V3.2998Z" fill="black"/>
<path d="M19.1 6.59961H18.5V7.19961H19.1V6.59961Z" fill="black"/>
<path d="M6.79995 6.2998H6.19995V6.8998H6.79995V6.2998Z" fill="black"/>
<path d="M6.79995 7.5H6.19995V8.1H6.79995V7.5Z" fill="black"/>
<path d="M7.40005 6.90039H6.80005V7.50039H7.40005V6.90039Z" fill="black"/>
<path d="M6.2001 6.90039H5.6001V7.50039H6.2001V6.90039Z" fill="black"/>
<path d="M4.1 4.7998H3.5V5.3998H4.1V4.7998Z" fill="black"/>
<path d="M6.79995 3.2998H6.19995V3.8998H6.79995V3.2998Z" fill="black"/>
</g>
<defs>
<clipPath id="clip0">
<rect width="18" height="18" fill="white" transform="translate(3.5 3)"/>
</clipPath>
</defs>
</svg>
