<svg width="25" height="24" viewBox="0 0 25 24" fill="none" xmlns="http://www.w3.org/2000/svg">
<path d="M22.5 5.72035L17.9 1.86035L16.61 3.39035L21.21 7.25035L22.5 5.72035ZM8.38 3.39035L7.1 1.86035L2.5 5.71035L3.79 7.24035L8.38 3.39035ZM13 8.00035H11.5V14.0004L16.25 16.8504L17 15.6204L13 13.2504V8.00035ZM12.5 4.00035C7.53 4.00035 3.5 8.03035 3.5 13.0004C3.5 17.9704 7.52 22.0004 12.5 22.0004C17.47 22.0004 21.5 17.9704 21.5 13.0004C21.5 8.03035 17.47 4.00035 12.5 4.00035ZM12.5 20.0004C8.63 20.0004 5.5 16.8704 5.5 13.0004C5.5 9.13035 8.63 6.00035 12.5 6.00035C16.37 6.00035 19.5 9.13035 19.5 13.0004C19.5 16.8704 16.37 20.0004 12.5 20.0004Z" fill="black"/>
</svg>
