<svg width="42" height="42" viewBox="0 0 42 42" fill="none" xmlns="http://www.w3.org/2000/svg">
<g clip-path="url(#clip0)">
<path d="M9.30809 25.3811L7.84613 30.8388L2.50269 30.9518C0.905789 27.9899 0 24.6011 0 20.9999C0 17.5176 0.846891 14.2337 2.34806 11.3422H2.34921L7.10637 12.2144L9.19029 16.943C8.75413 18.2146 8.5164 19.5796 8.5164 20.9999C8.51657 22.5415 8.7958 24.0184 9.30809 25.3811Z" fill="#FBBB00"/>
<path d="M41.6331 17.0773C41.8743 18.3476 42 19.6595 42 21.0003C42 22.5038 41.842 23.9704 41.5408 25.385C40.5185 30.1988 37.8474 34.4023 34.147 37.3769L34.1459 37.3757L28.154 37.07L27.3059 31.7761C29.7613 30.3361 31.6802 28.0827 32.691 25.385H21.4617V17.0773H32.8548H41.6331Z" fill="#518EF8"/>
<path d="M34.1457 37.3753L34.1469 37.3765C30.5481 40.2691 25.9765 41.9999 21 41.9999C13.0027 41.9999 6.04963 37.53 2.50269 30.9519L9.30808 25.3811C11.0815 30.1142 15.6473 33.4834 21 33.4834C23.3007 33.4834 25.4562 32.8615 27.3057 31.7757L34.1457 37.3753Z" fill="#28B446"/>
<path d="M34.4042 4.83459L27.6011 10.4042C25.6869 9.20768 23.4242 8.51648 21 8.51648C15.5261 8.51648 10.875 12.0403 9.19036 16.9431L2.3492 11.3423H2.34805C5.84308 4.60384 12.8838 0 21 0C26.0954 0 30.7673 1.81502 34.4042 4.83459Z" fill="#F14336"/>
</g>
<defs>
<clipPath id="clip0">
<rect width="42" height="42" fill="white"/>
</clipPath>
</defs>
</svg>
