<?xml version="1.0" encoding="UTF-8" standalone="no"?><svg width="48" height="49" viewBox="0 0 48 49" fill="none" xmlns="http://www.w3.org/2000/svg">
<path d="M31.9529 40.1998L31.2669 29.5419C31.2399 29.106 30.6681 28.7914 30.3613 29.042L29.939 29.3869C29.6512 29.622 29.1151 29.3582 29.0405 28.9429L27.8674 22.4343C27.7928 22.0191 27.2585 21.7539 26.9689 21.9904L25.5573 23.1433C25.2729 23.3755 24.386 23.8592 24.6613 22.7118L24.6613 22.7118C24.5761 22.3015 18.3002 19.3478 21.9346 27.1617C22.1897 26.9534 22.6292 26.9998 22.7732 27.3656L25.1913 33.4826C25.3354 33.8485 25.8049 34.032 26.06 33.8237L27.2647 32.8397C27.5198 32.6314 27.9837 32.8123 28.1312 33.1753L30.9578 40.1838C31.1805 40.7398 31.9889 40.752 31.9529 40.1998Z" fill="black"/>
<path d="M41.3787 11.0481C41.5984 11.2007 41.7856 11.4037 41.9178 11.6384C50.7811 27.3766 40.4478 45.4247 24.4789 46.7909C24.3143 46.805 24.1467 46.7933 23.9845 46.7587C22.0073 46.3371 22.1177 43.425 24.1192 43.2095L24.4577 43.1731C29.9446 42.6376 35.739 39.4985 39.1094 33.4604C42.4798 27.4223 42.5731 19.8894 38.9005 13.5794L38.7933 13.3683C37.9381 11.6847 39.8392 9.97862 41.3787 11.0481Z" fill="#28A528"/>
<path d="M33.6475 3.46722C34.1969 3.78403 34.5401 4.36589 34.5513 4.99946C34.576 6.38986 33.083 7.27893 31.8703 6.59603L31.6225 6.45651L31.3639 6.31606L31.0704 6.16235L30.7736 6.01411L30.4705 5.86942L30.167 5.73092L29.862 5.59825L29.5499 5.46895L29.391 5.40598L29.2304 5.34389L29.0718 5.28393L28.9128 5.22573L28.6005 5.11624L28.2951 5.01488L27.9934 4.9206L27.8155 4.86771L27.6347 4.81588L27.3247 4.73169L27.1772 4.69348L27.0304 4.65704L26.6984 4.57886L26.5201 4.53959L26.3412 4.50173L26.1628 4.46618L25.9843 4.43222L25.8225 4.40303L25.6586 4.37491L25.3349 4.32422L25.1697 4.3006L25.0058 4.27832L24.6739 4.23852L24.3523 4.20509L24.1886 4.19058L24.0242 4.17714L23.6921 4.15485L23.5266 4.14583L23.3619 4.13822L23.199 4.13238L23.0313 4.12761L22.8676 4.1246L22.7042 4.12319L22.5266 4.12319L22.3723 4.12407L22.206 4.12637L22.042 4.13044L21.7085 4.143L21.3834 4.16094L20.7105 4.21641L20.5437 4.23378L20.381 4.25267L20.2209 4.2723L20.0615 4.29317L19.9078 4.31475L19.7547 4.33757L19.6019 4.36145L19.4494 4.38675L19.2751 4.41717L19.1014 4.44919L18.9275 4.48368L18.7545 4.5187L18.4938 4.57531L18.2354 4.63527L17.9757 4.69948L17.7172 4.76758L16.2079 5.25037C14.9552 5.65107 13.7058 4.61811 13.8626 3.31148C13.9442 2.63185 14.4033 2.05782 15.0481 1.82928L15.7192 1.59141L16.1075 1.46829L16.3025 1.40939L16.4946 1.35338L16.667 1.30467L16.8366 1.25833L17.0076 1.21304L17.179 1.169L17.3493 1.12655L17.5171 1.08639L17.6909 1.04624L17.8585 1.00874L18.0111 0.976193L18.1618 0.944707L18.314 0.914282L18.4669 0.884919L18.6175 0.856971L18.7667 0.830438L18.9163 0.804436L19.0713 0.779141L19.2293 0.754554L19.3921 0.730143L19.7096 0.686452L20.0282 0.647006L20.2016 0.627726L20.3641 0.610745L20.5301 0.594648L20.6883 0.580674L20.8475 0.567584L21.0045 0.55591L21.1681 0.544943L21.3323 0.535037L21.4896 0.526723L21.653 0.519294L21.8122 0.51328L21.9775 0.507973L22.059 0.505851L22.1355 0.504436L22.2167 0.503021L22.3084 0.501429L22.4635 0.500014L22.5633 0.500014L22.7506 0.500014L22.941 0.50249L23.0992 0.505674L23.2635 0.509919L23.593 0.522285L23.7603 0.530411L23.9237 0.539645L24.0821 0.549551L24.2408 0.560872L24.4069 0.573784L24.5722 0.587758L24.7388 0.603501L24.9024 0.619952L25.0964 0.641001L25.2901 0.663997L25.4325 0.681862L25.5724 0.700258L25.7322 0.722723L25.8913 0.745794L26.0615 0.772074L26.147 0.785872L26.2314 0.799669L26.4006 0.828501L26.5673 0.858395L26.7351 0.889527L26.9016 0.921898L27.0624 0.954445L27.2229 0.98823L27.3831 1.02325L27.5393 1.05828L27.7026 1.09648L27.8631 1.1354L28.0256 1.17591L28.1056 1.19654C28.1583 1.21014 28.2109 1.22375 28.2635 1.2377C28.3832 1.26942 28.6155 1.33186 28.7913 1.38455C28.7925 1.3849 28.7937 1.38526 28.7949 1.38561C29.0212 1.45346 29.2467 1.52406 29.4719 1.59559L29.765 1.69419L30.0569 1.79716L30.216 1.8548L30.3747 1.91388L30.5699 1.98852L30.7652 2.06565L30.9382 2.13516L31.109 2.20574L31.4483 2.35097L31.788 2.50344L31.9546 2.58057L32.1215 2.65981L32.2724 2.73251L32.4242 2.80733L32.573 2.88216L32.7212 2.95751L33.0162 3.11282L33.3092 3.27214L33.6475 3.46722Z" fill="#D0D000"/>
<path d="M5.95907 8.02808C6.52582 7.61805 7.28046 7.59343 7.87966 7.96543C8.77615 8.522 9.00737 9.74598 8.37505 10.5879L7.89175 11.2315L7.78433 11.3655L7.67938 11.4994L7.57511 11.635L7.4724 11.7707L7.37056 11.9081L7.26956 12.0466L7.21959 12.116L7.1703 12.1859L7.07115 12.3264L6.87888 12.6077L6.69274 12.8912L6.51146 13.1766L6.42288 13.3204L6.33466 13.467L6.24642 13.6156L6.16077 13.7635L6.07598 13.9128L5.99309 14.0612L5.91037 14.2126L5.8292 14.3644L5.74889 14.5179L5.67065 14.6704L5.51676 14.9806L5.47867 15.0602L5.44179 15.1372L5.36872 15.293L5.2262 15.6079L5.15744 15.765L5.08988 15.9236L4.88636 16.4315C4.465 17.4831 3.19546 17.8613 2.26734 17.2171C1.60657 16.7585 1.32368 15.9039 1.58308 15.1392L1.83 14.5266L1.9596 14.2236L2.02578 14.0727L2.09333 13.9222L2.23482 13.616L2.30703 13.4638L2.38096 13.3108L2.45506 13.1605L2.53054 13.01L2.60741 12.8598L2.64584 12.7851L2.6853 12.71L2.76337 12.5623L2.803 12.4883L2.84299 12.4146L2.92299 12.2685L3.00472 12.1217L3.04514 12.0496L3.08736 11.9757L3.17163 11.8294L3.25642 11.6842L3.34344 11.5386L3.43254 11.3911L3.52302 11.2439L3.62866 11.0753L3.70793 10.9513L3.80048 10.8081L3.89492 10.6643L4.08751 10.3782L4.18427 10.2378L4.28181 10.0986L4.48051 9.82157L4.68231 9.54828L4.78571 9.41155L4.88912 9.27591L5.09954 9.00913L5.20604 8.87647L5.31306 8.74522L5.56372 8.41195C5.67074 8.26965 5.79802 8.14459 5.94141 8.04086L5.95907 8.02808Z" fill="#FD7700"/>
<ellipse cx="1.76471" cy="23.9119" rx="1.76471" ry="1.81131" fill="#FF0000"/>
</svg>
