<svg xmlns="http://www.w3.org/2000/svg" viewBox="0 0 48 60" x="0px" y="0px" width="48px" height="48px" fill="#000">
<g><path d="M38.29,19.47,26.12,7.29a3,3,0,0,0-4.23,0L9.71,19.47a3,3,0,0,0,1.29,5V38.59a3,3,0,0,0,3,3h4a1,1,0,0,0,1-1v-7.9a1.06,1.06,0,0,1,1-1.1h8a1.06,1.06,0,0,1,1,1.1v7.9a1,1,0,0,0,1,1h4a3,3,0,0,0,3-3V24.48a3,3,0,0,0,1.29-5ZM37.09,22a1,1,0,0,1-.92.62H36a1,1,0,0,0-1,1v15a1,1,0,0,1-1,1H31v-6.9a3.06,3.06,0,0,0-3-3.1H20a3.06,3.06,0,0,0-3,3.1v6.9H14a1,1,0,0,1-1-1v-15a1,1,0,0,0-1-1h-.17a1,1,0,0,1-.71-1.71L23.3,8.7a1,1,0,0,1,1.41,0L36.88,20.88A1,1,0,0,1,37.09,22Z"/></g>
</svg>