<svg width="343" height="343" viewBox="0 0 343 343" fill="none" xmlns="http://www.w3.org/2000/svg">
<g clip-path="url(#clip0)">
<rect width="342.6" height="342.4" fill="#C8C8C8"/>
<g clip-path="url(#clip1)">
<path d="M242.305 293.617L237.103 214.792C236.898 211.568 232.562 209.242 230.235 211.095L227.033 213.646C224.85 215.384 220.785 213.433 220.219 210.362L211.323 162.226C210.757 159.154 206.705 157.193 204.509 158.942L193.805 167.469C191.648 169.187 184.923 172.764 187.01 164.277L187.01 164.277C186.364 161.243 138.772 139.398 166.333 197.188C168.267 195.648 171.6 195.991 172.692 198.697L191.03 243.937C192.122 246.643 195.682 248 197.617 246.46L206.753 239.182C208.687 237.641 212.205 238.98 213.323 241.664L234.758 293.498C236.448 297.61 242.578 297.7 242.305 293.617Z" fill="black"/>
<path d="M313.847 78.0444C315.479 79.1501 316.872 80.6238 317.858 82.3311C385.122 198.747 306.738 332.273 185.608 342.359C184.38 342.461 183.131 342.377 181.924 342.126V342.126C167.046 339.031 168.12 317.422 183.232 315.835L185.477 315.599C227.087 311.639 271.027 288.423 296.586 243.766C322.145 199.11 322.853 143.397 295.002 96.7298L294.335 95.4478C287.864 83.0238 302.254 70.1893 313.847 78.0444V78.0444Z" fill="#28A528"/>
<path d="M255.19 21.9642C259.331 24.2926 261.927 28.6405 262.013 33.3896V33.3896C262.2 43.6728 251.202 50.3151 242.187 45.364L239.801 44.0537L237.84 43.015L235.614 41.8781L233.364 40.7818L231.065 39.7117L228.763 38.6874L226.45 37.7062L224.083 36.7499L222.879 36.2842L221.661 35.825L220.458 35.3815L219.252 34.9511L216.884 34.1413L214.568 33.3917L212.28 32.6944L210.931 32.3032L209.56 31.9199L207.209 31.2972L206.091 31.0146L204.977 30.7451L202.46 30.1669L201.107 29.8765L199.751 29.5965L198.398 29.3336L197.044 29.0824L195.817 28.8665L194.574 28.6585L192.12 28.2837L190.867 28.109L189.624 27.9442L187.107 27.6498L184.668 27.4026L183.427 27.2953L182.18 27.1959L179.662 27.031L178.407 26.9643L177.158 26.9081L175.923 26.8649L174.651 26.8296L173.41 26.8073L172.171 26.7969L170.823 26.7969L169.654 26.8034L168.393 26.8204L167.148 26.8505L164.62 26.9434L162.155 27.0761L157.052 27.4863L155.786 27.6148L154.553 27.7545L153.339 27.8997L152.13 28.0541L150.964 28.2137L149.804 28.3824L148.644 28.559L147.488 28.7461L146.167 28.9711L144.849 29.2079L143.531 29.463L142.219 29.722L140.241 30.1407L138.282 30.5842L136.313 31.059L134.352 31.5627L122.387 35.2956C113.101 38.1923 103.923 30.5324 105.111 20.8782V20.8782C105.736 15.8057 109.194 11.5316 114.024 9.86182L119.201 8.07222L122.145 7.16169L123.624 6.72605L125.081 6.31184L126.388 5.95158L127.674 5.60883L128.971 5.27392L130.271 4.94818L131.562 4.6342L132.835 4.33723L134.153 4.04027L135.424 3.76292L136.581 3.52221L137.724 3.28935L138.878 3.06433L140.037 2.84717L141.18 2.64047L142.311 2.44423L143.446 2.25192L144.621 2.06485L145.819 1.883L147.054 1.70247L149.461 1.37934L151.878 1.0876L153.192 0.945006L154.425 0.819416L155.683 0.700368L156.883 0.597018L158.09 0.500209L159.281 0.413866L160.521 0.332756L161.767 0.259495L162.96 0.198009L164.199 0.143063L165.406 0.0985838L166.66 0.0593369L167.278 0.0436383L167.858 0.0331725L168.474 0.0227069L169.169 0.0109327L170.345 0.000467119L171.102 0.000466927L172.522 0.000467044L173.966 0.0187821L175.166 0.0423302L176.411 0.0737273L178.91 0.165182L180.179 0.225283L181.418 0.293576L182.619 0.366837L183.823 0.450563L185.083 0.546064L186.336 0.649413L187.6 0.765845L188.84 0.88751L190.311 1.04319L191.78 1.21326L192.86 1.34539L193.921 1.48144L195.132 1.64759L196.339 1.81822L197.63 2.01258L198.278 2.11463L198.918 2.21667L200.202 2.42991L201.466 2.651L202.738 2.88125L204.001 3.12065L205.22 3.36136L206.437 3.61124L207.652 3.87026L208.836 4.12929L210.075 4.41187L211.292 4.69968L212.524 4.99926L213.653 5.2833C213.705 5.29628 213.755 5.30907 213.807 5.32222C214.261 5.438 216.64 6.04812 218.331 6.54237C219.011 6.74117 219.941 7.01611 220.484 7.17718C220.782 7.26553 221.079 7.35564 221.376 7.44763L223.492 8.10316L225.714 8.83236L227.928 9.59393L229.135 10.0202L230.338 10.4572L231.819 11.0092L233.3 11.5796L234.612 12.0938L235.907 12.6157L238.48 13.6898L241.056 14.8175L242.32 15.3879L243.585 15.974L244.729 16.5116L245.881 17.065L247.009 17.6184L248.133 18.1757L250.37 19.3243L252.592 20.5026L255.19 21.9642Z" fill="#D0D000"/>
<path d="M45.0951 55.7474C49.4224 52.6941 55.2041 52.4533 59.736 55.1972V55.1972C66.5454 59.3202 68.256 68.4549 63.3996 74.7614L59.8527 79.3674L59.0381 80.3585L58.2423 81.3488L57.4516 82.3522L56.6727 83.3556L55.9004 84.3721L55.1345 85.3964L54.7555 85.9093L54.3818 86.426L53.6299 87.4652L52.1718 89.5461L50.7603 91.6427L49.3856 93.7534L48.7139 94.817L48.0448 95.9012L47.3757 97.0001L46.7262 98.0938L46.0832 99.1979L45.4546 100.296L44.8273 101.415L44.2118 102.538L43.6028 103.673L43.0094 104.801L41.8424 107.096L41.5536 107.684L41.2739 108.253L40.7198 109.406L39.639 111.735L39.1176 112.896L38.6053 114.07L37.1376 117.642C33.9048 125.51 24.1821 128.362 17.1384 123.594V123.594C12.1787 120.237 10.0441 113.926 12.012 108.268V108.268L13.8845 103.738L14.8673 101.497L15.3691 100.381L15.8814 99.2674L16.9544 97.0029L17.502 95.8778L18.0626 94.7462L18.6246 93.6342L19.197 92.5209L19.7798 91.4102L20.0713 90.8581L20.3705 90.3021L20.9625 89.2098L21.2631 88.6629L21.5663 88.1174L22.173 87.037L22.7928 85.9513L23.0993 85.4185L23.4195 84.8717L24.0585 83.7898L24.7015 82.7157L25.3614 81.639L26.0371 80.548L26.7232 79.4596L27.5243 78.2128L28.1255 77.2958L28.8273 76.2361L29.5435 75.1725L31.0039 73.0565L31.7377 72.0184L32.4774 70.9888L33.9842 68.9401L35.5145 66.9189L36.2987 65.9077L37.0828 64.9045L38.6785 62.9315L39.4861 61.9503L40.2977 60.9796L42.1824 58.5356C43.0046 57.4695 43.9953 56.5234 45.0951 55.7474V55.7474Z" fill="#FD7700"/>
<ellipse cx="13.3824" cy="173.146" rx="13.3824" ry="13.3962" fill="#FF0000"/>
</g>
</g>
<defs>
<clipPath id="clip0">
<rect width="342.6" height="342.4" fill="white"/>
</clipPath>
<clipPath id="clip1">
<rect width="364" height="355" fill="white"/>
</clipPath>
</defs>
</svg>
