<svg width="34" height="34" viewBox="0 0 34 34" fill="none" xmlns="http://www.w3.org/2000/svg">
<circle cx="15.354" cy="14.814" r="14.6196" fill="white"/>
<path d="M21.1195 24.7081L20.6976 18.3257C20.6809 18.0646 20.3292 17.8763 20.1405 18.0263L19.8807 18.2329C19.7036 18.3736 19.3738 18.2157 19.328 17.967L18.6063 14.0694C18.5604 13.8207 18.2317 13.6619 18.0536 13.8035L17.1852 14.4939C17.0103 14.633 16.4647 14.9227 16.6341 14.2355L16.6341 14.2355C16.5816 13.9898 12.721 12.2211 14.9567 16.9003C15.1136 16.7756 15.384 16.8034 15.4726 17.0225L16.9601 20.6855C17.0487 20.9047 17.3375 21.0146 17.4945 20.8898L18.2356 20.3006C18.3925 20.1758 18.6779 20.2842 18.7686 20.5016L20.5074 24.6985C20.6444 25.0315 21.1417 25.0388 21.1195 24.7081Z" fill="black"/>
<path d="M26.9216 7.25398C27.0537 7.34338 27.1665 7.46253 27.2465 7.60061C32.7032 17.027 26.3446 27.8388 16.5184 28.6554C16.4188 28.6636 16.3177 28.6568 16.2199 28.6365V28.6365C15.0136 28.3861 15.1022 26.636 16.3276 26.5076L16.5079 26.4887C19.8832 26.168 23.4477 24.2882 25.5211 20.6723C27.5944 17.0565 27.6518 12.5454 25.3926 8.76673L25.3393 8.66459C24.8144 7.65878 25.9816 6.61828 26.9216 7.25398V7.25398Z" fill="#28A528"/>
<path d="M22.1631 2.71375C22.4988 2.90219 22.7093 3.25451 22.7163 3.63941V3.63941C22.7315 4.47204 21.8413 5.01027 21.111 4.60997L20.9145 4.50223L20.7554 4.41812L20.5748 4.32607L20.3923 4.2373L20.2058 4.15065L20.0191 4.06771L19.8315 3.98827L19.6395 3.91083L19.5417 3.87312L19.4429 3.83594L19.3454 3.80003L19.2476 3.76518L19.0555 3.69961L18.8676 3.63892L18.682 3.58246L18.5726 3.55079L18.4614 3.51975L18.2706 3.46933L18.1799 3.44645L18.0896 3.42463L17.8854 3.37781L17.7757 3.35429L17.6656 3.33162L17.5559 3.31033L17.4461 3.28999L17.3465 3.27252L17.2457 3.25567L17.0466 3.22532L16.945 3.21118L16.8441 3.19783L16.64 3.174L16.4421 3.15398L16.3414 3.14529L16.2403 3.13724L16.036 3.12389L15.9342 3.11849L15.8329 3.11394L15.7327 3.11044L15.6295 3.10758L15.5288 3.10578L15.4283 3.10493L15.319 3.10493L15.2241 3.10546L15.1218 3.10684L15.0209 3.10928L14.8158 3.1168L14.6158 3.12754L14.2019 3.16076L14.0992 3.17116L13.9992 3.18247L13.9007 3.19423L13.8026 3.20673L13.7081 3.21965L13.6139 3.23332L13.5199 3.24762L13.4261 3.26277L13.3189 3.28098L13.212 3.30016L13.1051 3.32081L12.9986 3.34179L12.8382 3.37568L12.6793 3.41159L12.5195 3.45004L12.3605 3.49083L11.3868 3.79403C10.6348 4.02819 9.89203 3.40785 9.98842 2.6262V2.6262C10.0391 2.21521 10.3195 1.86896 10.7109 1.73388L11.1314 1.58879L11.3703 1.51507L11.4903 1.4798L11.6084 1.44626L11.7145 1.41709L11.8188 1.38933L11.924 1.36222L12.0294 1.33584L12.1342 1.31042L12.2374 1.28637L12.3443 1.26233L12.4475 1.23987L12.5413 1.22038L12.634 1.20152L12.7276 1.1833L12.8217 1.16572L12.9143 1.14898L13.0061 1.13309L13.0982 1.11752L13.1935 1.10238L13.2907 1.08765L13.3909 1.07303L13.5861 1.04687L13.7822 1.02325L13.8888 1.0117L13.9888 1.00153L14.0909 0.991894L14.1882 0.983526L14.2861 0.975687L14.3827 0.968696L14.4833 0.962128L14.5844 0.956196L14.6811 0.951218L14.7816 0.946769L14.8796 0.943167L14.9813 0.939989L15.0314 0.938718L15.0785 0.937871L15.1284 0.937023L15.1848 0.93607L15.2802 0.935223L15.3416 0.935223L15.4568 0.935223L15.574 0.936706L15.6713 0.938612L15.7723 0.941155L15.975 0.94856L16.078 0.953426L16.1785 0.958956L16.2759 0.964888L16.3735 0.971667L16.4757 0.9794L16.5774 0.987768L16.6799 0.997196L16.7805 1.00705L16.8999 1.01965L17.0191 1.03342L17.1066 1.04412L17.1927 1.05514L17.291 1.06859L17.3889 1.08241L17.4936 1.09814L17.5461 1.10641L17.5981 1.11467L17.7022 1.13194L17.8047 1.14984L17.908 1.16848L18.0104 1.18786L18.1093 1.20736L18.208 1.22759L18.3066 1.24856L18.4026 1.26953L18.5031 1.29242L18.6018 1.31572L18.7018 1.33998L18.7224 1.34515C18.7739 1.35809 18.8254 1.37103 18.8768 1.38438C18.9548 1.40467 19.0774 1.43707 19.1729 1.46492C19.1736 1.46514 19.1743 1.46535 19.1751 1.46557C19.3143 1.50619 19.453 1.54847 19.5915 1.5913V1.5913L19.7718 1.65034L19.9514 1.71201L20.0492 1.74653L20.1469 1.78191L20.267 1.82661L20.3871 1.87279L20.4935 1.91442L20.5986 1.95669L20.8073 2.04365L21.0163 2.13496L21.1188 2.18115L21.2214 2.2286L21.3143 2.27214L21.4077 2.31694L21.4992 2.36175L21.5903 2.40688L21.7718 2.49988L21.9521 2.59529L22.1631 2.71375Z" fill="#D0D000"/>
<path d="M5.12081 5.4488C5.47202 5.20145 5.94073 5.18206 6.30828 5.40419V5.40419C6.86073 5.73807 6.99924 6.4782 6.60492 6.98932L6.31791 7.36135L6.25183 7.44159L6.18726 7.52178L6.12313 7.60303L6.05994 7.68427L5.9973 7.76658L5.93517 7.84952L5.90442 7.89104L5.8741 7.93289L5.81311 8.01703L5.69483 8.18552L5.58033 8.35528L5.46881 8.52619L5.41432 8.6123L5.36005 8.7001L5.30577 8.78908L5.25308 8.87763L5.20092 8.96703L5.14993 9.05591L5.09905 9.14658L5.04911 9.23747L4.99971 9.32941L4.95158 9.42072L4.85691 9.60652L4.83348 9.65419L4.8108 9.70026L4.76585 9.79359L4.67817 9.98214L4.63587 10.0762L4.59432 10.1712L4.47572 10.4593C4.21325 11.097 3.42397 11.3282 2.85255 10.9421V10.9421C2.45052 10.6705 2.27744 10.1596 2.43708 9.70147V9.70147L2.58898 9.33461L2.6687 9.15316L2.70941 9.0628L2.75096 8.97266L2.838 8.7893L2.88242 8.6982L2.9279 8.60657L2.97348 8.51653L3.01992 8.42639L3.0672 8.33646L3.09084 8.29176L3.11512 8.24674L3.16314 8.15829L3.18753 8.11401L3.21212 8.06984L3.26134 7.98236L3.31161 7.89445L3.33647 7.85131L3.36245 7.80703L3.41429 7.71943L3.46645 7.63247L3.51998 7.54528L3.57479 7.45694L3.63045 7.36881L3.69543 7.26786L3.7442 7.19361L3.80113 7.10781L3.85922 7.02169L3.9777 6.85035L4.03722 6.7663L4.09722 6.68293L4.21946 6.51705L4.3436 6.35339L4.40721 6.27151L4.47082 6.19028L4.60026 6.03053L4.66577 5.95108L4.73161 5.87248L4.8844 5.67472C4.95115 5.58832 5.03153 5.51168 5.12081 5.4488V5.4488Z" fill="#FD7700"/>
<ellipse cx="2.54846" cy="14.9548" rx="1.08557" ry="1.0847" fill="#FF0000"/>
</svg>
