<svg width="223" height="178" viewBox="0 0 223 178" fill="none" xmlns="http://www.w3.org/2000/svg">
<path d="M56.8451 1C57.3814 1.72937 57.5843 2.44741 57.5843 3.3407C57.5843 3.68973 57.3747 5.21809 57.6459 5.435C57.8056 5.56278 57.7075 6.16093 57.7075 6.35896C57.7075 6.57796 57.1554 6.95383 56.9683 7.06391C56.1402 7.55101 55.2502 8.01548 54.566 8.69966C54.1292 9.13647 53.1287 9.56889 53.0329 10.2396C52.9247 10.9974 52.6565 11.6748 52.6565 12.4571C52.6565 13.1885 53.2007 13.2837 53.4025 13.9902C53.4686 14.2216 53.7652 14.4897 53.7652 14.7362C53.7652 15.0852 53.7652 15.4343 53.7652 15.7833" stroke="black" stroke-linecap="round" stroke-linejoin="round"/>
<path d="M87.6437 13.6888C87.4182 13.3036 87.1754 12.9573 86.9593 12.5869C86.8061 12.3243 86.5718 11.7718 86.3502 11.5945C86.2145 11.486 85.8755 10.9021 85.8026 10.7322C85.5116 10.0531 84.6123 9.43059 84.1395 8.82265C83.8651 8.46992 83.5464 8.15046 83.2703 7.78234C83.0535 7.49324 82.825 6.94712 82.5243 6.78309C81.7122 6.34016 80.9444 5.35052 80.1904 4.76407C79.6083 4.31131 78.3598 4.32605 77.6376 4.32605C76.4659 4.32605 75.2585 4.20285 74.0649 4.20285C72.8352 4.20285 72.1084 4.33237 71.3136 3.24467C70.9262 2.71454 70.5541 1.98535 69.8079 1.98535C68.7635 1.98535 68.1132 2.66209 67.1387 2.84771C66.7503 2.92169 66.1937 3.21284 65.893 3.47053C65.3258 3.95675 64.9996 4.64723 64.4831 5.12681C64.1047 5.47823 63.7497 6.17459 63.3196 6.42035C63.0825 6.55584 62.841 6.70301 62.5736 6.85153C61.8866 7.23322 60.9878 7.39332 60.3561 7.89869C59.7026 8.42152 59.7334 9.41312 59.1858 9.99299C58.4601 10.7613 58.1275 11.4009 57.7348 12.3337C57.5797 12.7022 57.7855 13.0496 57.461 13.374C56.9724 13.8626 56.1478 13.7827 55.5447 14.0584C54.8248 14.3875 54.4779 15.0381 54.0116 15.6599" stroke="black" stroke-linecap="round" stroke-linejoin="round"/>
<path d="M53.642 16.1528C52.9207 15.6064 52.303 14.6842 51.2945 14.5581C50.5186 14.4612 49.6797 14.5513 48.8991 14.5513C48.1565 14.5513 47.687 14.5273 47.1127 15.0441C46.6185 15.4889 45.5515 15.3285 44.95 15.2631C43.9775 15.1574 43.0391 14.7967 42.0618 14.6745" stroke="black" stroke-linecap="round" stroke-linejoin="round"/>
<path d="M53.1492 16.5223C51.4434 16.5223 49.7723 16.3766 48.1256 16.8645C47.5529 17.0342 47.1925 17.4939 46.6883 17.6379C46.297 17.7497 45.6915 18.6239 45.6343 18.9862C45.5837 19.307 45.1708 19.6192 45.0457 19.9444C44.9127 20.2904 44.6786 20.5823 44.5393 20.8957C44.1576 21.7545 43.2287 21.6965 42.3355 21.6965C40.6493 21.6965 39.2702 22.3541 37.7567 22.9216C37.592 22.9834 36.5988 23.6256 36.6617 23.8456C36.7828 24.2696 39.6683 24.6274 40.0085 24.6874C41.2297 24.9029 42.5403 25.1163 43.7864 25.1459C43.9738 25.1504 44.5824 25.0385 44.7172 25.1733C44.878 25.3341 41.4664 26.2187 41.3088 26.241C40.6577 26.3331 39.9954 26.3779 39.3377 26.3779C38.8084 26.3779 40.3963 26.3779 40.9256 26.3779C42.3856 26.3779 43.8457 26.3779 45.3058 26.3779C45.8671 26.3779 47.4768 26.1131 46.9895 26.3916C46.6648 26.5771 45.8825 26.7381 45.607 26.8159C44.1556 27.2255 42.6945 27.6012 41.2199 27.9178C40.673 28.0352 39.0338 28.068 39.5704 28.2258C40.0417 28.3644 40.9356 28.2722 41.3841 28.2874C42.2809 28.3177 43.1768 28.337 44.0739 28.349C44.2238 28.351 44.6237 28.3517 44.5119 28.4517C43.7206 29.1597 42.684 29.5796 41.8221 30.1901C41.106 30.6973 43.4974 29.666 44.3408 29.4235C46.149 28.9037 43.7712 29.455 43.3347 29.5536C42.0979 29.8329 40.8635 30.1023 39.6115 30.3064C39.3309 30.3522 38.4854 30.4433 38.7697 30.4433C39.0418 30.4433 40.7805 30.3054 40.5423 30.5528C40.3282 30.7752 38.5809 31.9543 38.8039 32.2775C38.9673 32.5145 40.4002 31.8874 40.6244 31.8258C41.4903 31.5879 40.5674 32.0575 40.2959 32.2638C39.4522 32.905 40.2497 32.6356 40.905 32.5308C40.9989 32.5158 42.6414 32.151 42.2465 32.4965C41.3334 33.2955 39.4316 33.3813 38.2837 33.4889C37.6834 33.5452 38.2455 33.3475 38.4069 33.2905C38.9606 33.0951 39.5332 32.9252 40.1111 32.8182C40.2123 32.7995 40.5115 32.7935 40.4191 32.8388C39.5975 33.2408 38.6772 33.5046 37.8183 33.8106C37.4302 33.9489 36.2494 34.3018 36.6548 34.2281C37.025 34.1608 37.3903 34.0682 37.7636 34.0159C38.9657 33.8476 36.9514 35.3116 36.778 35.4532C36.364 35.7912 35.4394 36.3189 35.2244 36.8563C35.0618 37.2628 36.0876 36.6785 36.4906 36.5072C36.9998 36.2908 37.5016 36.0526 38.0168 35.8502C38.1643 35.7922 37.4857 36.7721 37.4693 36.8015C37.0283 37.5885 33.5763 43.4173 34.6974 44.0084C35.3931 44.3752 37.0346 42.5819 37.3529 42.27C38.1354 41.5032 38.8423 40.6373 39.4472 39.724C39.6064 39.4837 40.0669 39.0077 39.7894 38.93C39.7305 38.9135 39.6726 38.9735 39.6252 39.0122C39.3703 39.2201 38.7542 39.908 38.6259 40.0456C35.757 43.1233 32.8539 46.194 29.8791 49.1689C29.5403 49.5077 29.196 49.8412 28.8457 50.1681C28.6013 50.3961 28.0654 51.132 28.0654 50.7978C28.0654 50.4763 29.8365 49.0287 29.8928 48.9772C30.0778 48.808 34.1976 45.3984 34.2731 45.5552C34.4038 45.8268 33.7859 47.4814 33.7803 47.4989C33.2224 49.2366 32.5046 50.9016 31.7544 52.5636C31.026 54.1773 30.2939 55.7945 29.5232 57.3887C29.3961 57.6517 28.2629 59.1825 29.1742 58.0799C31.3548 55.4417 34.1614 53.398 36.3468 50.743C36.8708 50.1065 37.3874 49.462 37.8183 48.7582C37.9833 48.4887 37.6103 49.355 37.5103 49.6548C36.8555 51.6192 36.4081 53.7364 35.5666 55.6297C34.8644 57.2097 36.7117 52.3648 37.3803 50.7704" stroke="black" stroke-linecap="round" stroke-linejoin="round"/>
<path d="M35.1629 55.4519C33.6469 56.631 32.3774 58.151 30.9743 59.4626C30.3537 60.0427 29.9011 60.7313 29.3454 61.3652C28.7333 62.0634 27.9801 62.6259 27.3606 63.309C27.1795 63.5086 27.3551 63.5181 27.5454 63.4801C28.2923 63.3307 29.0131 63.0389 29.756 62.8641C31.0504 62.5595 31.9392 62.0864 33.0959 61.42C34.1164 60.8321 35.2411 60.4792 36.2579 59.9143C36.5609 59.746 36.1558 59.9406 36.1074 59.969C35.4453 60.3575 34.7469 60.6675 34.0541 60.9957C32.9581 61.5148 32.0759 62.061 31.3438 63.0284C31.114 63.332 29.7696 64.7839 30.5978 64.5683C33.757 63.746 36.9934 62.7436 39.9948 61.4611C41.4312 60.8473 42.4117 59.6646 43.8002 58.9835C44.2122 58.7814 43.5561 59.6871 43.4853 59.8253C43.0827 60.6114 42.7462 61.3778 42.2397 62.1113C40.9779 63.9388 39.8262 65.8633 38.4754 67.6208C36.8046 69.7947 34.9378 71.7335 32.9522 73.6231C31.7682 74.7498 30.679 76.0507 29.3454 77.0109C29.2575 77.0742 29.0084 77.2304 29.0237 77.36C29.1372 78.3246 30.3801 79.4928 30.9606 80.2414C31.0093 80.3042 31.4172 81.0069 31.4944 81.049C31.8166 81.2247 33.1748 78.7559 33.3013 78.5577C33.5838 78.115 33.8582 77.6681 34.102 77.2026C34.1119 77.1838 34.5494 76.3138 34.5537 76.3197C35.1051 77.0548 35.4535 77.9778 35.902 78.7767C36.4252 79.7085 36.8676 80.6518 37.3393 81.6102C37.622 82.1846 37.9272 82.7499 38.188 83.3349C38.2569 83.4896 38.4659 83.8965 38.3112 83.8277C37.7907 83.5964 37.2415 82.8048 36.8602 82.3973C36.6471 82.1695 36.3861 81.9891 36.2032 81.7539C35.957 81.4374 35.8839 81.0836 35.7515 80.7068C35.6723 80.4814 35.1802 78.7356 35.6146 79.4885C36.5801 81.162 37.503 82.7862 38.3659 84.5121C38.4182 84.6166 38.5783 84.9026 38.5849 84.7859C38.6304 83.9905 38.0586 82.9465 37.8184 82.2125C37.7653 82.0501 37.1587 80.3663 37.6405 81.5144C38.6435 83.9049 39.4029 86.4048 40.337 88.8239C40.8211 90.0775 41.2353 91.4627 41.877 92.6498C41.92 92.7294 41.7413 91.4811 41.699 91.2673C41.6113 90.823 41.5346 90.3767 41.4458 89.9327C41.4135 89.771 41.2717 89.3426 41.4047 89.4399C41.7525 89.694 42.1829 91.1367 42.6914 90.7677C43.2746 90.3444 43.587 89.8838 44.2108 90.5076C44.7986 91.0954 44.4115 90.8346 44.9568 90.5829C45.4 90.3783 45.7902 91.4043 46.1272 91.5205C46.3464 91.5961 46.7755 91.1541 46.9485 91.0688C47.3283 90.8816 47.5633 91.2825 47.9477 91.2741C48.395 91.2644 48.8314 90.4639 49.2002 90.8635C49.3267 91.0005 49.3091 90.9625 49.3371 90.8224C49.3757 90.6294 49.6426 91.0781 49.7546 91.2399C50.3995 92.1715 49.7852 91.3695 49.9325 91.2467C50.1845 91.0368 50.8038 92.7773 51.2055 91.8353C51.6722 90.7411 52.0665 92.1885 52.547 91.8148C52.6244 91.7546 52.4527 91.5197 52.5812 91.6574C52.6853 91.7689 53.2338 92.4229 53.382 92.3555C53.6189 92.2478 52.4449 90.4039 53.1766 91.0825C54.1551 91.9898 53.9052 89.8706 54.1759 90.0969C54.6451 90.4892 55.0162 91.1452 55.3941 91.6163C55.6152 91.8918 56.2313 92.6463 56.2086 92.2939C56.1798 91.8479 56.0237 91.404 55.8253 91.0072C55.7053 90.7671 56.1829 91.4081 56.3523 91.6163C56.5485 91.8574 56.9971 92.636 56.9546 92.3281C56.9048 91.9671 56.603 91.4509 56.366 91.1783C55.9545 90.7051 57.7599 93.2399 57.5295 92.6566C57.326 92.1414 57.1487 91.6119 57.0094 91.0756C56.811 90.3121 57.011 90.5348 57.379 90.8909C57.7854 91.2842 57.6267 90.8058 57.6117 90.5418C57.5802 89.991 58.2262 90.7228 58.344 90.8224C58.9797 91.3603 58.255 90.2566 58.255 90.0285C58.255 90.0051 58.5489 90.3391 58.5698 90.1927C58.6011 89.974 59.4726 90.8597 59.5759 90.9388C59.7032 91.0361 59.6883 90.3722 60.0482 90.5007C60.8306 90.7802 60.8786 89.4262 61.0337 88.9608" stroke="black" stroke-linecap="round" stroke-linejoin="round"/>
<path d="M87.2741 13.9355C86.2342 14.8061 84.8405 16.1829 85.5767 17.5082C85.9762 18.2272 85.9982 18.9712 86.3159 19.7257C86.6945 20.6248 86.8681 21.5852 86.3843 22.5044C86.2814 22.6999 86.0173 23.0471 85.8573 23.1751C85.6487 23.342 85.746 23.8106 85.6452 24.0375C85.4821 24.4043 85.375 25.2694 84.9744 25.2694C83.947 25.2694 83.9922 24.5766 83.4824 24.0101C82.6864 23.1257 82.0855 21.9972 80.868 21.642C80.2418 21.4594 79.7783 22.031 79.328 22.3812C79.1239 22.54 78.9219 22.9297 78.7736 23.1478C78.6402 23.3439 78.639 23.7757 78.4657 23.9143C78.0039 24.2837 78.4041 25.1702 78.4041 25.5774C78.4041 26.0698 78.42 26.5361 78.6504 26.9394C78.9012 27.3782 79.2144 27.7382 79.4512 28.1645C79.6038 28.4392 79.6552 28.4917 79.8824 28.7189C80.0668 28.9033 80.0959 29.3297 80.3204 29.4581C81.3857 30.0668 82.551 30.0601 83.7014 30.4436" stroke="black" stroke-linecap="round" stroke-linejoin="round"/>
<path d="M81.6072 24.2837C81.4849 25.0002 81.9768 25.3954 81.9768 26.07C81.9768 26.5798 82.0222 26.8091 82.2505 27.2404C82.3597 27.4465 82.3256 27.7218 82.6201 27.7331C82.729 27.7373 83.2861 27.8009 83.3251 27.6647C83.4426 27.2535 83.0359 26.9196 82.8391 26.6244" stroke="black" stroke-linecap="round" stroke-linejoin="round"/>
<path d="M87.5205 13.8125C88.4055 14.264 89.2261 15.1579 89.7106 16.03C90.0284 16.6021 90.5764 17.6746 91.1479 18.0011C91.779 18.3617 91.7058 19.5343 92.2567 19.849C92.3909 19.9257 92.6292 20.6331 92.7905 20.8072C93.0591 21.0973 93.3656 21.5742 93.5297 21.9433C93.6623 22.2418 93.557 22.7824 93.557 23.1137C93.557 23.4556 93.6923 23.7261 93.8308 24.0376C93.9901 24.3961 93.993 24.7573 94.0567 25.1395C94.1125 25.4745 94.1856 26.2532 94.3578 26.5631C94.7542 27.2766 95.7566 27.2928 96.1167 28.1031C96.3755 28.6853 96.7393 29.2994 96.2673 29.8894C95.8602 30.3983 95.1586 30.5587 95.1586 31.3677C95.1586 31.7682 95.4389 33.154 95.0354 33.154C94.8256 33.154 93.6711 33.154 94.4742 33.154C94.932 33.154 95.2236 33.3986 95.2818 33.8932C95.3319 34.3194 95.6513 34.5023 95.6513 34.9404C95.6513 35.7539 96.0285 36.5676 96.1373 37.3837C96.2361 38.1247 95.5374 38.9533 95.097 39.4917C94.375 40.3741 93.9611 41.3859 92.9684 42.024C92.2978 42.4552 91.3631 43.0096 90.5388 43.0096C90.1075 43.0096 89.6892 42.982 89.2726 43.1054C89.0631 43.1675 88.8369 43.1128 88.6224 43.1396C88.4028 43.1671 88.1949 43.2326 87.9722 43.2491C87.4574 43.2873 88.4168 42.7086 88.5061 42.64" stroke="black" stroke-linecap="round" stroke-linejoin="round"/>
<path d="M88.2597 43.0092C87.8799 42.9351 87.4572 42.7771 87.3974 43.2556C87.3678 43.4917 87.1263 43.7115 87.0278 43.9332C86.8312 44.3754 86.8888 44.7682 86.5624 45.1309C85.9935 45.763 85.4749 47.1107 85.4262 47.937C85.4008 48.3694 84.9006 48.7931 84.8034 49.2306C84.7213 49.6003 84.284 50.2054 84.0711 50.5515C83.7854 51.0157 83.7714 51.4825 83.5167 51.9408C83.3431 52.2534 83.4892 53.2173 83.2087 53.3576" stroke="black" stroke-linecap="round" stroke-linejoin="round"/>
<path d="M82.9623 53.4805C82.2281 53.4976 81.5094 53.6037 80.7722 53.6037C80.1392 53.6037 79.7748 53.235 79.2186 52.9878C78.9255 52.8575 78.7467 52.7787 78.3904 52.6798C77.8543 52.5309 77.235 52.6182 76.6794 52.6182C75.8459 52.6182 75.0906 52.7414 74.2702 52.7414C73.7716 52.7414 73.2926 52.9878 72.7988 52.9878C72.3585 52.9878 71.6653 53.0356 71.2588 53.2068C70.9102 53.3536 70.2402 53.3845 69.8626 53.4532C69.1942 53.5747 68.2872 53.56 67.6383 53.419C67.1017 53.3023 66.5519 53.3916 66.0094 53.2889C65.7687 53.2434 65.232 53.2356 65.0717 53.0151C64.981 52.8904 65.041 52.281 65.1265 52.1528C65.9949 50.8501 67.3305 49.3681 67.871 47.8068C68.1938 46.8741 68.6178 45.8276 69.1645 45.0075C69.7815 44.082 70.6007 43.3804 71.2041 42.393C71.9643 41.1491 72.9835 40.1305 73.7775 38.9162C74.3867 37.9844 74.7914 36.637 75.0779 35.5626C75.4126 34.3074 76.0235 32.9984 76.5288 31.7983C76.8022 31.1491 76.7111 30.3922 76.8094 29.704C76.9279 28.8744 77.271 28.0925 77.2954 27.2401C77.3064 26.852 77.4419 26.4671 77.5417 26.1177C77.6531 25.7278 78.1209 24.2344 78.5273 24.7762" stroke="black" stroke-linecap="round" stroke-linejoin="round"/>
<path d="M83.9478 30.5664C83.6886 31.2307 83.5414 31.9067 83.3044 32.5649C83.1371 33.0297 82.7347 33.4408 82.4968 33.8927C81.9986 34.8393 81.1718 35.8998 80.3683 36.6029C78.604 38.1467 76.8946 39.8508 75.2694 41.476C74.8467 41.8987 74.5158 42.3973 73.9759 42.7011C73.4535 42.9949 72.6062 43.6389 72.3059 44.1794C71.707 45.2574 70.8772 46.2475 70.2458 47.3209C69.77 48.1297 68.913 48.6444 68.1789 49.1688C67.2408 49.8389 66.2301 50.7984 65.5918 51.7559" stroke="black" stroke-linecap="round" stroke-linejoin="round"/>
<path d="M83.0854 53.9737C84.0476 53.9737 84.8686 53.8066 85.6109 54.4665C86.001 54.8132 86.3806 55.1155 86.7813 55.4589C87.6986 56.2452 88.5441 57.2699 89.5942 57.8475C91.6803 58.9949 94.173 60.3732 94.173 63.0833C94.173 63.9681 94.759 64.6215 94.7889 65.4582C94.8059 65.9347 95.1251 66.3406 95.1585 66.7586C95.1903 67.1561 95.321 67.6957 95.5281 68.0453C95.9616 68.7769 96.1434 69.5723 96.9106 70.1122C97.9012 70.8092 98.3244 71.8806 99.1007 72.754C99.3095 72.9889 99.608 73.7488 99.7099 74.0544C99.8915 74.5994 100.101 75.1185 100.271 75.6628C100.574 76.6329 100.456 77.8612 100.456 78.8727C100.456 80.31 99.8061 82.0232 99.0323 83.2392C98.5948 83.9268 98.0339 84.7733 97.7456 85.5663C97.6134 85.9299 97.4641 86.2392 97.3486 86.6203C97.282 86.8402 97.1296 86.874 97.1296 87.113C97.1296 87.2533 97.0743 86.8396 97.0338 86.7434C96.9012 86.4286 96.8832 85.9791 96.8832 85.6347C96.8832 85.2942 96.6552 84.9802 96.6368 84.6491C96.5973 83.9382 96.5136 83.2867 96.5136 82.5548C96.5136 82.2488 96.379 81.7791 96.2399 81.5008C96.1261 81.2733 96.2342 80.8136 96.0209 80.7069" stroke="black" stroke-linecap="round" stroke-linejoin="round"/>
<path d="M99.3471 84.0332C100.657 84.0332 102.303 83.4257 103.59 83.7936C104.772 84.1313 105.764 84.9164 106.944 85.1693C107.517 85.2922 107.964 85.1612 108.402 85.5115C108.676 85.7311 109.079 86.4727 109.079 86.7982C109.079 87.5865 108.24 88.0307 107.848 88.6188C107.467 89.1901 107.453 89.9312 107.478 90.5899C107.506 91.3286 107.684 92.0786 107.594 92.8416C107.42 94.3208 106.565 95.3559 105.685 96.4758C105.096 97.2253 104.549 97.6805 104.302 98.6386C104.103 99.4135 104.275 100.408 104.275 101.212C104.275 102.387 104.275 103.562 104.275 104.737C104.275 105.72 103.986 106.368 103.481 107.194C103.324 107.45 103.151 107.754 102.975 107.981C102.765 108.25 102.733 108.399 102.578 108.727C102.124 109.679 101.743 110.576 101.195 111.478C100.241 113.05 98.8826 114.477 97.1844 115.27C95.6571 115.983 94.7066 116.151 93.1053 115.448C92.5227 115.192 91.9321 114.536 91.5243 114.038C90.8848 113.256 90.173 112.533 89.56 111.697C89.1095 111.083 88.524 110.152 88.3828 109.411C88.2223 108.568 87.57 107.87 87.5205 107.002C87.4798 106.291 86.9877 105.508 86.7197 104.853C86.5107 104.342 86.4114 103.832 86.2611 103.306C86.1253 102.831 85.8122 102.399 85.6725 101.91C85.606 101.677 85.4602 101.387 85.3646 101.157C85.2388 100.855 85.3366 100.531 85.2071 100.24C85.0115 99.7999 84.7214 98.9561 84.687 98.4743C84.6607 98.1068 84.3701 97.7914 84.2216 97.4614C84.0257 97.026 83.9662 96.6111 83.8862 96.1473C83.6774 94.9363 83.4566 93.5557 82.7706 92.5131C82.2105 91.6617 81.8944 90.6983 81.3607 89.8507C80.9814 89.2483 80.4362 88.5902 80.1288 87.9754" stroke="black" stroke-linecap="round" stroke-linejoin="round"/>
<path d="M60.0481 88.0986C60.4835 89.2678 61.4625 90.7606 61.5265 92.0409C61.5774 93.0587 61.8216 94.0637 61.9029 95.0797C62.0645 97.1002 62.8295 98.7574 63.3744 100.664C63.6292 101.556 63.6208 102.36 63.6208 103.32C63.6208 104.515 63.0269 105.33 62.6078 106.359C62.4451 106.758 62.1321 107.061 61.9234 107.44C61.7128 107.823 61.7161 108.11 61.5812 108.515C61.1807 109.716 61.1493 111.123 60.9379 112.368C60.7234 113.631 60.7873 114.937 60.7873 116.214C60.7873 116.712 60.8981 117.181 60.9105 117.665C60.9305 118.447 60.6386 118.83 60.4109 119.513C60.2749 119.921 59.3095 120.641 58.9394 120.992C58.6482 121.267 58.4262 121.565 58.1455 121.854C57.5289 122.489 56.7459 122.906 56.1128 123.517C55.337 124.265 53.9634 124.921 53.4641 125.919C53.1985 126.451 52.951 126.94 52.7249 127.48C52.3948 128.268 51.587 128.817 51.4245 129.67C51.269 130.486 51.0549 131.239 51.0549 132.079" stroke="black" stroke-linecap="round" stroke-linejoin="round"/>
<path d="M50.8085 131.833C50.8298 132.709 51.178 133.563 51.178 134.392C51.178 135.264 51.178 136.135 51.178 137.007C51.178 138.036 50.6003 139.028 50.5621 140.059C50.5353 140.781 50.4389 141.499 50.4389 142.249C50.4389 143.315 50.3157 144.364 50.3157 145.439C50.3157 146.159 50.5957 146.902 50.8358 147.574C51.4403 149.267 52.1661 150.975 52.5058 152.776C52.9361 155.056 53.4655 157.305 53.7651 159.627C53.8904 160.597 54.3072 161.474 54.6275 162.385C54.8379 162.983 54.9747 163.665 55.2435 164.233C55.9176 165.656 56.1826 167.164 56.7765 168.606C56.9619 169.056 56.9315 169.586 57.064 170.05C57.2 170.526 57.3683 171.083 57.461 171.57C57.5898 172.246 57.9235 173.157 58.2686 173.746C58.5084 174.155 58.5769 174.605 58.8708 175.005C59.3026 175.594 59.6648 175.81 60.2739 176.176C60.6353 176.393 61.0447 176.619 61.4032 176.799" stroke="black" stroke-linecap="round" stroke-linejoin="round"/>
<path d="M100.086 176.798C101.037 176.394 101.931 175.981 102.92 175.628C103.562 175.399 104.108 175.055 104.713 174.773C105.094 174.595 105.859 174.15 106.246 174.095C106.61 174.043 106.948 173.545 107.136 173.226C107.278 172.985 107.81 172.808 107.848 172.487C107.871 172.288 108.208 171.799 108.34 171.597C108.563 171.257 108.786 170.979 108.956 170.639" stroke="black" stroke-linecap="round" stroke-linejoin="round"/>
<path d="M108.833 170.639C108.833 168.912 108.916 167.158 108.703 165.458C108.645 164.99 108.453 164.703 108.217 164.328C108.006 163.993 108.007 163.557 107.848 163.199C107.566 162.566 107.306 161.873 107.013 161.221C106.713 160.555 106.48 159.959 106.123 159.305C105.743 158.608 105.17 157.895 104.891 157.128C104.618 156.376 104.356 155.555 103.967 154.863C103.693 154.376 103.57 153.859 103.44 153.323C103.32 152.83 102.98 152.531 102.824 152.064C102.582 151.337 102.114 150.686 101.838 149.969C101.586 149.314 101.318 148.332 100.894 147.786C100.718 147.56 100.541 146.998 100.429 146.712C100.222 146.187 99.596 145.734 99.4772 145.199C99.2709 144.271 98.2804 143.49 97.9647 142.578C97.7081 141.837 97.2883 141.172 96.9791 140.442C96.4574 139.211 96.2311 137.56 96.5822 136.206C96.7899 135.405 97.1359 134.612 97.4035 133.831C97.7039 132.955 97.8935 132.099 98.17 131.23C98.5107 130.159 98.3616 128.878 98.3616 127.767" stroke="black" stroke-linecap="round" stroke-linejoin="round"/>
<path d="M97.1297 133.064C97.1297 132.388 97.0788 131.652 97.2803 130.998C97.369 130.709 97.4909 130.417 97.4993 130.108C97.5195 129.361 97.4993 128.611 97.4993 127.863C97.4993 126.378 96.8833 124.911 96.8833 123.448C96.8833 120.893 96.2673 118.499 96.2673 115.94" stroke="black" stroke-linecap="round" stroke-linejoin="round"/>
<path d="M107.971 172.117C108.294 172.898 108.708 173.754 108.826 174.581C108.922 175.249 109.203 175.756 109.203 176.429" stroke="black" stroke-linecap="round" stroke-linejoin="round"/>
<line x1="1" y1="176.497" x2="222" y2="176.497" stroke="black"/>
<line x1="1.05101" y1="83.4997" x2="40.051" y2="87.4997" stroke="black"/>
<line x1="0.0552158" y1="78.5001" x2="36.0552" y2="82.5001" stroke="black"/>
<line x1="0.0671818" y1="112.502" x2="59.0672" y2="120.502" stroke="black"/>
<line x1="0.0620174" y1="116.501" x2="56.062" y2="123.501" stroke="black"/>
<line x1="0.06799" y1="129.502" x2="51.068" y2="136.502" stroke="black"/>
<line x1="0.0693239" y1="132.502" x2="50.0693" y2="139.502" stroke="black"/>
<line x1="0.0837073" y1="145.504" x2="53.0837" y2="154.504" stroke="black"/>
<line x1="0.0837073" y1="148.504" x2="53.0837" y2="157.504" stroke="black"/>
<line x1="1.0864" y1="162.505" x2="58.0864" y2="172.505" stroke="black"/>
<line x1="1.08495" y1="165.504" x2="59.085" y2="175.504" stroke="black"/>
<line x1="110.044" y1="90.4991" x2="222.044" y2="100.499" stroke="black"/>
<line x1="108.052" y1="94.4998" x2="222.052" y2="106.5" stroke="black"/>
<line x1="97.0674" y1="126.502" x2="222.067" y2="143.502" stroke="black"/>
<line x1="99.0724" y1="129.502" x2="222.072" y2="147.502" stroke="black"/>
<line x1="100.077" y1="144.503" x2="222.077" y2="163.503" stroke="black"/>
<line x1="101.074" y1="148.503" x2="222.074" y2="166.503" stroke="black"/>
<line x1="109.088" y1="166.505" x2="165.088" y2="176.505" stroke="black"/>
<line x1="108.089" y1="162.505" x2="185.089" y2="176.505" stroke="black"/>
<line x1="121.5" y1="96.0032" x2="120.5" y2="177.003" stroke="black"/>
<line x1="117.5" y1="95.0093" x2="115.5" y2="177.009" stroke="black"/>
<line x1="200.5" y1="104.011" x2="198.5" y2="177.011" stroke="black"/>
<line x1="190.5" y1="103.018" x2="187.458" y2="177.016" stroke="black"/>
<line x1="87.0037" y1="55.4971" x2="222.004" y2="56.4971" stroke="black"/>
<path d="M96.5264 38.5744C100.06 38.5744 103.59 38.7121 107.116 38.7401C108.847 38.7539 110.598 38.8045 112.328 38.7309C113.923 38.6631 115.543 38.1164 117.135 37.9113C118.759 37.7022 120.134 37.4886 121.647 36.8247C122.954 36.2515 124.111 35.3014 125.46 34.8357C127.144 34.2538 127.002 36.8223 127.025 37.8745C127.045 38.7675 127.328 39.4824 126.988 40.3885C126.597 41.4316 126.031 41.9259 125.902 43.0866C125.59 45.8964 128.554 45.0166 130.156 44.2837C132.052 43.4164 133.652 42.2939 135.727 41.8987C137.521 41.5569 139.171 41.7572 140.893 40.987C143.725 39.7206 146.184 38.5744 149.328 38.5744C151.32 38.5744 152.953 39.0141 154.863 39.5597C158.327 40.5494 161.777 41.7727 165.121 43.1234C167.595 44.1224 169.784 45.1385 172.552 44.8546C173.88 44.7184 175.262 44.2537 176.586 44.0074C177.548 43.8283 178.617 44.8544 179.431 45.2966C181.335 46.3311 182.986 46.5282 185.094 46.7792C187.561 47.0729 190.125 47.1341 192.609 47.0186C195.93 46.8641 199.348 46.8598 202.637 46.3648C205.293 45.9649 207.849 45.3703 210.547 45.3703C211.549 45.3703 212.444 44.8965 213.475 44.873C213.9 44.8634 214.543 45.0925 214.543 44.5415" stroke="black" stroke-linecap="round" stroke-linejoin="round"/>
<path d="M187.194 47.1938C185.999 47.444 184.886 47.9833 183.768 48.4646C182.356 49.0731 181.028 49.5236 179.569 49.9288C177.252 50.5724 174.894 50.974 172.571 51.5035C170.822 51.9019 169.208 52.7641 167.377 52.8295C166.09 52.8755 164.777 53.0106 163.5 53.1702C161.566 53.412 159.485 53.824 157.524 53.824C155.432 53.824 153.501 54.059 151.465 54.3305C149.891 54.5403 148.478 54.8185 146.879 54.8185C145.613 54.8185 144.401 54.8037 143.168 54.9935C142.17 55.1471 140.619 54.9277 139.788 55.4816" stroke="black" stroke-linecap="round" stroke-linejoin="round"/>
<path d="M108.461 85.9803C108.722 84.315 109.366 82.0511 108.921 80.3815C108.619 79.2474 109.063 78.4477 109.124 77.3611C109.165 76.6124 109.347 75.5743 109.658 74.8748C109.987 74.1336 110.544 73.6178 110.91 72.8857C111.128 72.451 111.281 71.8878 111.536 71.486C111.753 71.1455 111.769 70.3957 112.107 70.1968C112.565 69.9277 112.716 69.3947 113.102 69.0642C113.444 68.7706 113.768 68.4784 113.967 68.0789C114.367 67.2807 114.594 66.6855 114.594 65.7583C114.594 65.2521 114.295 65.1854 113.848 65.0861C113.244 64.9518 113.503 65.0886 113.176 65.5097C112.806 65.9848 112.177 66.6342 111.693 67.0107C111.031 67.5257 109.938 67.5732 109.796 68.4932C109.745 68.8223 109.97 69.6806 109.621 69.8653C109.322 70.0236 108.868 69.8393 108.544 69.9114C107.349 70.1769 107.684 71.9986 107.457 72.7936C107.403 72.9822 104.419 72.72 104.077 72.72C103.626 72.72 102.871 72.7094 102.53 73.0883C102.411 73.2214 102.377 73.9153 102.319 74.1197C102.236 74.4071 101.904 74.6979 101.794 75.0037C101.632 75.452 101.589 75.8359 101.49 76.2837C101.368 76.8333 101.193 77.7629 100.67 78.0241" stroke="black" stroke-linecap="round" stroke-linejoin="round"/>
<line x1="117.099" y1="58.0177" x2="104.099" y2="72.0177" stroke="black" stroke-width="3"/>
<path d="M190.17 121.467C171.38 122.046 164.115 125.477 154.17 134.467" stroke="black"/>
<line x1="1" y1="55.4971" x2="36" y2="55.4971" stroke="black"/>
<path d="M151.409 137.102C144.299 143.564 141 150.997 141 150.997" stroke="black"/>
<path d="M139.609 154.101C139.609 154.101 137.041 161.04 137.476 167.499" stroke="black"/>
<path d="M137 171.997C136.5 174.497 137.5 176.997 137.5 176.997" stroke="black"/>
<line x1="158" y1="175.497" x2="159" y2="175.497" stroke="black"/>
<path d="M158 175.997C157.26 175.997 157 175.997 157 175.997" stroke="black" stroke-linecap="round" stroke-linejoin="round"/>
<path d="M157.969 171.513C157.969 170.641 157.969 169.768 157.969 168.895C157.969 168.163 158.351 167.568 158.378 166.881C158.427 165.653 159.505 164.527 159.505 163.267C159.505 162.741 160.064 162.286 160.12 161.781C160.187 161.178 160.607 160.597 160.888 160.091C161.301 159.348 162.092 158.861 162.476 158.093" stroke="black" stroke-linecap="round" stroke-linejoin="round"/>
<path d="M188.496 143.854C186.7 143.854 184.837 144.184 183.067 144.446C182.065 144.594 181.03 144.39 180.028 144.548C178.813 144.74 177.338 144.96 176.203 145.47C175.753 145.673 175.13 145.78 174.746 146.068C173.966 146.653 172.949 147.094 172.06 147.485C171.147 147.887 170.135 148.339 169.385 148.982C168.685 149.582 168.037 150.137 167.291 150.718C166.561 151.286 165.99 152.21 165.196 152.664C164.981 152.787 164.793 153.067 164.627 153.233C164.172 153.689 163.605 154.246 164.627 153.381" stroke="black" stroke-linecap="round" stroke-linejoin="round"/>
<path d="M117.811 130.536C118.427 130.453 119.018 130.434 119.638 130.434C120.537 130.434 119.61 130.513 119.2 130.531C118.486 130.561 116.459 129.831 117.174 129.831C117.975 129.831 119.268 129.987 119.996 130.411C120.877 130.923 121.073 131.793 119.837 132.027C119.278 132.133 118.648 132.12 118.078 132.17C117.958 132.18 117.592 132.234 117.504 132.124C117.292 131.859 117.026 131.026 116.997 130.69C116.885 129.404 118.188 131.539 118.551 131.515C118.897 131.492 119.194 131.253 119.553 131.253C119.831 131.253 119.994 131.332 120.065 131.048" stroke="black" stroke-linecap="round" stroke-linejoin="round"/>
<path d="M117.811 149.488C117.811 148.585 117.521 148.288 116.935 147.701C116.833 147.6 117.201 147.806 117.333 147.86C117.833 148.067 118.337 148.293 118.858 148.441C119.196 148.537 119.557 148.669 119.911 148.669C120.084 148.669 120.2 148.631 120.361 148.566C120.497 148.512 119.841 148.38 119.757 148.339C119.17 148.045 118.918 147.744 118.164 148.054C117.894 148.165 117.299 148.392 117.299 148.726C117.299 149.168 117.299 149.61 117.299 150.052C117.299 150.494 118.836 150.308 119.245 150.308C119.808 150.308 120.065 149.87 120.065 149.335C120.065 148.749 119.608 148.755 119.12 148.566C118.339 148.264 118.876 148.914 119.143 149.181C119.545 149.583 119.014 149.73 118.631 149.687C118.069 149.625 117.987 148.954 117.703 148.623C117.6 148.503 117.19 148.551 117.054 148.572C116.826 148.607 116.889 148.917 116.889 149.078C116.889 149.876 116.907 150 117.766 150C118.45 150 119.024 150.047 119.655 150.33C119.988 150.48 120.373 150.469 120.679 150.666C120.847 150.774 121.101 150.832 120.884 150.615" stroke="black" stroke-linecap="round" stroke-linejoin="round"/>
<path d="M119.04 166.289C118.456 165.661 117.784 164.945 116.991 164.57C116.789 164.474 117.744 164.732 117.959 164.747C118.559 164.788 118.822 164.929 119.325 165.264C119.576 165.432 119.817 165.681 120.042 165.879C120.809 166.552 119.845 166.226 119.427 165.993C118.969 165.737 118.172 165.646 117.811 165.264C117.665 165.11 117.216 164.354 116.935 164.456C115.97 164.807 116.467 165.935 116.866 166.494C116.962 166.628 116.946 166.856 117.094 166.926C117.46 167.101 117.933 167.139 118.329 167.205C118.702 167.267 119.053 167.518 119.45 167.518C120.251 167.518 119.377 166.486 119.143 166.084C118.897 165.663 118.449 165.663 117.999 165.532C117.755 165.461 117.557 165.279 117.299 165.264C117.266 165.263 117.91 165.8 118.039 165.902C118.409 166.195 118.741 166.483 119.04 166.847C119.134 166.961 119.285 167.12 119.399 167.211C119.47 167.267 119.402 167.311 119.325 167.285C119.047 167.192 118.851 166.9 118.631 166.721C118.315 166.466 116.895 164.727 117.276 166.061C117.363 166.366 117.352 166.686 117.037 166.801C116.862 166.865 116.716 166.903 116.53 166.903C116.287 166.903 117.345 166.459 117.504 166.391" stroke="black" stroke-linecap="round" stroke-linejoin="round"/>
<path d="M37.7451 21.5753C34.9288 19.8319 32.4952 18.0558 28.9853 18.0558C25.5698 18.0558 22.2357 17.74 19.0914 16.5306C17.9032 16.0736 16.539 16.0275 15.3502 15.5269C14.6617 15.237 13.3835 15.2783 12.6388 15.2401C11.7314 15.1936 10.9246 14.7708 10.0057 14.7708C7.02259 14.7708 4.35665 13.5977 1.37622 13.5977" stroke="black" stroke-linecap="round" stroke-linejoin="round"/>
<path d="M200.5 122.997L213.5 126.497L222 132.497" stroke="black"/>
<path d="M214.892 45.0527C217.19 44.1772 218.94 44.6108 221.299 44.6108" stroke="black" stroke-linecap="round" stroke-linejoin="round"/>
<path d="M192.23 141.555C192.025 141.411 191.394 141.214 191.269 140.983C191.185 140.83 192.89 140.789 193.051 140.789C193.852 140.789 194.603 140.688 195.406 140.764C196.091 140.83 196.736 141.008 197.426 141.008C198.328 141.008 198.473 141.215 198.473 141.993C198.473 142.249 198.473 142.505 198.473 142.76C198.473 143.124 198.464 142.675 198.412 142.541C198.302 142.258 198.091 141.737 198.388 141.47C198.485 141.383 198.817 141.336 198.941 141.336C199.495 141.336 197.834 141.336 197.28 141.336C195.326 141.336 193.567 141.449 191.792 140.594C191.323 140.369 190.935 140.241 190.423 140.241C189.906 140.241 190.607 140.134 190.782 140.132C191.433 140.123 192.084 140.132 192.735 140.132C193.391 140.132 195.354 139.969 194.7 140.028C193.668 140.122 192.753 140.022 191.737 140.022C191.545 140.022 189.086 139.434 189.735 140.326C189.833 140.461 189.82 140.559 189.82 140.734C189.82 141.05 190.133 141.262 190.149 141.555C190.155 141.663 189.804 141.774 189.912 141.774C190.4 141.774 190.889 141.774 191.378 141.774C192.967 141.774 194.383 141.762 195.844 142.492C196.331 142.736 196.985 143.089 197.548 143.089C198.013 143.089 198.418 143.095 198.856 143.192C199.534 143.343 198.132 141.691 197.438 141.665C197.146 141.654 196.747 141.607 196.459 141.671C196.125 141.745 197.077 142.068 197.134 142.079C197.34 142.116 197.552 142.103 197.761 142.103C197.943 142.103 198.412 142.399 197.974 142.383C196.754 142.338 195.558 141.777 194.323 141.665C193.78 141.616 193.155 141.647 192.644 141.47C192.059 141.268 191.417 141.117 190.794 141.117C190.443 141.117 190.36 141.053 190.234 141.336C190.018 141.822 191.103 141.665 191.366 141.665C192.168 141.665 193.188 141.498 193.994 141.677C194.446 141.777 194.821 142.15 195.187 142.407C195.367 142.534 195.592 142.527 195.735 142.705C195.832 142.828 195.16 142.67 195.047 142.657C194.717 142.618 194.322 142.607 194.007 142.517C193.579 142.395 193.116 142.528 192.692 142.407C192.117 142.243 191.457 142.224 190.855 142.127C190.584 142.084 190.309 142.135 190.039 142.097C189.558 142.028 191.11 141.7 191.244 141.665" stroke="black" stroke-linecap="round" stroke-linejoin="round"/>
<path d="M193.106 160.831C191.9 160.621 188.294 159.934 189.492 160.186C190.047 160.303 190.544 160.52 191.074 160.71C191.657 160.919 192.345 160.877 192.954 160.996C194.528 161.302 196.118 161.777 197.706 161.987C198.097 162.039 198.247 160.887 197.974 160.661C197.162 159.991 195.561 160.124 194.578 160.059C193.878 160.012 193.211 159.846 192.497 159.846C191.585 159.846 190.693 159.795 189.784 159.712C189.519 159.688 189.121 159.647 188.883 159.493C188.687 159.366 188.954 159.191 189.078 159.189C189.665 159.175 190.177 159.577 190.763 159.621C191.791 159.697 192.831 159.581 193.86 159.633C194.439 159.662 194.991 159.806 195.552 159.931C196.085 160.049 196.27 160.618 196.72 160.856C197.158 161.088 196.914 161.285 196.477 161.263C195.758 161.228 194.85 161.201 194.146 161.044C193.225 160.84 191.918 160.787 190.958 160.996C190.524 161.09 189.485 161.459 189.187 161.184C188.713 160.747 188.936 159.727 189.686 159.919C190.558 160.142 191.211 160.608 192.011 160.941C192.664 161.213 193.29 161.24 193.958 161.428C195.127 161.757 196.341 161.825 197.536 162.042C198.271 162.176 198.125 161.97 197.779 161.367C197.38 160.671 196.601 160.58 195.954 160.284C195.215 159.946 194.273 160.459 193.605 160.771C193.311 160.908 192.649 161.144 192.339 161.16C192.285 161.163 191.726 161.275 191.755 161.294C192.264 161.633 193.509 161.805 194.14 161.817C194.323 161.821 194.963 161.927 195.053 161.72C195.242 161.283 195.374 161.037 195.734 160.722" stroke="black" stroke-linecap="round" stroke-linejoin="round"/>
<path d="M92.897 22.1689C92.6889 22.4464 92.4808 22.7239 92.2727 23.0014" stroke="black" stroke-linecap="round" stroke-linejoin="round"/>
<path d="M85.1968 25.0823C85.2091 24.5775 85.2462 24.1015 85.4049 23.6255" stroke="black" stroke-linecap="round" stroke-linejoin="round"/>
<line x1="84.8915" y1="24.509" x2="93.8915" y2="22.509" stroke="black"/>
<line x1="93.4851" y1="19.8758" x2="94.4851" y2="23.8758" stroke="black"/>
<path d="M61.7616 74.5518C61.7616 79.3428 63.0726 83.9941 63.0726 88.7542C63.0726 89.5412 62.3953 90.4039 61.7616 90.7207" stroke="black" stroke-linecap="round" stroke-linejoin="round"/>
<path d="M96.2845 80.6697C92.7211 82.1472 89.3812 83.98 85.7479 85.2825C84.4333 85.7537 81.1769 86.8498 80.5525 88.0987" stroke="black" stroke-linecap="round" stroke-linejoin="round"/>
<path d="M78.3676 115.63C78.8556 118.07 80.1156 121.02 80.1156 123.496" stroke="black" stroke-linecap="round" stroke-linejoin="round"/>
<path d="M87.5445 123.496C87.5445 124.711 88.3494 130.362 87.4474 131.264C86.9115 131.8 86.2335 131.311 86.2335 132.454C86.2335 133.11 86.2335 133.765 86.2335 134.421" stroke="black" stroke-linecap="round" stroke-linejoin="round"/>
<path d="M66.5686 122.622C67.7749 123.134 69.0443 123.64 69.6276 124.807" stroke="black" stroke-linecap="round" stroke-linejoin="round"/>
<path d="M109.362 84.1622C111 83.0542 114.533 84.3524 116.522 84.9738C117.627 85.3194 117.847 85.8622 118.145 86.9036C118.349 87.6182 118.593 87.3416 117.369 87.7332C116.079 88.1462 114.926 88.5357 113.654 88.9596C113.12 89.1377 111.592 89.0416 111.309 89.5367C110.5 90.9535 107.661 91.459 107.089 92.6026" stroke="black" stroke-linecap="round" stroke-linejoin="round"/>
<path d="M209.725 146.174C211.197 146.174 215.096 145.789 216.266 147.294C216.88 148.083 218.063 148.119 218.612 149.053C219.519 150.595 221.735 151.344 222.203 153.213" stroke="black" stroke-linecap="round" stroke-linejoin="round"/>
<path d="M218 42.7424C214 44.4971 212 43.7469 200.5 45.4971C191.602 46.8512 182 47.9971 179 42.7424C179 33.4942 188.507 25.9971 199 25.9971C209.493 25.9971 218 33.4942 218 42.7424Z" fill="#EDDB9A"/>
<path d="M214.126 45.0711C214.765 44.9464 215.866 45.0025 216.343 44.5252C216.634 44.2346 216.773 44.1499 217.196 44.1499" stroke="black" stroke-linecap="round" stroke-linejoin="round"/>
<path d="M214.433 45.0712C216.737 44.1718 216.027 44.7641 214.74 44.7641" stroke="black" stroke-linecap="round" stroke-linejoin="round"/>
<path d="M177.278 43.8428C179.864 43.8428 179.727 45.374 181.577 46.2993" stroke="black" stroke-linecap="round" stroke-linejoin="round"/>
<path d="M184.341 46.9138C188.805 46.9138 193.071 46.4508 197.374 45.6685C201.207 44.9715 204.945 44.1503 208.974 44.1503C211.146 44.1503 213.318 44.1503 215.491 44.1503C217.015 44.1503 218.784 44.4116 220.267 44.082C222.227 43.6466 220.977 43.5361 219.67 43.5361C217.312 43.5361 214.981 43.8432 212.608 43.8432C211.262 43.8432 209.206 43.8104 207.985 44.3891C206.489 45.0973 204.758 44.9741 203.208 45.532C201.861 46.017 199.848 46.3906 198.704 47.1526C198.174 47.5065 196.218 47.7155 196.828 47.5279C199.296 46.7685 201.613 45.6514 204.146 45.0885C207.689 44.3013 196.906 45.9339 193.416 46.9309C192.782 47.112 193.281 47.189 193.792 47.0844C195.055 46.8257 196.532 46.6839 197.715 46.1462C198.201 45.9251 199.785 45.6856 199.25 45.6856C198.364 45.6856 197.424 46.0734 196.555 46.2315C194.781 46.5541 192.423 45.9488 190.789 46.675C190.487 46.8093 188.744 47.2734 189.629 47.1526C191.54 46.892 193.305 46.6068 195.224 46.6068C196.464 46.6068 197.704 46.6068 198.943 46.6068C200.73 46.6068 197.504 46.4459 196.623 46.7603C193.435 47.8991 189.584 47.5279 186.183 47.5279" stroke="black" stroke-linecap="round" stroke-linejoin="round"/>
<path d="M148.231 141.779C151.791 143.255 154.289 146.698 157.393 148.966C159.556 150.546 161.176 152.805 163.361 154.262" stroke="black" stroke-linecap="round" stroke-linejoin="round"/>
<path d="M167.522 149.344C165.148 148.02 163.369 145.928 161.659 143.839C160.94 142.96 159.861 142.742 159.18 141.947C158.117 140.708 156.717 139.756 155.796 138.375" stroke="black" stroke-linecap="round" stroke-linejoin="round"/>
<path d="M203.835 124.758C203.323 129.054 202.322 132.931 202.322 137.261C202.322 138.192 202.054 143.308 201.565 139.888" stroke="black" stroke-linecap="round" stroke-linejoin="round"/>
<path d="M209.509 126.271C209.509 128.332 209.621 130.042 208.941 131.945C208.638 132.795 208.374 134.451 208.374 135.349C208.374 137.057 207.955 139.59 207.239 141.023" stroke="black" stroke-linecap="round" stroke-linejoin="round"/>
<path d="M145.205 143.292C143.504 143.86 141.76 144.284 140.309 145.373C139.621 145.889 139.205 146.542 138.396 146.991C137.137 147.691 135.745 148.966 134.236 148.966" stroke="black" stroke-linecap="round" stroke-linejoin="round"/>
<path d="M130.831 153.884C128.514 155.656 126.455 158.995 128.772 161.449C129.433 162.149 129.557 163.278 129.991 164.096C130.388 164.847 131.114 164.898 131.588 165.609" stroke="black" stroke-linecap="round" stroke-linejoin="round"/>
<path d="M189.461 115.301C187.384 115.396 184.349 115.705 183.808 118.138C183.522 119.428 183.524 120.597 184.922 120.597" stroke="black" stroke-linecap="round" stroke-linejoin="round"/>
</svg>
