<svg width="334" height="344" viewBox="0 0 334 344" fill="none" xmlns="http://www.w3.org/2000/svg">
<path d="M43.7587 343C47.5775 337.062 53.273 334.056 59.175 330.778C62.4664 328.951 67.6044 331.31 71.1654 331.31C74.2565 331.31 77.3476 331.31 80.4388 331.31C90.6845 331.31 96.768 322.55 91.8385 313.243C89.5304 308.885 87.3495 305.52 87.3495 299.958C87.3495 297.848 89.4759 298.157 89.4759 295.176C89.4759 291.988 89.4759 288.799 89.4759 285.611C89.4759 281.508 88.4127 277.575 88.4127 273.449C88.4127 269.856 90.7585 267.742 92.9017 264.828C98.1636 257.675 106.961 255.854 115.465 255.854C119.828 255.854 124.216 255.73 128.578 255.854C133.925 256.007 150.375 256.63 152.145 262.821C153.724 268.344 153.043 274.489 154.862 279.943C157.047 286.495 157.52 307.396 157.52 300.49C157.52 296.029 165.243 301.217 159.883 306.04C157.242 308.415 156.457 313.468 156.457 316.963C156.457 321.845 142.824 325.703 148.483 329.184C153.568 332.312 160.082 334.989 166.026 336.387C169.694 337.25 173.172 339.812 177.13 339.812C179.502 339.812 180.91 340.425 180.91 343" stroke="#3557B0" stroke-linecap="round" stroke-linejoin="round"/>
<path d="M45.4613 40.0721C44.4907 39.5446 43.2763 39.9036 42.7489 40.874L34.1546 56.6875C33.6272 57.6579 33.9865 58.8722 34.9571 59.3997C35.9277 59.9272 37.1421 59.5681 37.6695 58.5978L45.3089 44.5413L59.3684 52.1824C60.339 52.7099 61.5534 52.3509 62.0808 51.3805C62.6082 50.4101 62.2489 49.1958 61.2783 48.6683L45.4613 40.0721ZM92.921 198.401L46.4243 41.2621L42.5884 42.3962L89.0852 199.535L92.921 198.401Z" fill="#D8F465"/>
<path d="M147.624 1.00934C147.077 0.3873 146.129 0.326568 145.507 0.873696L135.37 9.78965C134.748 10.3368 134.687 11.2846 135.234 11.9066C135.781 12.5287 136.729 12.5894 137.351 12.0423L146.362 4.11698L154.287 13.1275C154.834 13.7495 155.782 13.8102 156.404 13.2631C157.026 12.716 157.087 11.7682 156.54 11.1461L147.624 1.00934ZM136.783 176.932L147.995 2.09592L145.001 1.90409L133.789 176.74L136.783 176.932Z" fill="#DC3286"/>
<path d="M245.278 125.953C245.29 125.125 244.628 124.444 243.8 124.432L230.299 124.237C229.47 124.225 228.789 124.886 228.777 125.714C228.765 126.543 229.427 127.224 230.255 127.236L242.256 127.41L242.082 139.406C242.07 140.234 242.732 140.915 243.561 140.927C244.389 140.939 245.071 140.277 245.083 139.449L245.278 125.953ZM167.329 202.257L244.824 127.007L242.733 124.856L165.238 200.106L167.329 202.257Z" fill="#C246E1"/>
<path d="M332.73 211.53C333.556 210.094 333.061 208.26 331.625 207.434L308.216 193.974C306.779 193.148 304.945 193.643 304.119 195.079C303.294 196.515 303.789 198.349 305.225 199.175L326.033 211.139L314.071 231.943C313.245 233.379 313.74 235.213 315.177 236.039C316.613 236.865 318.447 236.37 319.273 234.934L332.73 211.53ZM191.421 250.556L330.911 212.931L329.347 207.138L189.857 244.763L191.421 250.556Z" fill="#5C0BE0"/>
<path d="M73.5276 217.595C69.5367 208.856 66.7146 201.569 61.8325 193.978C59.4627 190.293 58.6429 185.769 58.6429 181.461" stroke="black" stroke-linecap="round" stroke-linejoin="round"/>
<path d="M32.0637 248.415C17.9353 241.353 8.07365 227.023 1.2312 213.344" stroke="black" stroke-linecap="round" stroke-linejoin="round"/>
<path d="M114.992 195.277C114.531 185.585 105.424 178.348 105.424 168.708" stroke="black" stroke-linecap="round" stroke-linejoin="round"/>
<path d="M151.141 188.9C153.239 181.082 156.705 173.03 158.583 165.52" stroke="black" stroke-linecap="round" stroke-linejoin="round"/>
<path d="M173.468 219.72C183.062 219.543 189.333 218.168 196.858 214.406" stroke="black" stroke-linecap="round" stroke-linejoin="round"/>
<path d="M206.427 265.419C216.541 261.135 242.944 255.344 251.081 267.544" stroke="black" stroke-linecap="round" stroke-linejoin="round"/>
<path d="M194.732 214.407C206.337 207.156 214.865 197.948 223.91 187.838C230.767 180.173 240.023 175.336 248.836 170.243C252.091 168.362 254.608 168.938 258.287 168.708C261.331 168.518 263.864 166.583 267.028 166.583" stroke="black" stroke-linecap="round" stroke-linejoin="round"/>
<path d="M157.52 165.52C168.113 154.289 165.799 141.798 171.814 128.914C174.165 123.877 178.002 118.978 179.847 113.445" stroke="black" stroke-linecap="round" stroke-linejoin="round"/>
<path d="M105.424 170.834C105.424 158.273 105.683 144.55 109.676 132.574" stroke="black" stroke-linecap="round" stroke-linejoin="round"/>
<path d="M16.3847 189.073C16.1094 189.051 15.8682 189.256 15.8461 189.531L15.4851 194.016C15.4629 194.291 15.6681 194.532 15.9435 194.554C16.2188 194.576 16.4599 194.371 16.482 194.096L16.8029 190.11L20.7908 190.431C21.0662 190.453 21.3073 190.248 21.3294 189.973C21.3516 189.698 21.1464 189.456 20.8711 189.434L16.3847 189.073ZM55.3361 234.6L36.0308 211.924L35.2691 212.572L54.5744 235.248L55.3361 234.6ZM36.0308 211.924L16.7254 189.247L15.9637 189.895L35.2691 212.572L36.0308 211.924Z" fill="#743636"/>
<path d="M92.4777 325.779C100.54 325.888 109.127 327.26 116.941 329.492C121.385 330.761 126.244 329.438 130.518 330.964C135.289 332.667 146.657 333.417 146.657 326.931" stroke="#3557B0" stroke-linecap="round" stroke-linejoin="round"/>
<path d="M157.031 295.82C157.031 301.581 157.031 307.343 157.031 313.104" stroke="#3557B0" stroke-linecap="round" stroke-linejoin="round"/>
<path d="M94.7832 329.236C97.1949 331.119 100.338 333.427 101.7 336.149" stroke="#3557B0" stroke-linecap="round" stroke-linejoin="round"/>
<path d="M144.351 333.845C142.814 334.997 141.277 336.149 139.74 337.302" stroke="#3557B0" stroke-linecap="round" stroke-linejoin="round"/>
</svg>
