<svg width="159" height="158" viewBox="0 0 159 158" fill="none" xmlns="http://www.w3.org/2000/svg">
<path d="M20.2073 157.074C21.932 154.391 24.5043 153.032 27.1699 151.552C28.6565 150.726 30.977 151.792 32.5853 151.792C33.9814 151.792 35.3775 151.792 36.7736 151.792C41.401 151.792 44.1486 147.834 41.9222 143.629C40.8798 141.659 39.8948 140.139 39.8948 137.626C39.8948 136.673 40.8552 136.812 40.8552 135.465C40.8552 134.025 40.8552 132.584 40.8552 131.144C40.8552 129.29 40.375 127.513 40.375 125.648C40.375 124.025 41.4344 123.07 42.4024 121.753C44.7789 118.521 48.7521 117.699 52.593 117.699C54.5637 117.699 56.5455 117.642 58.5152 117.699C60.9301 117.768 68.3601 118.049 69.1593 120.846C69.8723 123.342 69.565 126.118 70.3864 128.583C71.3732 131.543 71.5869 140.987 71.5869 137.866C71.5869 135.851 75.0749 138.195 72.654 140.374C71.4613 141.447 71.1067 143.73 71.1067 145.309C71.1067 147.515 64.9495 149.258 67.5053 150.831C69.8021 152.245 72.744 153.454 75.4284 154.086C77.0853 154.476 78.6559 155.633 80.4436 155.633C81.5148 155.633 82.1509 155.91 82.1509 157.074" stroke="#3557B0" stroke-linecap="round" stroke-linejoin="round"/>
<path d="M21.4999 19.2386C20.5294 18.7112 19.3151 19.0703 18.7877 20.0408L10.1924 35.8561C9.66499 36.8266 10.0242 38.0409 10.9947 38.5683C11.9652 39.0958 13.1795 38.7366 13.7069 37.7661L21.3471 23.7081L35.4051 31.3483C36.3756 31.8758 37.59 31.5166 38.1174 30.5461C38.6449 29.5756 38.2857 28.3613 37.3152 27.8338L21.4999 19.2386ZM43.4628 91.4286L22.4628 20.4286L18.6271 21.5631L39.6271 92.5631L43.4628 91.4286Z" fill="#D8F465"/>
<path d="M67.7351 2.00927C67.188 1.38722 66.2402 1.32646 65.6181 1.87357L55.4811 10.7893C54.859 11.3364 54.7983 12.2842 55.3454 12.9063C55.8925 13.5283 56.8403 13.5891 57.4623 13.042L66.4731 5.11689L74.3981 14.1276C74.9453 14.7497 75.8931 14.8104 76.5151 14.2633C77.1372 13.7162 77.1979 12.7684 76.6508 12.1463L67.7351 2.00927ZM63.0418 82.0918L68.1057 3.09587L65.1118 2.90396L60.048 81.8999L63.0418 82.0918Z" fill="#DC3286"/>
<path d="M112.045 59.0176C112.057 58.1892 111.395 57.508 110.567 57.496L97.0681 57.3004C96.2397 57.2884 95.5585 57.9501 95.5465 58.7785C95.5345 59.6068 96.1963 60.2881 97.0246 60.3001L109.023 60.474L108.849 72.4727C108.837 73.301 109.499 73.9823 110.328 73.9943C111.156 74.0063 111.837 73.3445 111.849 72.5162L112.045 59.0176ZM76.5901 94.0718L111.59 60.0718L109.5 57.9199L74.4997 91.9199L76.5901 94.0718Z" fill="#C246E1"/>
<path d="M152.146 98.4913C152.972 97.0549 152.477 95.221 151.04 94.3951L127.634 80.9364C126.198 80.1105 124.364 80.6054 123.538 82.0417C122.712 83.4781 123.207 85.312 124.643 86.1378L145.449 98.1012L133.485 118.907C132.66 120.343 133.154 122.177 134.591 123.003C136.027 123.829 137.861 123.334 138.687 121.898L152.146 98.4913ZM87.3265 116.892L150.326 99.8923L148.763 94.0994L85.7634 111.099L87.3265 116.892Z" fill="#5C0BE0"/>
<path d="M33.6523 100.412C31.8498 96.4637 30.5752 93.1712 28.3702 89.7412C27.2999 88.0763 26.9297 86.0323 26.9297 84.0857" stroke="black" stroke-linecap="round" stroke-linejoin="round"/>
<path d="M14.9253 114.337C8.54431 111.147 4.09035 104.672 1 98.4912" stroke="black" stroke-linecap="round" stroke-linejoin="round"/>
<path d="M52.3795 90.3281C52.171 85.9488 48.0579 82.6791 48.0579 78.3235" stroke="black" stroke-linecap="round" stroke-linejoin="round"/>
<path d="M68.7058 87.4468C69.6535 83.9144 71.2188 80.2761 72.0671 76.8828" stroke="black" stroke-linecap="round" stroke-linejoin="round"/>
<path d="M78.7896 101.372C83.1226 101.292 85.9549 100.671 89.3536 98.9714" stroke="black" stroke-linecap="round" stroke-linejoin="round"/>
<path d="M93.6753 122.02C98.2433 120.085 110.168 117.468 113.843 122.981" stroke="black" stroke-linecap="round" stroke-linejoin="round"/>
<path d="M88.3933 98.9713C93.6347 95.6954 97.4864 91.5348 101.572 86.9667C104.669 83.5037 108.849 81.3181 112.829 79.017C114.299 78.1672 115.436 78.4273 117.098 78.3234C118.472 78.2375 119.617 77.363 121.046 77.363" stroke="black" stroke-linecap="round" stroke-linejoin="round"/>
<path d="M71.5869 76.883C76.3714 71.8085 75.3261 66.1647 78.0427 60.3433C79.1047 58.0677 80.8374 55.8542 81.6708 53.354" stroke="black" stroke-linecap="round" stroke-linejoin="round"/>
<path d="M48.0579 79.2839C48.0579 73.6088 48.1749 67.4083 49.9786 61.9973" stroke="black" stroke-linecap="round" stroke-linejoin="round"/>
<path d="M7.86597 87.2517C7.59072 87.2296 7.34962 87.4347 7.32747 87.71L6.96639 92.1955C6.94423 92.4707 7.14941 92.7118 7.42466 92.734C7.69991 92.7561 7.94101 92.551 7.96317 92.2757L8.28412 88.2886L12.2712 88.6096C12.5465 88.6317 12.7876 88.4266 12.8097 88.1513C12.8319 87.876 12.6267 87.6349 12.3515 87.6128L7.86597 87.2517ZM25.6449 107.918L16.9258 97.6719L16.1642 98.3199L24.8834 108.566L25.6449 107.918ZM16.9258 97.6719L8.20664 87.4261L7.44507 88.0742L16.1642 98.3199L16.9258 97.6719Z" fill="#743636"/>
<path d="M42.2109 149.292C45.8521 149.342 49.7304 149.962 53.2598 150.97C55.2669 151.544 57.4614 150.946 59.3917 151.635C61.5462 152.405 66.6805 152.744 66.6805 149.813" stroke="#3557B0" stroke-linecap="round" stroke-linejoin="round"/>
<path d="M71.3662 135.756C71.3662 138.359 71.3662 140.963 71.3662 143.566" stroke="#3557B0" stroke-linecap="round" stroke-linejoin="round"/>
<path d="M43.2522 150.854C44.3414 151.705 45.761 152.748 46.376 153.978" stroke="#3557B0" stroke-linecap="round" stroke-linejoin="round"/>
<path d="M65.6394 152.937C64.9452 153.458 64.2511 153.978 63.5569 154.499" stroke="#3557B0" stroke-linecap="round" stroke-linejoin="round"/>
</svg>
