<svg width="429" height="341" viewBox="0 0 429 341" fill="none" xmlns="http://www.w3.org/2000/svg">
<path d="M109.478 1.00293C110.51 2.40745 110.901 3.79014 110.901 5.51032C110.901 6.18244 110.498 9.12554 111.02 9.54324C111.327 9.7893 111.138 10.9411 111.138 11.3225C111.138 11.7442 110.075 12.468 109.715 12.68C108.12 13.618 106.406 14.5124 105.089 15.8299C104.248 16.671 102.321 17.5037 102.137 18.7952C101.928 20.2545 101.412 21.5591 101.412 23.0654C101.412 24.4739 102.46 24.6573 102.848 26.0176C102.976 26.4632 103.547 26.9796 103.547 27.4542C103.547 28.1263 103.547 28.7985 103.547 29.4706" stroke="#5BD8FF" stroke-linecap="round" stroke-linejoin="round"/>
<path d="M168.785 25.4383C168.351 24.6964 167.883 24.0297 167.467 23.3164C167.172 22.8107 166.721 21.7468 166.294 21.4054C166.033 21.1964 165.38 20.0721 165.24 19.7448C164.68 18.4372 162.948 17.2384 162.037 16.0677C161.509 15.3884 160.895 14.7733 160.364 14.0644C159.946 13.5077 159.506 12.4561 158.927 12.1402C157.363 11.2873 155.885 9.38155 154.433 8.25224C153.312 7.38038 150.908 7.40875 149.517 7.40875C147.261 7.40875 144.936 7.17152 142.637 7.17152C140.269 7.17152 138.87 7.42094 137.339 5.32639C136.593 4.30553 135.877 2.90137 134.44 2.90137C132.428 2.90137 131.176 4.20453 129.3 4.56198C128.552 4.70444 127.48 5.26509 126.901 5.76132C125.808 6.69762 125.18 8.02724 124.186 8.95075C123.457 9.62747 122.774 10.9684 121.945 11.4417C121.489 11.7026 121.024 11.986 120.509 12.272C119.186 13.007 117.455 13.3153 116.239 14.2884C114.98 15.2952 115.04 17.2047 113.985 18.3214C112.588 19.801 111.947 21.0326 111.191 22.8288C110.892 23.5384 111.288 24.2073 110.664 24.832C109.723 25.773 108.135 25.619 106.973 26.15C105.587 26.7837 104.919 28.0366 104.021 29.234" stroke="#5BD8FF" stroke-linecap="round" stroke-linejoin="round"/>
<path d="M103.309 30.1823C101.92 29.13 100.731 27.3542 98.7889 27.1115C97.2948 26.9247 95.6793 27.0983 94.1761 27.0983C92.7462 27.0983 91.842 27.052 90.7362 28.0472C89.7846 28.9037 87.7298 28.5949 86.5715 28.469C84.6989 28.2654 82.8918 27.5708 81.0098 27.3355" stroke="#5BD8FF" stroke-linecap="round" stroke-linejoin="round"/>
<path d="M102.361 30.8947C99.0758 30.8947 95.858 30.6141 92.687 31.5537C91.584 31.8805 90.8902 32.7656 89.9193 33.043C89.1657 33.2583 87.9998 34.9417 87.8896 35.6393C87.7921 36.257 86.9971 36.8582 86.7562 37.4845C86.4999 38.1507 86.0492 38.7128 85.7809 39.3164C85.0459 40.9701 83.2572 40.8584 81.5371 40.8584C78.2902 40.8584 75.6344 42.1246 72.72 43.2175C72.4028 43.3365 70.4903 44.5732 70.6113 44.9968C70.8446 45.8133 76.4011 46.5022 77.0561 46.6178C79.4077 47.0328 81.9316 47.4437 84.3312 47.5009C84.6921 47.5095 85.864 47.294 86.1236 47.5536C86.4332 47.8632 79.8635 49.5667 79.5602 49.6096C78.3063 49.787 77.0309 49.8732 75.7645 49.8732C74.7453 49.8732 77.8029 49.8732 78.8221 49.8732C81.6338 49.8732 84.4454 49.8732 87.257 49.8732C88.3378 49.8732 91.4375 49.3633 90.4992 49.8995C89.874 50.2568 88.3676 50.5669 87.8369 50.7167C85.042 51.5054 82.2285 52.2289 79.3888 52.8386C78.3358 53.0646 75.1793 53.1277 76.2126 53.4316C77.1202 53.6986 78.8414 53.5211 79.7052 53.5503C81.432 53.6086 83.1572 53.6457 84.8847 53.6689C85.1735 53.6727 85.9434 53.674 85.7282 53.8666C84.2044 55.2299 82.2083 56.0386 80.5486 57.2142C79.1696 58.1909 83.7746 56.205 85.3987 55.7381C88.8807 54.737 84.3018 55.7987 83.4613 55.9885C81.0796 56.5263 78.7026 57.0451 76.2917 57.4382C75.7513 57.5263 74.1231 57.7018 74.6706 57.7018C75.1946 57.7018 78.5428 57.4363 78.0841 57.9127C77.6717 58.3409 74.3072 60.6114 74.7365 61.2339C75.0512 61.6903 77.8104 60.4827 78.2422 60.3641C79.9097 59.906 78.1325 60.8102 77.6096 61.2075C75.985 62.4422 77.5207 61.9234 78.7826 61.7215C78.9633 61.6926 82.1263 60.9902 81.3658 61.6556C79.6075 63.1941 75.9452 63.3594 73.7348 63.5667C72.5787 63.6751 73.6612 63.2942 73.9721 63.1845C75.0382 62.8082 76.141 62.4811 77.2538 62.2751C77.4486 62.239 78.0248 62.2275 77.8468 62.3146C76.2648 63.0888 74.4925 63.5969 72.8386 64.1861C72.0912 64.4524 69.8175 65.132 70.5981 64.9901C71.311 64.8604 72.0145 64.6821 72.7332 64.5815C75.0481 64.2574 71.1693 67.0766 70.8354 67.3492C70.038 68.0001 68.2576 69.0161 67.8436 70.051C67.5305 70.8337 69.5059 69.7086 70.2818 69.3788C71.2624 68.9621 72.2288 68.5033 73.2208 68.1136C73.5048 68.002 72.1982 69.889 72.1665 69.9455C71.3173 71.461 64.6699 82.6852 66.8288 83.8235C68.1684 84.5299 71.3295 81.0766 71.9424 80.476C73.4493 78.9994 74.8104 77.332 75.9754 75.5732C76.2818 75.1105 77.1687 74.194 76.6343 74.0444C76.5208 74.0126 76.4094 74.128 76.318 74.2025C75.8272 74.6029 74.6409 75.9276 74.3938 76.1926C68.8691 82.1191 63.2789 88.0324 57.5504 93.7609C56.8979 94.4134 56.2349 95.0555 55.5603 95.6851C55.0898 96.1242 54.0579 97.5412 54.0579 96.8976C54.0579 96.2786 57.4684 93.491 57.5768 93.3919C57.933 93.0659 65.8663 86.5002 66.0117 86.8021C66.2635 87.3252 65.0735 90.5115 65.0627 90.5451C63.9884 93.8913 62.6062 97.0976 61.1616 100.298C59.759 103.405 58.3492 106.52 56.8651 109.589C56.6202 110.096 54.4381 113.044 56.1929 110.921C60.3921 105.84 65.7965 101.905 70.005 96.7922C71.014 95.5665 72.0088 94.3254 72.8386 92.9701C73.1564 92.4511 72.438 94.1193 72.2456 94.6966C70.9846 98.4794 70.123 102.556 68.5026 106.202C67.1504 109.245 70.7076 99.9152 71.9952 96.8449" stroke="#5BD8FF" stroke-linecap="round" stroke-linejoin="round"/>
<path d="M67.725 105.858C64.8056 108.129 62.3611 111.056 59.6591 113.582C58.4641 114.699 57.5926 116.025 56.5224 117.245C55.3437 118.59 53.8933 119.673 52.7003 120.988C52.3518 121.373 52.6898 121.391 53.0562 121.318C54.4945 121.03 55.8825 120.468 57.3132 120.132C59.8057 119.545 61.5173 118.634 63.7448 117.351C65.7097 116.219 67.8757 115.539 69.8337 114.451C70.417 114.127 69.637 114.502 69.5437 114.557C68.2688 115.305 66.9239 115.902 65.5899 116.534C63.4793 117.534 61.7806 118.585 60.3708 120.448C59.9283 121.033 57.3393 123.829 58.9342 123.413C65.0177 121.83 71.25 119.9 77.0297 117.43C79.7956 116.248 81.6838 113.971 84.3575 112.659C85.1508 112.27 83.8875 114.014 83.7512 114.28C82.9759 115.794 82.3278 117.27 81.3526 118.682C78.9227 122.201 76.7049 125.907 74.1038 129.292C70.8863 133.478 67.2916 137.211 63.468 140.85C61.1879 143.02 59.0905 145.525 56.5224 147.374C56.3531 147.496 55.8736 147.796 55.903 148.046C56.1215 149.903 58.5149 152.153 59.6328 153.595C59.7266 153.715 60.5121 155.069 60.6608 155.15C61.2812 155.488 63.8966 150.734 64.1401 150.352C64.6842 149.5 65.2126 148.639 65.6821 147.743C65.701 147.707 66.5436 146.031 66.552 146.043C67.6137 147.458 68.2846 149.236 69.1483 150.774C70.1557 152.568 71.0077 154.385 71.916 156.23C72.4605 157.337 73.0481 158.425 73.5503 159.552C73.6831 159.849 74.0855 160.633 73.7875 160.501C72.7852 160.055 71.7276 158.531 70.9935 157.746C70.5831 157.307 70.0805 156.96 69.7282 156.507C69.2541 155.898 69.1133 155.216 68.8584 154.491C68.7059 154.057 67.7583 150.695 68.5948 152.145C70.454 155.367 72.2312 158.495 73.893 161.819C73.9936 162.02 74.3019 162.57 74.3147 162.346C74.4022 160.814 73.3012 158.804 72.8386 157.39C72.7363 157.077 71.5683 153.835 72.4959 156.046C74.4274 160.649 75.8899 165.463 77.6887 170.122C78.6208 172.536 79.4184 175.203 80.654 177.489C80.7369 177.642 80.3927 175.238 80.3114 174.827C80.1424 173.971 79.9947 173.112 79.8237 172.257C79.7615 171.945 79.4884 171.12 79.7447 171.308C80.4143 171.797 81.2432 174.575 82.2224 173.865C83.3454 173.05 83.947 172.162 85.1483 173.364C86.2801 174.496 85.5347 173.993 86.5848 173.509C87.4382 173.115 88.1896 175.091 88.8385 175.314C89.2605 175.46 90.0869 174.609 90.4201 174.444C91.1514 174.084 91.604 174.856 92.3443 174.84C93.2055 174.821 94.0458 173.28 94.7561 174.049C94.9997 174.313 94.9658 174.24 95.0197 173.97C95.094 173.598 95.6079 174.462 95.8236 174.774C97.0656 176.568 95.8826 175.024 96.1663 174.787C96.6515 174.383 97.8442 177.734 98.6177 175.921C99.5163 173.814 100.276 176.601 101.201 175.881C101.35 175.765 101.019 175.313 101.267 175.578C101.467 175.793 102.523 177.052 102.809 176.922C103.265 176.715 101.004 173.164 102.413 174.471C104.298 176.218 103.816 172.137 104.338 172.573C105.241 173.328 105.956 174.592 106.684 175.499C107.109 176.029 108.296 177.482 108.252 176.804C108.196 175.945 107.896 175.09 107.514 174.326C107.283 173.863 108.202 175.098 108.529 175.499C108.906 175.963 109.77 177.462 109.688 176.87C109.593 176.174 109.011 175.18 108.555 174.655C107.763 173.744 111.239 178.625 110.796 177.502C110.404 176.51 110.062 175.49 109.794 174.458C109.412 172.987 109.797 173.416 110.506 174.102C111.288 174.859 110.983 173.938 110.954 173.43C110.893 172.369 112.137 173.778 112.364 173.97C113.588 175.006 112.193 172.881 112.193 172.441C112.193 172.396 112.759 173.039 112.799 172.758C112.859 172.336 114.537 174.042 114.736 174.194C114.981 174.381 114.953 173.103 115.646 173.351C117.152 173.889 117.245 171.281 117.543 170.385" stroke="#5BD8FF" stroke-linecap="round" stroke-linejoin="round"/>
<path d="M168.074 25.9126C166.071 27.589 163.387 30.2403 164.805 32.7923C165.574 34.1769 165.617 35.6096 166.228 37.0624C166.957 38.7939 167.292 40.6432 166.36 42.4133C166.162 42.7897 165.653 43.4585 165.345 43.7049C164.944 44.0262 165.131 44.9286 164.937 45.3655C164.623 46.0719 164.417 47.7378 163.645 47.7378C161.667 47.7378 161.754 46.4037 160.772 45.3128C159.239 43.6097 158.082 41.4365 155.738 40.7527C154.532 40.401 153.639 41.5016 152.772 42.1761C152.379 42.4818 151.99 43.2323 151.705 43.6522C151.448 44.03 151.445 44.8613 151.112 45.1283C150.222 45.8396 150.993 47.5467 150.993 48.3309C150.993 49.279 151.024 50.1769 151.467 50.9536C151.95 51.7986 152.553 52.4919 153.009 53.3128C153.303 53.8418 153.402 53.9428 153.84 54.3803C154.195 54.7354 154.251 55.5566 154.683 55.8037C156.735 56.9759 158.978 56.9631 161.194 57.7015" stroke="#5BD8FF" stroke-linecap="round" stroke-linejoin="round"/>
<path d="M157.161 45.8394C156.925 47.219 157.873 47.9802 157.873 49.2792C157.873 50.2609 157.96 50.7025 158.4 51.5329C158.61 51.9298 158.545 52.46 159.112 52.4818C159.321 52.4899 160.394 52.6123 160.469 52.35C160.695 51.5582 159.912 50.9152 159.533 50.3467" stroke="#5BD8FF" stroke-linecap="round" stroke-linejoin="round"/>
<path d="M168.548 25.6743C170.252 26.5438 171.833 28.2651 172.766 29.9445C173.378 31.0461 174.433 33.1114 175.533 33.7402C176.748 34.4346 176.608 36.6925 177.668 37.2986C177.927 37.4464 178.386 38.8084 178.696 39.1438C179.214 39.7024 179.804 40.6207 180.12 41.3316C180.375 41.9064 180.172 42.9473 180.172 43.5852C180.172 44.2436 180.433 44.7645 180.7 45.3645C181.006 46.0548 181.012 46.7504 181.135 47.4864C181.242 48.1313 181.383 49.6308 181.714 50.2277C182.478 51.6016 184.408 51.6327 185.102 53.1931C185.6 54.3143 186.3 55.4968 185.391 56.6329C184.608 57.6129 183.256 57.9218 183.256 59.4797C183.256 60.2509 183.796 62.9196 183.019 62.9196C182.615 62.9196 180.392 62.9196 181.938 62.9196C182.82 62.9196 183.382 63.3904 183.494 64.3429C183.59 65.1637 184.205 65.5159 184.205 66.3594C184.205 67.926 184.932 69.493 185.141 71.0645C185.331 72.4915 183.986 74.0871 183.138 75.1238C181.748 76.8229 180.95 78.7714 179.039 80.0002C177.748 80.8304 175.948 81.898 174.36 81.898C173.53 81.898 172.724 81.8448 171.922 82.0825C171.519 82.2021 171.083 82.0968 170.67 82.1484C170.247 82.2013 169.847 82.3276 169.418 82.3593C168.427 82.4328 170.274 81.3185 170.446 81.1863" stroke="#5BD8FF" stroke-linecap="round" stroke-linejoin="round"/>
<path d="M169.971 81.8983C169.24 81.7557 168.426 81.4514 168.311 82.3728C168.254 82.8274 167.789 83.2506 167.599 83.6776C167.221 84.5292 167.332 85.2856 166.703 85.984C165.608 87.2011 164.609 89.7963 164.515 91.3876C164.466 92.2203 163.503 93.0361 163.316 93.8785C163.158 94.5905 162.316 95.7558 161.906 96.4221C161.355 97.3161 161.328 98.215 160.838 99.0976C160.504 99.6995 160.785 101.556 160.245 101.826" stroke="#5BD8FF" stroke-linecap="round" stroke-linejoin="round"/>
<path d="M159.77 102.064C158.357 102.097 156.973 102.301 155.553 102.301C154.334 102.301 153.633 101.591 152.561 101.115C151.997 100.864 151.653 100.712 150.967 100.522C149.934 100.235 148.742 100.403 147.672 100.403C146.067 100.403 144.612 100.64 143.033 100.64C142.072 100.64 141.15 101.115 140.199 101.115C139.351 101.115 138.016 101.207 137.234 101.536C136.562 101.819 135.272 101.879 134.545 102.011C133.258 102.245 131.511 102.217 130.262 101.945C129.228 101.72 128.17 101.892 127.125 101.695C126.661 101.607 125.628 101.592 125.319 101.167C125.145 100.927 125.26 99.7537 125.425 99.5069C127.097 96.9983 129.669 94.1444 130.71 91.1379C131.331 89.3419 132.148 87.3267 133.201 85.7475C134.389 83.9652 135.966 82.6142 137.128 80.7129C138.592 78.3175 140.555 76.356 142.084 74.0177C143.257 72.2234 144.036 69.6286 144.588 67.5598C145.232 65.1427 146.409 62.622 147.382 60.311C147.908 59.0608 147.733 57.6033 147.922 56.2781C148.15 54.6806 148.811 53.1748 148.858 51.5335C148.879 50.7861 149.14 50.0449 149.332 49.3721C149.547 48.6213 150.448 45.7454 151.23 46.7889" stroke="#5BD8FF" stroke-linecap="round" stroke-linejoin="round"/>
<path d="M161.668 57.939C161.169 59.2181 160.886 60.5199 160.429 61.7874C160.107 62.6824 159.332 63.474 158.874 64.3442C157.915 66.1671 156.323 68.2093 154.775 69.5633C151.378 72.536 148.086 75.8175 144.957 78.9471C144.143 79.7611 143.505 80.7213 142.466 81.3062C141.46 81.872 139.828 83.1122 139.25 84.153C138.097 86.2289 136.499 88.1355 135.283 90.2024C134.367 91.7599 132.716 92.7511 131.303 93.7608C129.496 95.0512 127.55 96.8989 126.321 98.7427" stroke="#5BD8FF" stroke-linecap="round" stroke-linejoin="round"/>
<path d="M160.008 103.012C161.86 103.012 163.441 102.69 164.871 103.961C165.622 104.629 166.353 105.211 167.124 105.872C168.891 107.386 170.519 109.359 172.541 110.472C176.558 112.681 181.358 115.335 181.358 120.554C181.358 122.258 182.487 123.516 182.545 125.127C182.577 126.045 183.192 126.826 183.256 127.631C183.317 128.397 183.569 129.436 183.968 130.109C184.803 131.518 185.153 133.05 186.63 134.089C188.538 135.431 189.353 137.495 190.848 139.176C191.25 139.629 191.824 141.092 192.021 141.681C192.37 142.73 192.774 143.73 193.101 144.778C193.685 146.646 193.457 149.011 193.457 150.959C193.457 153.727 192.206 157.026 190.716 159.367C189.873 160.691 188.793 162.322 188.238 163.848C187.983 164.549 187.696 165.144 187.474 165.878C187.345 166.302 187.052 166.367 187.052 166.827C187.052 167.097 186.945 166.301 186.867 166.115C186.612 165.509 186.577 164.643 186.577 163.98C186.577 163.325 186.138 162.72 186.103 162.082C186.027 160.713 185.866 159.459 185.866 158.05C185.866 157.46 185.606 156.556 185.339 156.02C185.119 155.582 185.328 154.696 184.917 154.491" stroke="#5BD8FF" stroke-linecap="round" stroke-linejoin="round"/>
<path d="M191.322 160.897C193.845 160.897 197.013 159.727 199.493 160.436C201.769 161.086 203.679 162.598 205.951 163.085C207.055 163.322 207.915 163.069 208.759 163.744C209.287 164.167 210.063 165.595 210.063 166.222C210.063 167.74 208.446 168.595 207.691 169.727C206.958 170.828 206.931 172.255 206.979 173.523C207.034 174.946 207.376 176.39 207.203 177.859C206.868 180.708 205.221 182.701 203.526 184.858C202.392 186.301 201.338 187.177 200.864 189.022C200.48 190.515 200.811 192.43 200.811 193.978C200.811 196.24 200.811 198.503 200.811 200.765C200.811 202.659 200.255 203.906 199.283 205.497C198.98 205.991 198.647 206.575 198.307 207.012C197.905 207.53 197.843 207.818 197.543 208.449C196.67 210.283 195.936 212.009 194.881 213.747C193.043 216.773 190.427 219.522 187.157 221.048C184.216 222.421 182.386 222.745 179.302 221.391C178.181 220.899 177.043 219.636 176.258 218.676C175.027 217.171 173.656 215.778 172.475 214.169C171.608 212.986 170.48 211.194 170.209 209.767C169.899 208.144 168.643 206.799 168.548 205.128C168.47 203.758 167.522 202.251 167.006 200.989C166.603 200.005 166.412 199.024 166.123 198.011C165.861 197.095 165.258 196.263 164.989 195.322C164.861 194.873 164.581 194.314 164.396 193.872C164.154 193.291 164.343 192.667 164.093 192.106C163.717 191.259 163.158 189.634 163.092 188.706C163.041 187.998 162.481 187.391 162.195 186.755C161.818 185.917 161.704 185.118 161.55 184.225C161.148 181.893 160.722 179.234 159.401 177.227C158.323 175.587 157.714 173.732 156.686 172.1C155.956 170.94 154.906 169.672 154.314 168.489" stroke="#5BD8FF" stroke-linecap="round" stroke-linejoin="round"/>
<path d="M115.645 168.726C116.484 170.977 118.369 173.852 118.492 176.317C118.59 178.277 119.061 180.212 119.217 182.169C119.528 186.06 121.001 189.251 122.051 192.923C122.541 194.64 122.525 196.189 122.525 198.037C122.525 200.339 121.382 201.908 120.575 203.888C120.261 204.658 119.658 205.24 119.257 205.971C118.851 206.708 118.857 207.261 118.598 208.04C117.826 210.354 117.766 213.062 117.359 215.46C116.946 217.892 117.069 220.408 117.069 222.867C117.069 223.824 117.282 224.729 117.306 225.661C117.345 227.167 116.783 227.904 116.344 229.219C116.082 230.005 114.223 231.391 113.51 232.066C112.95 232.597 112.522 233.17 111.982 233.727C110.794 234.949 109.287 235.754 108.067 236.929C106.573 238.37 103.928 239.632 102.967 241.555C102.455 242.578 101.979 243.52 101.543 244.56C100.908 246.079 99.3522 247.135 99.0393 248.778C98.7399 250.35 98.3276 251.799 98.3276 253.417" stroke="#5BD8FF" stroke-linecap="round" stroke-linejoin="round"/>
<path d="M97.853 252.942C97.8941 254.63 98.5647 256.274 98.5647 257.872C98.5647 259.55 98.5647 261.228 98.5647 262.906C98.5647 264.888 97.4521 266.798 97.3785 268.784C97.3271 270.173 97.1413 271.557 97.1413 273.002C97.1413 275.053 96.9041 277.075 96.9041 279.143C96.9041 280.53 97.4432 281.96 97.9057 283.255C99.0697 286.514 100.467 289.805 101.121 293.272C101.95 297.663 102.97 301.993 103.547 306.464C103.788 308.333 104.59 310.023 105.207 311.776C105.612 312.927 105.876 314.242 106.393 315.334C107.691 318.075 108.202 320.978 109.345 323.756C109.702 324.623 109.644 325.644 109.899 326.537C110.161 327.454 110.485 328.526 110.663 329.463C110.912 330.765 111.554 332.52 112.219 333.654C112.68 334.441 112.812 335.307 113.378 336.079C114.21 337.212 114.907 337.629 116.08 338.332C116.776 338.75 117.564 339.186 118.255 339.532" stroke="#5BD8FF" stroke-linecap="round" stroke-linejoin="round"/>
<path d="M192.745 339.531C194.577 338.753 196.297 337.958 198.202 337.278C199.438 336.836 200.49 336.174 201.655 335.63C202.388 335.288 203.861 334.432 204.607 334.326C205.307 334.226 205.959 333.266 206.32 332.652C206.593 332.187 207.618 331.847 207.691 331.228C207.736 330.845 208.386 329.904 208.64 329.515C209.068 328.86 209.498 328.325 209.826 327.67" stroke="#5BD8FF" stroke-linecap="round" stroke-linejoin="round"/>
<path d="M209.589 327.67C209.589 324.345 209.748 320.966 209.339 317.693C209.226 316.793 208.858 316.241 208.403 315.519C207.996 314.872 207.998 314.033 207.691 313.344C207.149 312.124 206.648 310.791 206.083 309.535C205.506 308.253 205.057 307.105 204.37 305.845C203.638 304.503 202.534 303.13 201.998 301.654C201.471 300.206 200.968 298.625 200.218 297.291C199.691 296.353 199.455 295.358 199.204 294.326C198.972 293.376 198.318 292.801 198.017 291.901C197.551 290.501 196.65 289.248 196.12 287.868C195.634 286.605 195.118 284.714 194.301 283.664C193.962 283.228 193.621 282.146 193.405 281.595C193.008 280.584 191.801 279.711 191.573 278.682C191.175 276.894 189.268 275.39 188.66 273.634C188.166 272.207 187.358 270.927 186.762 269.522C185.757 267.151 185.322 263.972 185.998 261.364C186.398 259.821 187.064 258.294 187.579 256.791C188.158 255.104 188.523 253.456 189.055 251.783C189.712 249.72 189.424 247.253 189.424 245.114" stroke="#5BD8FF" stroke-linecap="round" stroke-linejoin="round"/>
<path d="M187.052 255.314C187.052 254.012 186.954 252.595 187.342 251.334C187.513 250.779 187.748 250.216 187.764 249.621C187.803 248.182 187.764 246.738 187.764 245.298C187.764 242.439 186.578 239.614 186.578 236.797C186.578 231.876 185.391 227.266 185.391 222.339" stroke="#5BD8FF" stroke-linecap="round" stroke-linejoin="round"/>
<path d="M207.928 330.517C208.551 332.019 209.348 333.668 209.576 335.261C209.759 336.547 210.3 337.524 210.3 338.82" stroke="#5BD8FF" stroke-linecap="round" stroke-linejoin="round"/>
<line x1="1.93872" y1="339.414" x2="427.51" y2="339.414" stroke="#5BD8FF"/>
<line x1="1.98974" y1="160.33" x2="77.0905" y2="168.032" stroke="#5BD8FF"/>
<line x1="0.0683994" y1="150.702" x2="69.3922" y2="158.405" stroke="#5BD8FF"/>
<line x1="0.0803654" y1="216.176" x2="113.694" y2="231.581" stroke="#5BD8FF"/>
<line x1="0.075201" y1="223.878" x2="107.912" y2="237.358" stroke="#5BD8FF"/>
<line x1="0.0811736" y1="248.912" x2="98.2899" y2="262.392" stroke="#5BD8FF"/>
<line x1="0.0825075" y1="254.689" x2="96.3656" y2="268.169" stroke="#5BD8FF"/>
<line x1="0.0968909" y1="279.725" x2="102.157" y2="297.056" stroke="#5BD8FF"/>
<line x1="0.0968909" y1="285.502" x2="102.157" y2="302.833" stroke="#5BD8FF"/>
<line x1="2.02512" y1="312.462" x2="111.788" y2="331.719" stroke="#5BD8FF"/>
<line x1="2.02367" y1="318.239" x2="113.712" y2="337.495" stroke="#5BD8FF"/>
<line x1="211.88" y1="173.809" x2="427.554" y2="193.066" stroke="#5BD8FF"/>
<line x1="208.037" y1="181.513" x2="427.562" y2="204.62" stroke="#5BD8FF"/>
<line x1="186.87" y1="243.135" x2="427.577" y2="275.871" stroke="#5BD8FF"/>
<line x1="190.726" y1="248.913" x2="427.582" y2="283.575" stroke="#5BD8FF"/>
<line x1="192.656" y1="277.799" x2="427.587" y2="314.387" stroke="#5BD8FF"/>
<line x1="194.579" y1="285.501" x2="427.584" y2="320.162" stroke="#5BD8FF"/>
<line x1="209.998" y1="320.165" x2="317.835" y2="339.422" stroke="#5BD8FF"/>
<line x1="208.074" y1="312.463" x2="356.35" y2="339.422" stroke="#5BD8FF"/>
<line x1="233.518" y1="183.941" x2="231.593" y2="339.92" stroke="#5BD8FF"/>
<line x1="225.815" y1="182.022" x2="221.964" y2="339.926" stroke="#5BD8FF"/>
<line x1="385.645" y1="199.355" x2="381.794" y2="339.928" stroke="#5BD8FF"/>
<line x1="366.388" y1="197.436" x2="360.531" y2="339.931" stroke="#5BD8FF"/>
<line x1="167.549" y1="106.409" x2="427.514" y2="108.334" stroke="#5BD8FF"/>
<path d="M185.89 73.3596C192.696 73.3596 199.493 73.6249 206.283 73.6788C209.616 73.7053 212.988 73.8028 216.319 73.6611C219.39 73.5304 222.51 72.4777 225.576 72.0829C228.703 71.6802 231.35 71.2688 234.265 69.9904C236.781 68.8866 239.01 67.0571 241.606 66.1602C244.849 65.0398 244.576 69.9858 244.621 72.0119C244.659 73.7316 245.204 75.1082 244.55 76.8529C243.796 78.8617 242.706 79.8135 242.457 82.0486C241.856 87.4593 247.565 85.7653 250.65 84.3538C254.3 82.6838 257.382 80.5223 261.378 79.7611C264.833 79.1031 268.01 79.4886 271.326 78.0056C276.779 75.5669 281.514 73.3596 287.569 73.3596C291.404 73.3596 294.549 74.2063 298.226 75.257C304.897 77.1629 311.54 79.5186 317.98 82.1195C322.744 84.0432 326.96 85.9999 332.291 85.4533C334.848 85.1909 337.508 84.2962 340.057 83.8219C341.911 83.477 343.97 85.4529 345.537 86.3044C349.202 88.2966 352.383 88.6761 356.442 89.1594C361.192 89.7248 366.13 89.8429 370.912 89.6204C377.309 89.3229 383.891 89.3146 390.223 88.3614C395.339 87.5913 400.261 86.4463 405.455 86.4463C407.385 86.4463 409.109 85.5338 411.094 85.4887C411.912 85.4701 413.151 85.9114 413.151 84.8503" stroke="#5BD8FF" stroke-linecap="round" stroke-linejoin="round"/>
<path d="M360.486 89.9565C358.184 90.4382 356.04 91.4768 353.889 92.4036C351.169 93.5754 348.612 94.4429 345.803 95.2231C341.341 96.4626 336.801 97.2359 332.326 98.2554C328.959 99.0227 325.849 100.683 322.325 100.809C319.846 100.897 317.318 101.158 314.86 101.465C311.134 101.931 307.127 102.724 303.351 102.724C299.323 102.724 295.604 103.177 291.683 103.699C288.652 104.103 285.932 104.639 282.852 104.639C280.415 104.639 278.081 104.611 275.706 104.976C273.784 105.272 270.798 104.849 269.198 105.916" stroke="#5BD8FF" stroke-linecap="round" stroke-linejoin="round"/>
<path d="M208.872 164.647C209.375 161.44 210.616 157.08 209.758 153.865C209.176 151.681 210.032 150.142 210.149 148.049C210.229 146.607 210.578 144.608 211.177 143.261C211.811 141.834 212.884 140.841 213.589 139.431C214.007 138.594 214.302 137.509 214.794 136.736C215.212 136.08 215.243 134.636 215.894 134.253C216.775 133.735 217.066 132.709 217.809 132.072C218.469 131.507 219.091 130.944 219.476 130.175C220.244 128.638 220.682 127.492 220.682 125.706C220.682 124.731 220.106 124.603 219.245 124.412C218.082 124.153 218.582 124.416 217.951 125.227C217.239 126.142 216.028 127.393 215.096 128.118C213.821 129.11 211.716 129.201 211.443 130.973C211.346 131.606 211.778 133.259 211.106 133.615C210.53 133.92 209.656 133.565 209.031 133.703C206.73 134.215 207.376 137.723 206.939 139.254C206.835 139.617 201.089 139.112 200.431 139.112C199.561 139.112 198.109 139.092 197.452 139.821C197.221 140.077 197.157 141.414 197.044 141.807C196.886 142.361 196.245 142.921 196.033 143.51C195.723 144.373 195.64 145.112 195.448 145.974C195.213 147.033 194.876 148.823 193.87 149.326" stroke="#5BD8FF" stroke-linecap="round" stroke-linejoin="round"/>
<line x1="224.489" y1="109.855" x2="199.455" y2="136.814" stroke="#5BD8FF" stroke-width="3"/>
<path d="M366.216 232.982C330.034 234.097 316.044 240.703 296.892 258.016" stroke="#5BD8FF"/>
<line x1="1.93872" y1="106.409" x2="69.3369" y2="106.409" stroke="#5BD8FF"/>
<path d="M291.575 263.091C277.884 275.534 271.531 289.847 271.531 289.847" stroke="#5BD8FF"/>
<path d="M268.852 295.823C268.852 295.823 263.908 309.186 264.746 321.624" stroke="#5BD8FF"/>
<path d="M263.829 330.286C262.866 335.1 264.792 339.914 264.792 339.914" stroke="#5BD8FF"/>
<line x1="304.268" y1="337.488" x2="306.193" y2="337.488" stroke="#5BD8FF"/>
<path d="M304.268 337.988C302.843 337.988 302.342 337.988 302.342 337.988" stroke="#5BD8FF" stroke-linecap="round" stroke-linejoin="round"/>
<path d="M304.207 329.354C304.207 327.674 304.207 325.993 304.207 324.313C304.207 322.902 304.943 321.757 304.996 320.433C305.091 318.069 307.166 315.902 307.166 313.474C307.166 312.461 308.242 311.585 308.35 310.613C308.479 309.452 309.287 308.334 309.829 307.358C310.624 305.928 312.147 304.991 312.887 303.512" stroke="#5BD8FF" stroke-linecap="round" stroke-linejoin="round"/>
<path d="M362.993 276.091C359.534 276.091 355.947 276.726 352.538 277.231C350.608 277.517 348.616 277.124 346.686 277.428C344.346 277.798 341.507 278.22 339.321 279.204C338.453 279.594 337.255 279.8 336.515 280.355C335.013 281.481 333.053 282.331 331.343 283.083C329.584 283.857 327.637 284.727 326.192 285.966C324.844 287.121 323.596 288.191 322.159 289.308C320.752 290.402 319.654 292.183 318.125 293.057C317.711 293.293 317.349 293.833 317.03 294.152C316.152 295.03 315.061 296.103 317.03 294.437" stroke="#5BD8FF" stroke-linecap="round" stroke-linejoin="round"/>
<path d="M226.877 250.446C228.063 250.285 229.202 250.249 230.395 250.249C232.127 250.249 230.342 250.401 229.551 250.435C228.177 250.493 224.274 249.087 225.65 249.087C227.193 249.087 229.682 249.389 231.086 250.205C232.78 251.19 233.159 252.866 230.779 253.317C229.703 253.521 228.49 253.496 227.392 253.591C227.159 253.611 226.455 253.715 226.285 253.504C225.877 252.994 225.366 251.39 225.31 250.742C225.095 248.266 227.604 252.377 228.302 252.331C228.968 252.287 229.541 251.827 230.231 251.827C230.766 251.827 231.081 251.978 231.217 251.432" stroke="#5BD8FF" stroke-linecap="round" stroke-linejoin="round"/>
<path d="M226.877 286.941C226.877 285.201 226.32 284.629 225.19 283.499C224.995 283.305 225.702 283.701 225.957 283.806C226.919 284.205 227.89 284.639 228.894 284.924C229.544 285.109 230.239 285.362 230.921 285.362C231.254 285.362 231.478 285.289 231.787 285.165C232.05 285.06 230.785 284.807 230.625 284.727C229.494 284.161 229.01 283.583 227.557 284.179C227.036 284.392 225.891 284.83 225.891 285.472C225.891 286.323 225.891 287.174 225.891 288.026C225.891 288.877 228.851 288.519 229.639 288.519C230.722 288.519 231.217 287.675 231.217 286.645C231.217 285.518 230.338 285.529 229.398 285.165C227.893 284.584 228.928 285.835 229.442 286.349C230.217 287.124 229.194 287.406 228.455 287.324C227.373 287.204 227.216 285.912 226.669 285.275C226.471 285.044 225.682 285.136 225.42 285.176C224.981 285.244 225.102 285.841 225.102 286.152C225.102 287.687 225.136 287.927 226.79 287.927C228.107 287.927 229.214 288.016 230.428 288.563C231.07 288.851 231.811 288.83 232.401 289.209C232.723 289.416 233.213 289.528 232.795 289.111" stroke="#5BD8FF" stroke-linecap="round" stroke-linejoin="round"/>
<path d="M229.245 319.293C228.12 318.084 226.825 316.706 225.299 315.984C224.91 315.799 226.749 316.295 227.162 316.323C228.317 316.403 228.824 316.675 229.793 317.321C230.275 317.643 230.74 318.124 231.173 318.504C232.65 319.8 230.795 319.173 229.99 318.723C229.107 318.231 227.573 318.055 226.877 317.321C226.596 317.023 225.731 315.567 225.19 315.764C223.332 316.44 224.29 318.612 225.058 319.688C225.243 319.947 225.212 320.385 225.496 320.521C226.201 320.856 227.113 320.931 227.875 321.058C228.592 321.177 229.27 321.661 230.034 321.661C231.576 321.661 229.893 319.672 229.442 318.899C228.969 318.089 228.106 318.088 227.239 317.836C226.769 317.699 226.388 317.348 225.891 317.321C225.827 317.317 227.068 318.353 227.316 318.548C228.03 319.112 228.668 319.667 229.245 320.367C229.425 320.587 229.716 320.894 229.935 321.069C230.071 321.178 229.942 321.261 229.793 321.211C229.258 321.033 228.88 320.471 228.455 320.126C227.849 319.634 225.113 316.286 225.847 318.855C226.015 319.441 225.994 320.059 225.387 320.28C225.049 320.402 224.769 320.477 224.411 320.477C223.943 320.477 225.98 319.621 226.285 319.491" stroke="#5BD8FF" stroke-linecap="round" stroke-linejoin="round"/>
<path d="M72.6974 40.6245C67.2743 37.2673 62.5879 33.847 55.829 33.847C49.2521 33.847 42.8315 33.2389 36.7767 30.9101C34.4887 30.0301 31.8617 29.9412 29.5725 28.9773C28.2468 28.4191 25.7853 28.4986 24.3513 28.425C22.6039 28.3354 21.0503 27.5214 19.2807 27.5214C13.5363 27.5214 8.40263 25.2622 2.66333 25.2622" stroke="#5BD8FF" stroke-linecap="round" stroke-linejoin="round"/>
<path d="M386.108 235.928L411.142 242.668L427.51 254.222" stroke="#5BD8FF"/>
<path d="M413.822 85.8335C418.247 84.1477 421.618 84.9826 426.16 84.9826" stroke="#5BD8FF" stroke-linecap="round" stroke-linejoin="round"/>
<path d="M370.183 271.665C369.788 271.387 368.574 271.007 368.332 270.564C368.17 270.268 371.454 270.189 371.765 270.189C373.307 270.189 374.753 269.995 376.299 270.142C377.618 270.268 378.86 270.611 380.189 270.611C381.925 270.611 382.205 271.009 382.205 272.509C382.205 273.001 382.205 273.493 382.205 273.985C382.205 274.686 382.187 273.821 382.087 273.563C381.875 273.019 381.469 272.016 382.041 271.501C382.228 271.333 382.868 271.243 383.107 271.243C384.173 271.243 380.974 271.243 379.908 271.243C376.145 271.243 372.759 271.46 369.339 269.814C368.437 269.38 367.69 269.134 366.703 269.134C365.707 269.134 367.057 268.928 367.394 268.924C368.648 268.907 369.902 268.924 371.155 268.924C372.419 268.924 376.198 268.61 374.94 268.724C372.953 268.905 371.191 268.713 369.234 268.713C368.865 268.713 364.13 267.581 365.379 269.298C365.568 269.558 365.543 269.746 365.543 270.084C365.543 270.692 366.144 271.1 366.176 271.665C366.187 271.872 365.512 272.087 365.719 272.087C366.66 272.087 367.601 272.087 368.543 272.087C371.603 272.087 374.329 272.063 377.143 273.47C378.08 273.938 379.34 274.618 380.424 274.618C381.319 274.618 382.099 274.63 382.943 274.817C384.248 275.107 381.549 271.927 380.213 271.876C379.65 271.855 378.881 271.765 378.326 271.888C377.684 272.031 379.517 272.653 379.627 272.673C380.023 272.745 380.432 272.72 380.834 272.72C381.184 272.72 382.087 273.29 381.244 273.259C378.895 273.172 376.591 272.092 374.214 271.876C373.168 271.781 371.964 271.842 370.98 271.501C369.853 271.111 368.618 270.822 367.418 270.822C366.741 270.822 366.583 270.697 366.34 271.243C365.924 272.179 368.013 271.876 368.519 271.876C370.064 271.876 372.029 271.555 373.581 271.9C374.451 272.093 375.174 272.811 375.877 273.306C376.224 273.549 376.656 273.535 376.932 273.88C377.12 274.115 375.826 273.812 375.608 273.786C374.972 273.711 374.212 273.69 373.604 273.517C372.781 273.281 371.89 273.539 371.073 273.306C369.966 272.989 368.695 272.952 367.535 272.767C367.013 272.683 366.484 272.782 365.965 272.708C365.038 272.576 368.027 271.944 368.285 271.876" stroke="#5BD8FF" stroke-linecap="round" stroke-linejoin="round"/>
<path d="M371.87 308.784C369.549 308.378 362.604 307.056 364.91 307.542C365.979 307.767 366.936 308.183 367.956 308.55C369.08 308.953 370.404 308.872 371.577 309.1C374.607 309.691 377.669 310.604 380.728 311.01C381.481 311.11 381.77 308.89 381.243 308.456C379.681 307.166 376.597 307.422 374.705 307.296C373.357 307.206 372.073 306.886 370.698 306.886C368.941 306.886 367.224 306.789 365.472 306.628C364.962 306.581 364.197 306.503 363.738 306.206C363.36 305.961 363.875 305.626 364.113 305.62C365.244 305.594 366.23 306.369 367.359 306.452C369.337 306.599 371.341 306.377 373.323 306.476C374.437 306.531 375.499 306.81 376.58 307.05C377.607 307.278 377.964 308.372 378.83 308.831C379.673 309.277 379.203 309.658 378.361 309.616C376.977 309.547 375.228 309.495 373.873 309.194C372.1 308.8 369.582 308.698 367.734 309.1C366.899 309.282 364.897 309.992 364.324 309.463C363.411 308.621 363.841 306.657 365.285 307.026C366.964 307.456 368.221 308.353 369.761 308.995C371.02 309.519 372.224 309.57 373.51 309.932C375.763 310.566 378.1 310.697 380.4 311.116C381.816 311.373 381.536 310.977 380.868 309.815C380.1 308.476 378.601 308.299 377.353 307.729C375.93 307.079 374.117 308.066 372.831 308.667C372.264 308.931 370.99 309.385 370.394 309.417C370.29 309.422 369.213 309.637 369.269 309.674C370.249 310.328 372.647 310.659 373.862 310.682C374.213 310.689 375.447 310.894 375.619 310.495C375.983 309.654 376.237 309.181 376.932 308.573" stroke="#5BD8FF" stroke-linecap="round" stroke-linejoin="round"/>
<path d="M178.901 41.7661C178.501 42.3005 178.1 42.8348 177.699 43.3691" stroke="#5BD8FF" stroke-linecap="round" stroke-linejoin="round"/>
<path d="M164.073 47.377C164.097 46.405 164.168 45.4885 164.474 44.5718" stroke="#5BD8FF" stroke-linecap="round" stroke-linejoin="round"/>
<line x1="163.586" y1="46.7253" x2="180.917" y2="42.874" stroke="#5BD8FF"/>
<line x1="179.585" y1="37.4632" x2="181.51" y2="45.1659" stroke="#5BD8FF"/>
<path d="M118.945 142.639C118.945 151.865 121.47 160.822 121.47 169.988C121.47 171.504 120.165 173.165 118.945 173.775" stroke="#5BD8FF" stroke-linecap="round" stroke-linejoin="round"/>
<path d="M185.424 154.419C178.563 157.265 172.131 160.794 165.135 163.302C162.603 164.21 156.332 166.32 155.13 168.725" stroke="#5BD8FF" stroke-linecap="round" stroke-linejoin="round"/>
<path d="M150.923 221.741C151.862 226.44 154.289 232.121 154.289 236.888" stroke="#5BD8FF" stroke-linecap="round" stroke-linejoin="round"/>
<path d="M168.594 236.888C168.594 239.229 170.144 250.111 168.407 251.848C167.375 252.88 166.07 251.937 166.07 254.139C166.07 255.401 166.07 256.664 166.07 257.926" stroke="#5BD8FF" stroke-linecap="round" stroke-linejoin="round"/>
<path d="M128.202 235.205C130.525 236.192 132.969 237.166 134.092 239.413" stroke="#5BD8FF" stroke-linecap="round" stroke-linejoin="round"/>
<path d="M210.607 161.145C213.761 159.012 220.565 161.512 224.394 162.708C226.523 163.374 226.947 164.419 227.52 166.424C227.913 167.8 228.383 167.268 226.026 168.022C223.541 168.817 221.321 169.567 218.872 170.383C217.843 170.726 214.902 170.541 214.357 171.495C212.798 174.223 207.332 175.196 206.231 177.399" stroke="#5BD8FF" stroke-linecap="round" stroke-linejoin="round"/>
<path d="M403.872 280.559C406.707 280.559 414.215 279.819 416.468 282.715C417.651 284.236 419.928 284.305 420.986 286.104C422.733 289.073 427 290.515 427.9 294.113" stroke="#5BD8FF" stroke-linecap="round" stroke-linejoin="round"/>
<path d="M419.807 81.385C412.105 84.7639 408.253 83.3193 386.108 86.6896C368.975 89.2971 350.484 91.5037 344.707 81.385C344.707 63.5761 363.013 49.1392 383.22 49.1392C403.427 49.1392 419.807 63.5761 419.807 81.385Z" fill="#EDDB9A"/>
<path d="M412.347 85.8691C413.577 85.629 415.698 85.737 416.617 84.8179C417.177 84.2583 417.445 84.0952 418.26 84.0952" stroke="#5BD8FF" stroke-linecap="round" stroke-linejoin="round"/>
<path d="M412.938 85.869C417.376 84.1372 416.008 85.2777 413.53 85.2777" stroke="#5BD8FF" stroke-linecap="round" stroke-linejoin="round"/>
<path d="M341.391 83.5039C346.37 83.5039 346.106 86.4525 349.669 88.2343" stroke="#5BD8FF" stroke-linecap="round" stroke-linejoin="round"/>
<path d="M354.991 89.4169C363.587 89.4169 371.803 88.5253 380.088 87.0188C387.471 85.6766 394.668 84.0952 402.426 84.0952C406.609 84.0952 410.792 84.0952 414.975 84.0952C417.911 84.0952 421.317 84.5985 424.173 83.9638C427.946 83.1252 425.54 82.9126 423.023 82.9126C418.483 82.9126 413.994 83.5039 409.423 83.5039C406.833 83.5039 402.873 83.4408 400.521 84.5551C397.642 85.9189 394.308 85.6816 391.323 86.756C388.729 87.6898 384.852 88.4094 382.651 89.8768C381.629 90.5581 377.863 90.9607 379.037 90.5995C383.79 89.1371 388.252 86.9858 393.13 85.9019C399.952 84.386 379.187 87.5299 372.467 89.4497C371.247 89.7984 372.207 89.9467 373.19 89.7454C375.622 89.2472 378.467 88.9742 380.745 87.9386C381.682 87.5129 384.731 87.0517 383.702 87.0517C381.996 87.0517 380.185 87.7986 378.512 88.1029C375.095 88.7242 370.555 87.5585 367.408 88.957C366.826 89.2157 363.47 90.1093 365.175 89.8768C368.855 89.3749 372.253 88.8256 375.949 88.8256C378.337 88.8256 380.724 88.8256 383.111 88.8256C386.552 88.8256 380.338 88.5158 378.643 89.1212C372.503 91.3142 365.087 90.5995 358.539 90.5995" stroke="#5BD8FF" stroke-linecap="round" stroke-linejoin="round"/>
<path d="M285.456 272.096C292.31 274.938 297.122 281.567 303.1 285.936C307.263 288.978 310.384 293.328 314.592 296.133" stroke="#5BD8FF" stroke-linecap="round" stroke-linejoin="round"/>
<path d="M322.604 286.664C318.033 284.114 314.606 280.085 311.314 276.062C309.93 274.37 307.851 273.95 306.539 272.42C304.493 270.032 301.797 268.2 300.024 265.541" stroke="#5BD8FF" stroke-linecap="round" stroke-linejoin="round"/>
<path d="M392.53 239.318C391.545 247.591 389.616 255.057 389.616 263.396C389.616 265.188 389.1 275.04 388.159 268.454" stroke="#5BD8FF" stroke-linecap="round" stroke-linejoin="round"/>
<path d="M403.456 242.233C403.456 246.202 403.672 249.495 402.363 253.159C401.779 254.795 401.271 257.985 401.271 259.714C401.271 263.003 400.465 267.881 399.085 270.64" stroke="#5BD8FF" stroke-linecap="round" stroke-linejoin="round"/>
<path d="M279.629 275.01C276.353 276.102 272.995 276.92 270.2 279.016C268.876 280.01 268.074 281.268 266.518 282.132C264.092 283.48 261.413 285.936 258.505 285.936" stroke="#5BD8FF" stroke-linecap="round" stroke-linejoin="round"/>
<path d="M251.95 295.405C247.487 298.818 243.523 305.249 247.984 309.973C249.258 311.321 249.497 313.495 250.331 315.071C251.097 316.517 252.494 316.615 253.407 317.985" stroke="#5BD8FF" stroke-linecap="round" stroke-linejoin="round"/>
<path d="M364.851 221.108C360.851 221.29 355.007 221.886 353.966 226.571C353.414 229.055 353.418 231.306 356.11 231.306" stroke="#5BD8FF" stroke-linecap="round" stroke-linejoin="round"/>
</svg>
