<svg width="595" height="580" viewBox="0 0 595 580" fill-opacity="0.05" xmlns="http://www.w3.org/2000/svg">
<g clip-path="url(#clip0)">
<path d="M396.074 479.711L387.571 350.928C387.236 345.66 380.148 341.859 376.345 344.887L371.11 349.054C367.543 351.894 360.897 348.707 359.973 343.69L345.431 265.044C344.506 260.026 337.883 256.822 334.293 259.679L316.795 273.61C313.27 276.417 302.277 282.261 305.689 268.396L305.689 268.396C304.633 263.439 226.838 227.749 271.889 322.166C275.051 319.649 280.499 320.21 282.284 324.631L312.259 398.544C314.045 402.965 319.864 405.183 323.026 402.666L337.961 390.776C341.123 388.258 346.873 390.445 348.701 394.831L383.739 479.517C386.5 486.235 396.521 486.383 396.074 479.711Z" fill="black"/>
<path d="M513.021 127.512C515.688 129.317 517.963 131.724 519.575 134.513C629.527 324.715 501.399 542.87 303.397 559.348C301.39 559.515 299.35 559.377 297.378 558.967V558.967C273.06 553.912 274.824 518.605 299.524 516.013L303.184 515.628C371.199 509.159 443.026 471.227 484.805 398.267C526.584 325.307 527.74 234.284 482.215 158.039L481.129 155.953C470.552 135.656 494.073 114.68 513.021 127.512V127.512Z" fill="#28A528"/>
<path d="M417.141 35.8871C423.907 39.6908 428.151 46.7959 428.292 54.557V54.557C428.597 71.3576 410.631 82.212 395.9 74.1261L391.984 71.9764L388.778 70.2793L385.14 68.422L381.461 66.6308L377.703 64.8825L373.941 63.2089L370.16 61.6059L366.292 60.0434L364.322 59.2825L362.331 58.5323L360.366 57.8077L358.394 57.1045L354.523 55.7815L350.738 54.5568L346.997 53.4175L344.793 52.7785L342.552 52.1522L338.709 51.1348L336.88 50.6731L335.06 50.2328L330.946 49.2881L328.735 48.8136L326.517 48.3562L324.306 47.9266L322.093 47.5162L320.087 47.1636L318.056 46.8237L314.043 46.2113L311.995 45.9259L309.964 45.6566L305.849 45.1757L301.863 44.7717L299.834 44.5965L297.796 44.434L293.679 44.1647L291.628 44.0557L289.586 43.9638L287.567 43.8933L285.489 43.8356L283.459 43.7992L281.434 43.7821L279.232 43.7821L277.32 43.7928L275.258 43.8206L273.225 43.8698L269.091 44.0215L265.062 44.2383L256.72 44.9085L254.652 45.1185L252.636 45.3467L250.651 45.5839L248.675 45.8361L246.77 46.0969L244.873 46.3726L242.978 46.6612L241.087 46.9668L238.928 47.3344L236.774 47.7213L234.619 48.1381L232.474 48.5613L229.242 49.2453L226.04 49.9698L222.82 50.7457L219.616 51.5686L200.04 57.6725C184.869 62.4031 169.875 49.8877 171.818 34.1149V34.1149C172.838 25.826 178.49 18.842 186.383 16.1146L194.849 13.1898L199.661 11.7021L202.08 10.9904L204.461 10.3136L206.598 9.72507L208.7 9.16508L210.819 8.61791L212.945 8.0857L215.055 7.57273L217.136 7.08754L219.289 6.60236L221.368 6.14923L223.258 5.75595L225.127 5.3755L227.014 5.00787L228.909 4.65306L230.776 4.31536L232.626 3.99475L234.48 3.68055L236.4 3.37491L238.359 3.07781L240.378 2.78285L244.313 2.25492L248.263 1.77828L250.412 1.54531L252.426 1.34012L254.484 1.14562L256.445 0.976765L258.418 0.818599L260.365 0.677531L262.392 0.545013L264.428 0.42532L266.378 0.324863L268.403 0.235093L270.377 0.162422L272.426 0.0983001L273.436 0.0726517L274.385 0.0555526L275.391 0.0384539L276.527 0.0192172L278.45 0.00211853L279.687 0.00211822L282.009 0.00211841L284.369 0.0320415L286.33 0.0705145L288.366 0.121811L292.451 0.27123L294.525 0.369424L296.55 0.481001L298.513 0.600694L300.481 0.737486L302.54 0.893515L304.589 1.06237L306.655 1.2526L308.682 1.45137L311.087 1.70572L313.488 1.98358L315.253 2.19946L316.988 2.42174L318.968 2.69319L320.941 2.97197L323.05 3.28952L324.11 3.45624L325.156 3.62295L327.254 3.97135L329.32 4.33256L331.401 4.70874L333.464 5.09988L335.457 5.49316L337.446 5.9014L339.433 6.3246L341.368 6.7478L343.393 7.20948L345.382 7.6797L347.397 8.16916L349.291 8.64559C349.343 8.65855 349.391 8.67084 349.443 8.68396C350.036 8.83512 354.054 9.86224 356.889 10.6903C358.131 11.053 359.88 11.5709 360.692 11.8115C360.99 11.8998 361.287 11.9898 361.583 12.0817L365.325 13.2403L368.958 14.4317L372.576 15.6759L374.548 16.3724L376.516 17.0863L378.936 17.9883L381.356 18.9202L383.501 19.7602L385.618 20.613L389.824 22.3678L394.035 24.2102L396.101 25.1421L398.168 26.0997L400.04 26.9781L401.922 27.8822L403.765 28.7864L405.603 29.6969L409.26 31.5735L412.891 33.4986L417.141 35.8871Z" fill="#D0D000"/>
<path d="M73.712 91.0809C80.7864 86.0917 90.2357 85.6989 97.6431 90.1817V90.1817C108.774 96.918 111.569 111.845 103.629 122.151L97.8348 129.672L96.5033 131.291L95.2023 132.909L93.9099 134.548L92.6367 136.187L91.3743 137.848L90.1223 139.522L89.5028 140.36L88.8919 141.204L87.6629 142.902L85.2795 146.302L82.9721 149.727L80.7251 153.175L79.627 154.913L78.5334 156.685L77.4396 158.48L76.3779 160.267L75.3269 162.071L74.2994 163.864L73.274 165.694L72.2678 167.527L71.2723 169.383L70.3025 171.225L68.3948 174.974L67.9227 175.936L67.4656 176.866L66.5598 178.749L64.7932 182.553L63.9408 184.451L63.1034 186.368L60.7069 192.198C55.4212 205.056 39.5251 209.717 28.0113 201.928V201.928C19.9056 196.444 16.4169 186.133 19.6337 176.89V176.89L22.6945 169.488L24.3009 165.826L25.1212 164.003L25.9586 162.184L27.7125 158.484L28.6076 156.646L29.524 154.797L30.4426 152.981L31.3783 151.162L32.331 149.347L32.8074 148.445L33.2966 147.537L34.2643 145.752L34.7556 144.859L35.2512 143.967L36.243 142.202L37.256 140.428L37.757 139.558L38.2804 138.664L39.325 136.897L40.3761 135.142L41.4548 133.383L42.5593 131.6L43.6808 129.822L44.9903 127.785L45.973 126.287L47.1201 124.556L48.2908 122.818L50.6781 119.361L51.8775 117.665L53.0866 115.983L55.5497 112.635L58.0512 109.333L59.333 107.681L60.6148 106.042L63.223 102.818L64.5432 101.215L65.8698 99.6295L68.9501 95.6372C70.2944 93.895 71.9139 92.349 73.712 91.0809V91.0809Z" fill="#FD7700"/>
<ellipse cx="21.875" cy="282.887" rx="21.875" ry="21.8868" fill="#FF0000"/>
</g>
<defs>
<clipPath id="clip0">
<rect width="595" height="580" fill="white"/>
</clipPath>
</defs>
</svg>
