<svg width="1088" height="1060" viewBox="0 0 1088 1060" fill="none" xmlns="http://www.w3.org/2000/svg">
<g clip-path="url(#clip0)">
<path d="M724.249 876.713L708.701 641.351C708.088 631.723 695.128 624.777 688.173 630.311L678.602 637.927C672.078 643.118 659.926 637.293 658.235 628.123L631.645 484.391C629.954 475.221 617.842 469.364 611.279 474.587L579.282 500.047C572.836 505.176 552.734 515.858 558.974 490.518L558.973 490.518C557.042 481.457 414.789 416.231 497.168 588.787C502.951 584.186 512.912 585.211 516.176 593.291L570.988 728.373C574.252 736.453 584.894 740.508 590.677 735.907L617.985 714.177C623.767 709.576 634.282 713.572 637.625 721.589L701.693 876.359C706.743 888.637 725.066 888.908 724.249 876.713Z" fill="black"/>
<path d="M938.101 233.04C942.975 236.339 947.133 240.736 950.079 245.83C1151.14 593.442 916.845 992.143 554.783 1022.26C551.114 1022.56 547.384 1022.31 543.78 1021.56V1021.56C499.321 1012.32 502.562 947.792 547.722 943.055L554.395 942.355C678.766 930.531 810.105 861.208 886.501 727.867C962.897 594.527 965.011 428.175 881.767 288.829L879.789 285.035C860.449 247.942 903.457 209.592 938.101 233.04V233.04Z" fill="#28A528"/>
<path d="M762.772 65.5879C775.144 72.5385 782.903 85.5265 783.161 99.7147V99.7147C783.719 130.419 750.886 150.261 723.962 135.489L716.769 131.543L710.906 128.441L704.253 125.047L697.527 121.773L690.656 118.578L683.777 115.52L676.863 112.59L669.789 109.734L666.187 108.344L662.546 106.973L658.953 105.648L655.347 104.363L648.269 101.945L641.347 99.707L634.507 97.625L630.476 96.457L626.379 95.3125L619.351 93.4531L616.007 92.6094L612.679 91.8047L605.156 90.0781L601.113 89.211L597.058 88.375L593.015 87.5899L588.968 86.8399L585.3 86.1953L581.586 85.5742L574.248 84.4549L570.504 83.9334L566.789 83.4412L559.265 82.5623L551.976 81.824L548.265 81.5037L544.539 81.2069L537.011 80.7147L533.261 80.5154L529.527 80.3475L525.836 80.2186L522.035 80.1131L518.324 80.0467L514.621 80.0154L510.593 80.0154L507.097 80.035L503.328 80.0858L499.609 80.1756L492.05 80.4529L484.683 80.8492L469.429 82.074L465.648 82.4577L461.961 82.8748L458.332 83.3084L454.718 83.7694L451.234 84.2459L447.765 84.7498L444.3 85.2772L440.843 85.8358L436.894 86.5076L432.957 87.2147L429.015 87.9764L425.093 88.7498L419.183 89.9998L413.328 91.324L407.441 92.742L401.582 94.2459L365.753 105.412C338.025 114.053 310.626 91.1787 314.178 62.3532V62.3532C316.045 47.2016 326.378 34.4358 340.808 29.4527L356.293 24.1053L365.093 21.3865L369.515 20.0858L373.87 18.8489L377.777 17.7733L381.621 16.7498L385.496 15.7498L389.382 14.7772L393.242 13.8397L397.046 12.9529L400.984 12.0662L404.785 11.2381L408.242 10.5193L411.66 9.82403L415.109 9.15216L418.574 8.50372L421.988 7.88653L425.371 7.30059L428.761 6.72638L432.273 6.16778L435.855 5.62481L439.546 5.08575L446.742 4.12091L453.964 3.24981L457.894 2.82403L461.578 2.44903L465.339 2.09356L468.925 1.78497L472.535 1.49591L476.093 1.23809L479.8 0.995907L483.523 0.777156L487.089 0.593563L490.793 0.4295L494.402 0.296688L498.148 0.1795L499.996 0.132625L501.73 0.101375L503.57 0.0701256L505.648 0.0349689L509.164 0.00371954L511.425 0.00371898L515.671 0.00371935L519.988 0.0584064L523.574 0.128719L527.296 0.222468L534.765 0.495544L538.558 0.675002L542.261 0.878918L545.851 1.09767L549.449 1.34767L553.214 1.63282L556.961 1.94142L560.738 2.28907L564.445 2.65236L568.843 3.1172L573.234 3.62501L576.461 4.01954L579.632 4.42579L583.254 4.92189L586.861 5.43138L590.718 6.01173L592.656 6.31642L594.57 6.62111L598.406 7.25782L602.183 7.91798L605.988 8.60548L609.761 9.32032L613.406 10.0391L617.043 10.7852L620.675 11.5586L624.214 12.332L627.918 13.1758L631.554 14.0352L635.238 14.9297L638.766 15.8165C638.818 15.8295 638.865 15.8415 638.917 15.8546C639.739 16.0636 647.296 17.9905 652.595 19.5373C655.078 20.2623 658.672 21.3264 659.919 21.696C660.217 21.7843 660.513 21.8742 660.81 21.966L668.022 24.1977L674.664 26.375L681.28 28.649L684.886 29.9219L688.484 31.2266L692.91 32.875L697.335 34.5781L701.257 36.1133L705.128 37.6719L712.82 40.8789L720.519 44.2461L724.296 45.9492L728.078 47.6992L731.5 49.3047L734.941 50.957L738.312 52.6094L741.671 54.2734L748.359 57.7031L755 61.2215L762.772 65.5879Z" fill="#D0D000"/>
<path d="M134.79 166.458C147.728 157.339 165.003 156.622 178.547 164.814V164.814C198.902 177.126 204.01 204.411 189.486 223.252L178.899 236.986L176.465 239.945L174.086 242.902L171.722 245.898L169.394 248.895L167.086 251.93L164.797 254.988L163.664 256.52L162.547 258.062L160.299 261.165L155.941 267.379L151.722 273.639L147.613 279.941L145.605 283.117L143.605 286.355L141.605 289.636L139.664 292.902L137.742 296.198L135.863 299.476L133.988 302.82L132.148 306.171L130.328 309.562L128.555 312.929L125.066 319.78L124.203 321.538L123.367 323.237L121.711 326.679L118.48 333.632L116.922 337.101L115.391 340.605L111.013 351.247C101.346 374.752 72.2723 383.274 51.2181 369.038V369.038C36.3996 359.018 30.0209 340.175 35.9031 323.282V323.282L41.5 309.754L44.4375 303.062L45.9375 299.73L47.4687 296.406L50.6757 289.644L52.3125 286.285L53.9882 282.906L55.6679 279.586L57.3789 276.261L59.1211 272.945L59.9922 271.296L60.8867 269.636L62.6562 266.375L63.5546 264.742L64.4609 263.113L66.2743 259.887L68.1268 256.645L69.0429 255.054L70 253.421L71.9101 250.191L73.832 246.984L75.8046 243.769L77.8242 240.511L79.875 237.261L82.2695 233.539L84.0664 230.8L86.164 227.636L88.3046 224.461L92.67 218.142L94.8632 215.043L97.0742 211.968L101.578 205.851L106.152 199.816L108.496 196.796L110.84 193.801L115.609 187.91L118.023 184.98L120.449 182.082L126.081 174.787C128.539 171.602 131.501 168.776 134.79 166.458V166.458Z" fill="#FD7700"/>
<ellipse cx="40" cy="517" rx="40" ry="40" fill="#FF0000"/>
</g>
<defs>
<clipPath id="clip0">
<rect width="1088" height="1060" fill="white"/>
</clipPath>
</defs>
</svg>
