<svg width="32" height="33" viewBox="0 0 32 33" fill="none" xmlns="http://www.w3.org/2000/svg">
<circle cx="16" cy="16.5013" r="16" fill="white"/>
<circle cx="16.0001" cy="16.5013" r="12" fill="black"/>
<path d="M15.1338 16.2583C15.1338 17.0943 14.9892 17.8286 14.7002 18.4615C14.4111 19.0904 13.9971 19.5747 13.458 19.9146C12.9228 20.2505 12.3056 20.4185 11.6064 20.4185C10.915 20.4185 10.2978 20.2505 9.75487 19.9146C9.21581 19.5747 8.79784 19.0923 8.50096 18.4673C8.20799 17.8423 8.05956 17.1216 8.05565 16.3052V15.8247C8.05565 14.9927 8.20213 14.2583 8.4951 13.6216C8.79198 12.9849 9.20799 12.4986 9.74315 12.1626C10.2822 11.8228 10.8994 11.6529 11.5947 11.6529C12.29 11.6529 12.9053 11.8208 13.4404 12.1568C13.9795 12.4888 14.3955 12.9693 14.6885 13.5982C14.9814 14.2232 15.1299 14.9517 15.1338 15.7837V16.2583ZM13.6514 15.813C13.6514 14.8677 13.4717 14.1431 13.1123 13.6392C12.7568 13.1353 12.251 12.8833 11.5947 12.8833C10.9541 12.8833 10.4521 13.1353 10.0889 13.6392C9.72948 14.1392 9.54588 14.8482 9.53807 15.7661V16.2583C9.53807 17.1958 9.71971 17.9204 10.083 18.4322C10.4502 18.9439 10.958 19.1997 11.6064 19.1997C12.2627 19.1997 12.7666 18.9497 13.1181 18.4497C13.4736 17.9497 13.6514 17.2193 13.6514 16.2583V15.813ZM19.4881 16.6158L18.5213 17.6411V20.3013H17.0389V11.7701H18.5213V15.772L19.3416 14.7583L21.8377 11.7701H23.6307L20.4608 15.5493L23.8123 20.3013H22.0545L19.4881 16.6158Z" fill="white"/>
</svg>
