<svg width="7702" height="1671" viewBox="0 0 7702 1671" fill="none" xmlns="http://www.w3.org/2000/svg">
<g clip-path="url(#clip0)">
<path d="M0 0.558594H7702V1670.56H0V0.558594Z" fill="white"/>
<path d="M7527.93 452.749C7526.58 456.798 7516.91 464.221 7498.91 475.018C7484.97 483.115 7467.65 499.985 7446.95 525.628C7431.21 544.972 7413.21 565.441 7392.97 587.035L7310.64 680.158C7213.02 792.176 7134.97 876.526 7076.48 933.21C7057.59 951.655 7037.12 972.349 7015.08 995.292L6813.31 1199.76C6812.41 1208.31 6818.03 1212.58 6830.18 1212.58C6869.77 1212.58 6959.97 1205.61 7100.78 1191.66C7127.77 1188.96 7150.71 1187.61 7169.61 1187.61C7203.35 1187.61 7231.24 1186.71 7253.28 1184.91C7275.33 1183.11 7294.45 1182.21 7310.64 1182.21C7428.51 1182.21 7487.44 1208.53 7487.44 1261.17C7487.44 1304.8 7471.02 1326.62 7438.18 1326.62C7422.43 1326.62 7409.16 1325.27 7398.37 1322.57C7340.78 1308.18 7280.95 1300.98 7218.87 1300.98C7187.38 1300.98 7092.68 1305.93 6934.77 1315.82L6891.59 1318.52C6799.36 1324.37 6720.64 1336.07 6655.41 1353.61C6617.62 1363.96 6595.57 1369.13 6589.27 1369.13C6560.48 1369.13 6546.09 1352.71 6546.09 1319.87C6546.09 1287.93 6555.08 1265.21 6573.08 1251.72C6665.75 1184.24 6799.81 1062.55 6975.26 886.648C7150.71 710.749 7267.9 582.312 7326.84 501.335L7310.64 500.66C7272.85 499.311 7199.75 503.809 7091.33 514.156C7067.94 516.406 7043.64 518.43 7018.45 520.229C6994.16 522.029 6973.69 523.828 6957.04 525.628C6899.01 531.926 6851.77 535.075 6815.33 535.075C6762.25 535.075 6724.46 527.427 6701.97 512.132C6679.92 496.836 6668.9 479.516 6668.9 460.172C6668.9 448.475 6675.2 434.979 6687.8 419.684C6700.39 404.388 6710.51 396.74 6718.16 396.74C6723.56 396.74 6733.46 399.215 6747.85 404.163C6763.15 410.011 6775.97 412.936 6786.32 412.936C6827.71 412.936 6865.49 413.61 6899.68 414.96C6933.87 415.86 6979.31 414.06 7036 409.562C7091.78 405.063 7145.76 401.914 7197.95 400.114C7269.48 398.315 7342.81 390.442 7417.93 376.496C7456.62 369.298 7486.09 365.699 7506.33 365.699C7527.03 365.699 7537.38 379.645 7537.38 407.537C7537.38 428.231 7534.23 443.302 7527.93 452.749Z" fill="black"/>
<path d="M7515.11 481.091C7514.21 484.24 7510.61 487.839 7504.31 491.888C7490.81 500.885 7477.32 510.782 7463.82 521.579C7450.78 532.376 7417.93 569.265 7365.3 632.247C7297.82 712.324 7236.64 781.154 7181.75 838.737C7127.32 896.321 7033.3 989.444 6899.68 1118.11L6829.5 1186.26C6871.79 1182.66 6926.23 1177.26 6992.81 1170.07C7087.73 1159.72 7140.36 1154.55 7150.71 1154.55C7183.1 1154.55 7209.64 1153.65 7230.34 1151.85C7251.03 1150.5 7269.7 1149.82 7286.35 1149.82C7416.81 1149.82 7482.04 1181.54 7482.04 1244.97C7482.04 1270.61 7475.29 1290.86 7461.8 1305.7C7448.75 1320.1 7430.98 1327.3 7408.49 1327.3C7390.49 1327.3 7369.35 1324.15 7345.06 1317.85C7306.37 1307.5 7257.33 1302.33 7197.95 1302.33C7175.45 1302.33 7109.55 1305.93 7000.23 1313.12H7000.91C6889.79 1319.42 6816.68 1324.6 6781.59 1328.65C6746.5 1332.69 6706.47 1340.79 6661.48 1352.94C6626.39 1362.84 6603.9 1367.78 6594 1367.78C6549.01 1367.78 6526.52 1345.52 6526.52 1300.98C6526.52 1264.99 6538.66 1238 6562.96 1220C6622.79 1175.46 6700.62 1107.98 6796.44 1017.56C6892.26 926.687 6982.46 836.938 7067.04 748.313C7080.53 733.918 7096.5 717.497 7114.95 699.053C7189.63 624.374 7244.06 565.666 7278.25 522.929C7271.05 522.929 7189.4 531.926 7033.3 549.921C6934.77 561.618 6860.55 567.466 6810.61 567.466C6780.02 567.466 6748.53 563.642 6716.14 555.994C6668.45 534.85 6644.61 508.308 6644.61 476.367C6644.61 461.521 6653.83 444.426 6672.28 425.082C6690.72 405.738 6705.79 396.065 6717.49 396.065C6726.03 396.065 6737.28 398.54 6751.23 403.488C6765.17 408.887 6775.75 411.586 6782.94 411.586L6907.78 412.936C6941.97 413.385 6979.54 411.811 7020.47 408.212C7050.62 405.513 7098.75 402.589 7164.88 399.439C7239.11 395.84 7289.95 391.567 7317.39 386.618C7400.16 372.672 7452.35 365.699 7473.94 365.699C7511.28 365.699 7529.95 385.718 7529.95 425.757C7529.95 448.25 7525 466.695 7515.11 481.091Z" fill="black"/>
<path d="M6076.88 374.472C6080.93 377.621 6082.96 388.643 6082.96 407.537C6082.96 426.882 6080.93 441.502 6076.88 451.399L6085.66 479.741C6100.5 532.826 6115.12 576.463 6129.52 610.653C6147.51 656.54 6165.28 705.801 6182.83 758.436C6222.87 879.451 6264.48 983.146 6307.67 1069.52C6351.3 1155.45 6391.12 1215.95 6427.11 1251.04C6449.6 1273.09 6463.55 1288.38 6468.94 1296.93C6474.79 1305.03 6477.72 1314.7 6477.72 1325.95C6477.72 1345.74 6470.97 1362.39 6457.47 1375.88C6444.43 1389.83 6428.68 1396.8 6410.24 1396.8C6352.65 1396.8 6282.92 1306.15 6201.05 1124.85C6168.21 1053.33 6148.41 1017.56 6141.66 1017.56C6120.07 1017.56 6073.51 1024.08 6001.98 1037.13C5930.9 1050.18 5865.89 1065.47 5806.96 1083.02C5773.22 1093.36 5751.85 1098.54 5742.85 1098.54C5731.61 1098.54 5719.91 1092.91 5707.76 1081.67C5705.52 1079.87 5702.82 1078.97 5699.67 1078.97C5689.77 1078.97 5668.4 1108.21 5635.56 1166.69C5581.58 1263.41 5547.39 1321.22 5532.99 1340.12C5519.04 1358.56 5503.52 1367.78 5486.43 1367.78C5474.28 1367.78 5459.66 1360.59 5442.57 1346.19C5425.47 1332.24 5416.92 1317.85 5416.92 1303C5416.92 1288.61 5425.02 1269.26 5441.22 1244.97C5457.41 1220.23 5490.48 1170.74 5540.41 1096.51C5629.49 964.701 5704.62 840.987 5765.8 725.37C5862.52 541.373 5923.93 432.955 5950.02 400.114C5976.11 366.824 5996.13 350.179 6010.08 350.179C6039.77 350.179 6062.04 358.276 6076.88 374.472ZM6118.05 910.941C6102.3 874.952 6079.13 809.046 6048.54 713.224C6015.25 611.103 5994.11 549.021 5985.11 526.978C5960.37 579.162 5922.13 653.166 5870.39 748.988L5748.25 980.446C5757.7 973.248 5782.67 967.4 5823.16 962.901C5854.2 959.752 5881.19 955.703 5904.13 950.755C6026.95 926.012 6098.25 912.741 6118.05 910.941Z" fill="black"/>
<path d="M5697.64 1122.16C5689.99 1141.05 5666.38 1182.89 5626.79 1247.67C5587.65 1312 5560.43 1347.76 5545.14 1354.96C5529.84 1362.61 5516.35 1366.43 5504.65 1366.43C5488.45 1366.43 5468.88 1357.66 5445.94 1340.12C5423.45 1322.12 5412.2 1303.68 5412.2 1284.78C5412.2 1267.24 5468.66 1172.54 5581.58 1000.69C5643.21 906.668 5699.44 813.545 5750.28 721.321C5852.4 535.075 5914.7 426.882 5937.2 396.74C5960.14 366.149 5983.53 350.854 6007.38 350.854C6045.62 350.854 6073.28 360.751 6090.38 380.545C6098.93 386.843 6103.2 401.914 6103.2 425.757C6103.2 443.302 6101.63 457.473 6098.48 468.27C6180.8 719.297 6245.13 896.995 6291.47 1001.37C6338.26 1105.29 6385.04 1180.64 6431.83 1227.42C6455.22 1250.82 6469.39 1266.56 6474.34 1274.66C6479.74 1282.76 6482.44 1293.56 6482.44 1307.05C6482.44 1331.79 6473.44 1352.49 6455.45 1369.13C6437.45 1386.23 6416.08 1394.78 6391.34 1394.78C6357.15 1394.78 6322.29 1374.98 6286.75 1335.39C6251.66 1295.81 6218.37 1241.37 6186.88 1172.09C6155.83 1102.81 6140.31 1063.9 6140.31 1055.35C6140.31 1053.55 6139.19 1052.65 6136.94 1052.65C6112.65 1052.65 6058.44 1061.2 5974.31 1078.29C5890.64 1095.39 5823.38 1112.03 5772.55 1128.23C5759.5 1132.28 5748.03 1134.3 5738.13 1134.3C5720.59 1134.3 5707.09 1130.25 5697.64 1122.16ZM6086.33 915.665C6075.53 889.123 6043.59 794.65 5990.51 632.247C5985.56 617.401 5982.19 607.954 5980.39 603.905L5788.74 968.3C5817.08 963.351 5846.1 958.853 5875.79 954.804C5895.59 952.554 5945.97 943.107 6026.95 926.462C6046.74 922.413 6066.54 918.814 6086.33 915.665Z" fill="black"/>
<path d="M4565.78 1159.82C4565.78 1150.82 4572.53 1095.94 4586.02 995.17C4599.52 893.949 4612.34 776.533 4624.49 642.922C4636.63 508.861 4644.28 433.957 4647.43 418.212C4651.03 402.466 4658.23 389.645 4669.03 379.748C4680.27 369.851 4697.59 364.902 4720.99 364.902C4735.83 364.902 4749.1 371.201 4760.8 383.797C4772.5 396.393 4778.34 410.114 4778.34 424.96C4778.34 444.304 4774.29 475.795 4766.2 519.433C4754.5 579.265 4737.41 700.73 4714.91 883.827C4692.87 1066.92 4681.85 1170.62 4681.85 1194.91C4681.85 1210.66 4684.1 1221.45 4688.59 1227.3C4693.54 1232.7 4702.54 1235.4 4715.59 1235.4C4736.73 1235.4 4786.67 1228.88 4865.39 1215.83C4913.98 1208.18 5005.75 1200.76 5140.71 1193.56C5165.01 1192.66 5194.92 1187.49 5230.46 1178.04C5237.21 1176.24 5242.16 1175.34 5245.31 1175.34C5262.4 1175.34 5275.9 1180.97 5285.8 1192.21C5295.69 1203.46 5300.64 1216.96 5300.64 1232.7C5300.64 1258.34 5290.75 1278.81 5270.95 1294.11C5251.16 1308.95 5229.11 1316.38 5204.82 1316.38C5195.37 1316.38 5176.7 1315.03 5148.81 1312.33C5120.47 1310.08 5099.33 1308.95 5085.38 1308.95C4938.72 1308.95 4797.24 1331.9 4660.93 1377.78C4637.98 1385.43 4617.29 1389.26 4598.85 1389.26C4578.6 1389.26 4562.86 1380.48 4551.61 1362.94C4540.81 1345.39 4535.41 1328.3 4535.41 1311.65C4535.41 1301.76 4539.69 1280.16 4548.24 1246.87C4557.68 1207.73 4563.53 1178.72 4565.78 1159.82Z" fill="black"/>
<path d="M5185.93 1317.73C5175.13 1317.73 5156.46 1316.38 5129.92 1313.68C5103.37 1311.43 5083.81 1310.3 5071.21 1310.3C4948.39 1310.3 4829.18 1328.52 4713.56 1364.96C4665.88 1380.26 4631.91 1387.91 4611.67 1387.91C4584.22 1387.91 4562.86 1377.11 4547.56 1355.52C4532.26 1333.92 4524.62 1313.23 4524.62 1293.43C4524.62 1285.34 4528.67 1264.64 4536.76 1231.35C4547.11 1189.96 4555.43 1142.73 4561.73 1089.64L4622.46 530.229C4627.41 477.145 4631.69 442.73 4635.29 426.984C4639.33 411.239 4649.23 397.068 4664.98 384.472C4680.72 371.875 4702.09 365.577 4729.08 365.577C4750.68 365.577 4769.57 373.675 4785.77 389.87C4801.96 406.065 4810.06 423.61 4810.06 442.505C4810.06 459.6 4806.01 490.191 4797.91 534.278C4786.22 597.26 4769.8 718.275 4748.65 897.323C4727.51 1076.37 4716.94 1171.07 4716.94 1181.42C4716.94 1194.46 4719.19 1200.99 4723.68 1200.99C4740.78 1200.99 4787.79 1194.91 4864.72 1182.77C4900.71 1176.92 4937.15 1173.09 4974.04 1171.29C5079.31 1166.35 5153.09 1158.7 5195.37 1148.35C5208.87 1145.2 5218.77 1143.63 5225.06 1143.63C5249.81 1143.63 5269.15 1151.05 5283.1 1165.9C5297.04 1180.29 5304.02 1197.61 5304.02 1217.86C5304.02 1248 5291.87 1272.29 5267.58 1290.73C5243.73 1308.73 5216.52 1317.73 5185.93 1317.73Z" fill="black"/>
<g clip-path="url(#clip1)">
<path d="M4083.07 1176.83L4067.52 941.469C4066.91 931.841 4053.94 924.895 4046.99 930.428L4037.42 938.045C4030.89 943.236 4018.74 937.411 4017.05 928.241L3990.46 784.509C3988.77 775.339 3976.66 769.482 3970.1 774.705L3938.1 800.165C3931.65 805.294 3911.55 815.975 3917.79 790.635L3917.79 790.635C3915.86 781.575 3773.61 716.349 3855.99 888.905C3861.77 884.304 3871.73 885.329 3874.99 893.408L3929.8 1028.49C3933.07 1036.57 3943.71 1040.63 3949.49 1036.02L3976.8 1014.29C3982.58 1009.69 3993.1 1013.69 3996.44 1021.71L4060.51 1176.48C4065.56 1188.75 4083.88 1189.03 4083.07 1176.83Z" fill="black"/>
<path d="M4296.92 533.158C4301.79 536.456 4305.95 540.853 4308.9 545.948C4509.95 893.559 4275.66 1292.26 3913.6 1322.37C3909.93 1322.68 3906.2 1322.43 3902.6 1321.68C3858.14 1312.44 3861.38 1247.91 3906.54 1243.17L3913.21 1242.47C4037.58 1230.65 4168.92 1161.33 4245.32 1027.98C4321.71 894.644 4323.83 728.292 4240.58 588.946L4238.61 585.153C4219.27 548.059 4262.27 509.71 4296.92 533.158Z" fill="#28A528"/>
<path d="M4121.59 365.705C4133.96 372.656 4141.72 385.644 4141.98 399.832C4142.54 430.536 4109.7 450.378 4082.78 435.607L4075.58 431.66L4069.72 428.559L4063.07 425.164L4056.34 421.891L4049.47 418.695L4042.59 415.637L4035.68 412.707L4028.6 409.852L4025 408.461L4021.36 407.09L4017.77 405.766L4014.16 404.48L4007.09 402.063L4000.16 399.824L3993.32 397.742L3989.29 396.574L3985.19 395.43L3978.17 393.57L3974.82 392.727L3971.5 391.922L3963.97 390.195L3959.93 389.328L3955.87 388.492L3951.83 387.707L3947.78 386.957L3944.12 386.313L3940.4 385.691L3933.06 384.572L3929.32 384.051L3925.6 383.558L3918.08 382.68L3910.79 381.941L3907.08 381.621L3903.35 381.324L3895.83 380.832L3892.08 380.633L3888.34 380.465L3884.65 380.336L3880.85 380.23L3877.14 380.164L3873.44 380.133L3869.41 380.133L3865.91 380.152L3862.14 380.203L3858.42 380.293L3850.87 380.57L3843.5 380.966L3828.25 382.191L3824.46 382.575L3820.78 382.992L3817.15 383.426L3813.53 383.887L3810.05 384.363L3806.58 384.867L3803.12 385.394L3799.66 385.953L3795.71 386.625L3791.77 387.332L3787.83 388.094L3783.91 388.867L3778 390.117L3772.14 391.441L3766.26 392.859L3760.4 394.363L3724.57 405.529C3696.84 414.17 3669.44 391.296 3672.99 362.47C3674.86 347.319 3685.19 334.553 3699.62 329.57L3715.11 324.222L3723.91 321.504L3728.33 320.203L3732.69 318.966L3736.59 317.89L3740.44 316.867L3744.31 315.867L3748.2 314.894L3752.06 313.957L3755.86 313.07L3759.8 312.183L3763.6 311.355L3767.06 310.637L3770.48 309.941L3773.92 309.269L3777.39 308.621L3780.8 308.004L3784.19 307.418L3787.58 306.844L3791.09 306.285L3794.67 305.742L3798.36 305.203L3805.56 304.238L3812.78 303.367L3816.71 302.941L3820.39 302.566L3824.16 302.211L3827.74 301.902L3831.35 301.613L3834.91 301.355L3838.62 301.113L3842.34 300.894L3845.91 300.711L3849.61 300.547L3853.22 300.414L3856.96 300.297L3858.81 300.25L3860.55 300.219L3862.39 300.187L3864.46 300.152L3867.98 300.121L3870.24 300.121L3874.49 300.121L3878.8 300.176L3882.39 300.246L3886.11 300.34L3893.58 300.613L3897.37 300.792L3901.08 300.996L3904.67 301.215L3908.26 301.465L3912.03 301.75L3915.78 302.059L3919.55 302.406L3923.26 302.77L3927.66 303.234L3932.05 303.742L3935.28 304.137L3938.45 304.543L3942.07 305.039L3945.68 305.549L3949.53 306.129L3951.47 306.434L3953.39 306.738L3957.22 307.375L3961 308.035L3964.8 308.723L3968.58 309.438L3972.22 310.156L3975.86 310.902L3979.49 311.676L3983.03 312.449L3986.73 313.293L3990.37 314.152L3994.05 315.047L3997.58 315.934C3997.63 315.947 3997.68 315.959 3997.73 315.972C3998.55 316.181 4006.11 318.108 4011.41 319.654C4013.89 320.379 4017.49 321.444 4018.73 321.813C4019.03 321.901 4019.33 321.991 4019.63 322.083L4026.84 324.315L4033.48 326.492L4040.1 328.766L4043.7 330.039L4047.3 331.344L4051.73 332.992L4056.15 334.695L4060.07 336.23L4063.94 337.789L4071.64 340.996L4079.33 344.363L4083.11 346.066L4086.89 347.816L4090.32 349.422L4093.76 351.074L4097.13 352.727L4100.49 354.391L4107.17 357.82L4113.82 361.339L4121.59 365.705Z" fill="#D0D000"/>
<path d="M3493.61 466.575C3506.54 457.456 3523.82 456.739 3537.36 464.931C3557.72 477.243 3562.83 504.529 3548.3 523.369L3537.72 537.103L3535.28 540.062L3532.9 543.02L3530.54 546.016L3528.21 549.012L3525.9 552.047L3523.61 555.105L3522.48 556.637L3521.36 558.18L3519.12 561.283L3514.76 567.496L3510.54 573.756L3506.43 580.059L3504.42 583.234L3502.42 586.472L3500.42 589.753L3498.48 593.019L3496.56 596.316L3494.68 599.593L3492.81 602.937L3490.97 606.288L3489.15 609.679L3487.37 613.046L3483.88 619.898L3483.02 621.655L3482.18 623.355L3480.53 626.796L3477.3 633.749L3475.74 637.218L3474.21 640.722L3469.83 651.365C3460.16 674.87 3431.09 683.391 3410.04 669.155C3395.22 659.136 3388.84 640.292 3394.72 623.399L3400.32 609.871L3403.25 603.179L3404.75 599.847L3406.29 596.523L3409.49 589.761L3411.13 586.402L3412.81 583.023L3414.49 579.703L3416.2 576.378L3417.94 573.062L3418.81 571.414L3419.7 569.753L3421.47 566.492L3422.37 564.859L3423.28 563.23L3425.09 560.004L3426.94 556.762L3427.86 555.171L3428.82 553.539L3430.73 550.308L3432.65 547.101L3434.62 543.886L3436.64 540.629L3438.69 537.379L3441.09 533.656L3442.88 530.918L3444.98 527.754L3447.12 524.578L3451.49 518.26L3453.68 515.16L3455.89 512.086L3460.4 505.968L3464.97 499.933L3467.31 496.914L3469.66 493.918L3474.43 488.027L3476.84 485.097L3479.27 482.199L3484.9 474.904C3487.36 471.719 3490.32 468.893 3493.61 466.575Z" fill="#FD7700"/>
<ellipse cx="3398.82" cy="817.117" rx="40" ry="40" fill="#FF0000"/>
</g>
<path d="M2936.37 1151.72C2770.82 1281.74 2621.24 1346.74 2487.63 1346.74C2412.05 1346.74 2351.99 1324.47 2307.45 1279.94C2262.92 1234.95 2240.65 1172.87 2240.65 1093.69C2240.65 903.396 2321.85 725.923 2484.25 561.271C2646.66 396.168 2814.91 313.617 2989.01 313.617C3040.29 313.617 3081.23 322.84 3111.82 341.284C3142.86 359.729 3158.38 383.122 3158.38 411.464C3158.38 436.207 3148.94 463.649 3130.04 493.79C3111.6 523.481 3093.6 538.327 3076.06 538.327C3064.36 538.327 3054.69 529.105 3047.04 510.66C3034.44 481.419 3020.72 461.174 3005.88 449.928C2991.03 438.681 2968.31 433.058 2937.72 433.058C2859.44 433.058 2771.49 470.397 2673.87 545.075C2576.25 619.754 2499.1 705.454 2442.42 802.176C2386.18 898.448 2358.06 991.796 2358.06 1082.22C2358.06 1187.49 2406.43 1240.12 2503.15 1240.12C2547.68 1240.12 2598.97 1229.1 2657 1207.06C2715.49 1184.57 2777.79 1150.82 2843.92 1105.84C2910.5 1060.4 2950.77 1020.59 2964.71 986.397C2979.11 952.207 2990.36 905.646 2998.45 846.713C3002.95 814.772 3026.35 798.802 3068.63 798.802C3114.07 798.802 3136.79 812.748 3136.79 840.64C3136.79 853.236 3130.04 875.729 3116.54 908.12C3094.5 960.305 3078.08 1007.77 3067.28 1050.5C3056.49 1093.24 3046.59 1142.73 3037.59 1198.96C3029.05 1255.19 3024.77 1295.23 3024.77 1319.08C3024.77 1340.22 3028.82 1371.49 3036.92 1412.87C3038.27 1421.42 3038.94 1428.62 3038.94 1434.47C3038.94 1450.21 3032.87 1465.51 3020.72 1480.35C3009.03 1495.2 2994.41 1502.62 2976.86 1502.62C2957.52 1502.62 2938.4 1494.98 2919.5 1479.68C2901.06 1464.83 2891.83 1448.19 2891.83 1429.74C2891.83 1415.35 2902.18 1350.79 2922.88 1236.08C2929.17 1200.09 2933.67 1171.97 2936.37 1151.72Z" fill="black"/>
<path d="M3085.5 1016.76H3086.18C3075.38 1053.65 3064.58 1103.36 3053.79 1165.9C3042.99 1227.98 3037.59 1272.96 3037.59 1300.86C3037.59 1352.59 3037.14 1388.36 3036.24 1408.15C3035.79 1427.94 3031.74 1444.14 3024.1 1456.74C3016.45 1469.33 3006.55 1479 2994.41 1485.75C2982.26 1492.95 2968.54 1496.55 2953.24 1496.55C2928.95 1496.55 2906.46 1488 2885.76 1470.91C2865.52 1453.81 2855.4 1433.79 2855.4 1410.85C2855.4 1403.2 2861.69 1370.36 2874.29 1312.33C2885.54 1260.59 2894.53 1216.28 2901.28 1179.39C2750.58 1290.96 2615.61 1346.74 2496.4 1346.74C2415.87 1346.74 2351.77 1323.35 2304.08 1276.56C2256.84 1229.78 2233.23 1165.67 2233.23 1084.24C2233.23 955.581 2271.91 832.092 2349.29 713.776V714.451C2431.62 591.187 2528.79 494.015 2640.81 422.936C2753.28 351.856 2865.52 316.316 2977.54 316.316C3035.57 316.316 3081.46 327.113 3115.2 348.707C3148.94 369.851 3165.81 396.843 3165.81 429.684C3165.81 457.126 3154.11 487.492 3130.72 520.782C3107.77 554.073 3084.6 570.718 3061.21 570.718C3046.37 570.718 3035.34 567.794 3028.15 561.945C3020.95 555.647 3013.52 543.501 3005.88 525.506C2997.33 505.262 2987.43 491.091 2976.19 482.993C2965.39 474.446 2949.42 470.172 2928.27 470.172C2859.89 470.172 2781.62 503.912 2693.44 571.393C2605.72 638.423 2534.41 718.05 2479.53 810.273C2425.1 902.047 2397.88 989.771 2397.88 1073.45C2397.88 1161.62 2435.67 1205.71 2511.25 1205.71C2550.38 1205.71 2597.17 1195.59 2651.6 1175.34C2706.04 1155.1 2764.07 1123.38 2825.7 1080.2C2887.34 1037.01 2924.23 997.644 2936.37 962.104C2948.97 926.565 2958.42 887.426 2964.71 844.688C2968.31 819.496 2977.54 802.851 2992.38 794.753C3007.68 786.205 3028.15 781.932 3053.79 781.932C3112.72 781.932 3142.19 801.951 3142.19 841.989C3142.19 857.735 3134.54 883.377 3119.24 918.917C3107.1 945.909 3095.85 978.525 3085.5 1016.76Z" fill="black"/>
<path d="M1752.55 456.001C1749.85 473.546 1734.78 536.303 1707.34 644.271C1694.29 695.107 1685.74 737.844 1681.7 772.484C1679 795.878 1675.62 821.295 1671.57 848.737C1653.58 963.904 1644.58 1042.63 1644.58 1084.92C1644.58 1148.35 1648.4 1210.66 1656.05 1271.84C1660.55 1307.38 1654.25 1333.02 1637.16 1348.77C1620.06 1364.51 1602.97 1372.39 1585.87 1372.39C1561.58 1372.39 1544.71 1358.89 1535.26 1331.9C1525.82 1304.46 1521.09 1260.37 1521.09 1199.64C1521.09 1136.2 1530.09 1048.48 1548.08 936.462C1554.38 894.174 1557.98 868.757 1558.88 860.209C1559.78 844.913 1561.58 829.168 1564.28 812.973C1566.53 797.227 1568.33 781.482 1569.68 765.736C1572.38 723.898 1580.47 669.239 1593.97 601.759C1603.87 550.924 1611.07 506.161 1615.56 467.473C1618.71 440.48 1622.31 422.261 1626.36 412.813C1630.41 403.366 1640.76 393.019 1657.4 381.772C1674.5 370.526 1687.32 364.902 1695.87 364.902C1714.76 364.902 1728.93 374.125 1738.38 392.569C1747.83 410.564 1752.55 431.708 1752.55 456.001Z" fill="black"/>
<path d="M1724.88 680.711C1714.99 721.649 1708.69 754.265 1705.99 778.558C1705.99 791.604 1701.49 825.119 1692.49 879.104C1677.65 975.376 1670.22 1041.06 1670.22 1076.15C1670.22 1135.53 1673.82 1194.01 1681.02 1251.6C1686.42 1293.43 1677.87 1324.02 1655.38 1343.37C1632.88 1362.26 1610.39 1371.71 1587.9 1371.71C1555.96 1371.71 1533.24 1357.99 1519.74 1330.55C1506.25 1302.66 1499.5 1254.52 1499.5 1186.14C1499.5 1143.85 1510.07 1043.08 1531.21 883.827L1568.33 619.979C1575.98 581.29 1581.6 545.3 1585.2 512.01C1590.6 462.974 1597.12 432.833 1604.77 421.586C1612.87 409.889 1627.04 397.743 1647.28 385.146C1667.52 372.1 1682.82 365.577 1693.17 365.577C1719.26 365.577 1739.05 376.149 1752.55 397.293C1766.5 418.437 1773.47 444.304 1773.47 474.896L1724.88 680.711Z" fill="black"/>
<path d="M313.651 396.618C445.913 375.024 542.41 364.228 603.143 364.228C698.065 364.228 773.868 386.721 830.552 431.708C887.235 476.695 915.577 533.154 915.577 601.084C915.577 669.014 885.436 733.121 825.153 793.403C765.321 853.236 689.967 900.247 599.094 934.438C587.847 938.936 582.224 943.66 582.224 948.608C582.224 956.256 628.56 996.07 721.233 1068.05C814.356 1139.58 899.832 1199.41 977.659 1247.55C999.703 1261.04 1010.72 1278.81 1010.72 1300.86C1010.72 1315.25 1003.08 1329.65 987.781 1344.04C972.936 1357.99 958.99 1364.96 945.943 1364.96C919.401 1364.96 876.888 1342.92 818.405 1298.83C760.372 1254.74 700.09 1206.16 637.558 1153.07C502.147 1039.26 426.569 981.899 410.823 980.999C380.232 980.099 358.638 975.826 346.042 968.178C333.446 960.53 327.147 946.809 327.147 927.015C327.147 909.92 335.245 895.074 351.44 882.478C367.636 869.431 386.755 862.908 408.799 862.908C416.447 862.908 428.593 864.033 445.238 866.282C461.883 868.981 474.255 870.331 482.353 870.331C518.342 870.331 579.749 843.564 666.574 790.029C753.849 736.495 797.486 673.513 797.486 601.084C797.486 562.845 777.917 530.005 738.778 502.562C700.09 475.12 650.604 461.399 590.321 461.399C545.334 461.399 500.347 464.549 455.36 470.847C410.373 477.145 381.582 482.543 368.985 487.042C356.839 491.541 346.942 503.237 339.294 522.132C331.646 540.576 318.825 599.959 300.83 700.28C282.835 800.601 268.664 895.299 258.317 984.373C248.42 1073.45 243.472 1138.9 243.472 1180.74C243.472 1213.13 245.721 1241.25 250.22 1265.09C254.269 1288.93 256.293 1308.05 256.293 1322.45C256.293 1335.95 249.095 1349.89 234.699 1364.29C220.753 1378.68 205.458 1385.88 188.812 1385.88C141.576 1385.88 117.958 1347.64 117.958 1271.17C117.958 1090.77 149.674 850.762 213.105 551.148C216.255 535.403 217.829 526.181 217.829 523.481C217.829 520.782 216.255 516.733 213.105 511.335C195.111 482.993 186.113 464.099 186.113 454.651C186.113 437.556 194.436 422.711 211.081 410.114C227.726 397.518 242.797 391.22 256.293 391.22L313.651 396.618Z" fill="black"/>
<path d="M205.683 536.978L196.91 521.457C182.514 498.964 175.316 482.318 175.316 471.521C175.316 449.928 186.338 431.258 208.382 415.513C230.425 399.317 250.445 391.22 268.439 391.22C276.537 391.22 286.884 391.895 299.48 393.244C312.077 395.044 319.725 395.943 322.424 395.943C455.135 375.249 548.258 364.902 601.793 364.902C702.114 364.902 781.291 388.745 839.324 436.432C897.807 483.668 927.049 542.151 927.049 611.881C927.049 678.462 898.257 741.668 840.674 801.501C783.54 861.334 706.838 910.369 610.565 948.608C770.719 1078.17 892.184 1167.25 974.96 1215.83C1004.2 1233.38 1018.82 1255.87 1018.82 1283.31C1018.82 1301.31 1008.48 1319.3 987.781 1337.3C967.537 1355.29 948.418 1364.29 930.423 1364.29C904.33 1364.29 874.639 1353.04 841.349 1330.55C808.058 1308.05 761.047 1272.74 700.314 1224.6C639.582 1176.02 604.492 1147 595.045 1137.55C509.57 1066.02 447.938 1018.56 410.148 995.17C362.462 995.17 338.619 971.552 338.619 924.315C338.619 902.272 349.191 883.377 370.335 867.632C391.479 851.437 415.547 843.339 442.539 843.339C450.187 843.339 458.509 844.464 467.507 846.713C476.054 849.412 482.128 850.762 485.727 850.762C514.518 850.762 567.828 826.694 645.655 778.558C723.483 730.422 762.396 674.863 762.396 611.881C762.396 580.39 745.976 553.398 713.136 530.904C680.745 508.411 639.357 497.164 588.972 497.164C529.139 497.164 480.778 500.763 443.889 507.961C407.449 515.159 387.43 520.332 383.831 523.481C380.682 526.181 376.633 533.154 371.685 544.4C367.186 555.647 357.289 601.984 341.993 683.41C327.147 764.387 313.426 853.461 300.83 950.633C288.234 1047.35 281.936 1118.66 281.936 1164.55C281.936 1193.79 284.185 1220.1 288.684 1243.5C292.732 1266.89 294.757 1287.14 294.757 1304.23C294.757 1320.43 285.085 1337.75 265.74 1356.19C246.846 1375.08 226.152 1384.53 203.658 1384.53C141.126 1384.53 109.86 1341.34 109.86 1254.97C109.86 1184.79 117.508 1086.49 132.804 960.08C148.549 833.667 166.994 722.549 188.138 626.727C191.287 611.431 193.986 597.71 196.235 585.563L205.683 536.978Z" fill="black"/>
</g>
<defs>
<clipPath id="clip0">
<path d="M0 0.558594H7702V1670.56H0V0.558594Z" fill="white"/>
</clipPath>
<clipPath id="clip1">
</clipPath>
</defs>
</svg>
