<?xml version="1.0" encoding="UTF-8" standalone="no"?>
<svg width="513" height="112" viewBox="0 0 513 112" fill="none" xmlns="http://www.w3.org/2000/svg">
<path d="M500.867 30.1897C500.777 30.4587 500.134 30.9518 498.938 31.669C498.011 32.2069 496.86 33.3275 495.483 35.0309C494.437 36.3158 493.241 37.6755 491.895 39.11L486.422 45.2959C479.933 52.7369 474.744 58.3401 470.856 62.1054C469.6 63.3307 468.239 64.7053 466.774 66.2294L453.361 79.8116C453.302 80.3796 453.675 80.6632 454.483 80.6632C457.115 80.6632 463.111 80.2002 472.471 79.2736C474.266 79.0942 475.791 79.0045 477.047 79.0045C479.29 79.0045 481.144 78.9448 482.609 78.8252C484.075 78.7056 485.346 78.6458 486.422 78.6458C494.258 78.6458 498.175 80.3942 498.175 83.8909C498.175 86.7892 497.084 88.2386 494.9 88.2386C493.853 88.2386 492.971 88.1489 492.254 87.9696C488.426 87.0137 484.448 86.5354 480.322 86.5354C478.228 86.5354 471.933 86.8642 461.436 87.5212L458.565 87.7005C452.434 88.0891 447.201 88.8663 442.865 90.0315C440.353 90.719 438.887 91.0624 438.468 91.0624C436.554 91.0624 435.598 89.9717 435.598 87.7902C435.598 85.6685 436.195 84.1593 437.392 83.2632C443.552 78.7807 452.464 70.6971 464.127 59.0125C475.791 47.328 483.581 38.7962 487.499 33.4172L486.422 33.3723C483.91 33.2827 479.051 33.5815 471.843 34.2688C470.288 34.4183 468.673 34.5527 466.998 34.6722C465.384 34.7918 464.023 34.9113 462.916 35.0309C459.058 35.4492 455.918 35.6584 453.496 35.6584C449.967 35.6584 447.455 35.1504 445.96 34.1344C444.494 33.1183 443.762 31.9678 443.762 30.6828C443.762 29.9058 444.18 29.0093 445.018 27.9933C445.855 26.9772 446.528 26.4692 447.036 26.4692C447.395 26.4692 448.053 26.6336 449.01 26.9623C450.027 27.3508 450.879 27.5451 451.567 27.5451C454.319 27.5451 456.83 27.5898 459.103 27.6795C461.376 27.7393 464.396 27.6197 468.165 27.3209C471.873 27.0221 475.461 26.8129 478.931 26.6933C483.686 26.5738 488.561 26.0508 493.554 25.1244C496.126 24.6463 498.085 24.4072 499.431 24.4072C500.807 24.4072 501.495 25.3336 501.495 27.1864C501.495 28.5611 501.285 29.5622 500.867 30.1897Z" fill="black"/>
<path d="M500.867 30.1897C500.777 30.4587 500.134 30.9518 498.938 31.669C498.011 32.2069 496.86 33.3275 495.483 35.0309C494.437 36.3158 493.241 37.6755 491.895 39.11L486.422 45.2959C479.933 52.7369 474.744 58.3401 470.856 62.1054C469.6 63.3307 468.239 64.7053 466.774 66.2294L453.361 79.8116C453.302 80.3796 453.675 80.6632 454.483 80.6632C457.115 80.6632 463.111 80.2002 472.471 79.2736C474.266 79.0942 475.791 79.0045 477.047 79.0045C479.29 79.0045 481.144 78.9448 482.609 78.8252C484.075 78.7056 485.346 78.6458 486.422 78.6458C494.258 78.6458 498.175 80.3942 498.175 83.8909C498.175 86.7892 497.084 88.2386 494.9 88.2386C493.853 88.2386 492.971 88.1489 492.254 87.9696C488.426 87.0137 484.448 86.5354 480.322 86.5354C478.228 86.5354 471.933 86.8642 461.436 87.5212L458.565 87.7005C452.434 88.0891 447.201 88.8663 442.865 90.0315C440.353 90.719 438.887 91.0624 438.468 91.0624C436.554 91.0624 435.598 89.9717 435.598 87.7902C435.598 85.6685 436.195 84.1593 437.392 83.2632C443.552 78.7807 452.464 70.6971 464.127 59.0125C475.791 47.328 483.581 38.7962 487.499 33.4172L486.422 33.3723C483.91 33.2827 479.051 33.5815 471.843 34.2688C470.288 34.4183 468.673 34.5527 466.998 34.6722C465.384 34.7918 464.023 34.9113 462.916 35.0309C459.058 35.4492 455.918 35.6584 453.496 35.6584C449.967 35.6584 447.455 35.1504 445.96 34.1344C444.494 33.1183 443.762 31.9678 443.762 30.6828C443.762 29.9058 444.18 29.0093 445.018 27.9933C445.855 26.9772 446.528 26.4692 447.036 26.4692C447.395 26.4692 448.053 26.6336 449.01 26.9623C450.027 27.3508 450.879 27.5451 451.567 27.5451C454.319 27.5451 456.83 27.5898 459.103 27.6795C461.376 27.7393 464.396 27.6197 468.165 27.3209C471.873 27.0221 475.461 26.8129 478.931 26.6933C483.686 26.5738 488.561 26.0508 493.554 25.1244C496.126 24.6463 498.085 24.4072 499.431 24.4072C500.807 24.4072 501.495 25.3336 501.495 27.1864C501.495 28.5611 501.285 29.5622 500.867 30.1897Z" fill="black"/>
<path d="M404.411 24.9912C404.68 25.2003 404.815 25.9325 404.815 27.1876C404.815 28.4726 404.68 29.4438 404.411 30.1012L404.994 31.9839C405.981 35.5102 406.953 38.4089 407.91 40.68C409.106 43.7282 410.287 47.0005 411.454 50.4968C414.116 58.5355 416.882 65.4237 419.753 71.1613C422.653 76.8694 425.3 80.8883 427.693 83.2192C429.188 84.6839 430.115 85.6996 430.473 86.2676C430.862 86.8056 431.057 87.448 431.057 88.1953C431.057 89.5099 430.608 90.6159 429.711 91.512C428.844 92.4387 427.797 92.9016 426.571 92.9016C422.743 92.9016 418.107 86.88 412.665 74.8367C410.482 70.0859 409.166 67.7098 408.717 67.7098C407.282 67.7098 404.187 68.1429 399.432 69.0097C394.707 69.8766 390.385 70.8923 386.467 72.0581C384.225 72.745 382.804 73.089 382.206 73.089C381.458 73.089 380.681 72.7151 379.873 71.9684C379.724 71.8489 379.545 71.7891 379.335 71.7891C378.677 71.7891 377.257 73.7314 375.073 77.6161C371.485 84.0409 369.212 87.8811 368.255 89.1366C367.328 90.3615 366.296 90.9739 365.16 90.9739C364.352 90.9739 363.38 90.4963 362.244 89.5398C361.107 88.6131 360.539 87.6572 360.539 86.6708C360.539 85.7149 361.078 84.4295 362.154 82.816C363.231 81.1726 365.429 77.8851 368.748 72.9542C374.67 64.1985 379.664 55.9805 383.731 48.3004C390.161 36.0779 394.243 28.876 395.978 26.6945C397.712 24.4831 399.043 23.3774 399.97 23.3774C401.944 23.3774 403.424 23.9153 404.411 24.9912ZM407.148 60.6273C406.101 58.2367 404.56 53.8587 402.527 47.4935C400.314 40.7099 398.908 36.586 398.31 35.1217C396.666 38.5882 394.124 43.504 390.684 49.8692L382.565 65.2444C383.193 64.7662 384.853 64.3778 387.544 64.0789C389.608 63.8697 391.402 63.6008 392.927 63.2721C401.092 61.6285 405.831 60.7469 407.148 60.6273Z" fill="black"/>
<path d="M404.411 24.9912C404.68 25.2003 404.815 25.9325 404.815 27.1876C404.815 28.4726 404.68 29.4438 404.411 30.1012L404.994 31.9839C405.981 35.5102 406.953 38.4089 407.91 40.68C409.106 43.7282 410.287 47.0005 411.454 50.4968C414.116 58.5355 416.882 65.4237 419.753 71.1613C422.653 76.8694 425.3 80.8883 427.693 83.2192C429.188 84.6839 430.115 85.6996 430.473 86.2676C430.862 86.8056 431.057 87.448 431.057 88.1953C431.057 89.5099 430.608 90.6159 429.711 91.512C428.844 92.4387 427.797 92.9016 426.571 92.9016C422.743 92.9016 418.107 86.88 412.665 74.8367C410.482 70.0859 409.166 67.7098 408.717 67.7098C407.282 67.7098 404.187 68.1429 399.432 69.0097C394.707 69.8766 390.385 70.8923 386.467 72.0581C384.225 72.745 382.804 73.089 382.206 73.089C381.458 73.089 380.681 72.7151 379.873 71.9684C379.724 71.8489 379.545 71.7891 379.335 71.7891C378.677 71.7891 377.257 73.7314 375.073 77.6161C371.485 84.0409 369.212 87.8811 368.255 89.1366C367.328 90.3615 366.296 90.9739 365.16 90.9739C364.352 90.9739 363.38 90.4963 362.244 89.5398C361.107 88.6131 360.539 87.6572 360.539 86.6708C360.539 85.7149 361.078 84.4295 362.154 82.816C363.231 81.1726 365.429 77.8851 368.748 72.9542C374.67 64.1985 379.664 55.9805 383.731 48.3004C390.161 36.0779 394.243 28.876 395.978 26.6945C397.712 24.4831 399.043 23.3774 399.97 23.3774C401.944 23.3774 403.424 23.9153 404.411 24.9912ZM407.148 60.6273C406.101 58.2367 404.56 53.8587 402.527 47.4935C400.314 40.7099 398.908 36.586 398.31 35.1217C396.666 38.5882 394.124 43.504 390.684 49.8692L382.565 65.2444C383.193 64.7662 384.853 64.3778 387.544 64.0789C389.608 63.8697 391.402 63.6008 392.927 63.2721C401.092 61.6285 405.831 60.7469 407.148 60.6273Z" fill="black"/>
<path d="M303.952 77.1578C303.952 76.5599 304.401 72.9144 305.298 66.2205C306.195 59.4967 307.048 51.6971 307.855 42.8216C308.662 33.9163 309.171 28.9407 309.38 27.8948C309.62 26.8488 310.098 25.9971 310.816 25.3397C311.563 24.6823 312.715 24.3535 314.27 24.3535C315.257 24.3535 316.139 24.7719 316.917 25.6087C317.694 26.4454 318.083 27.3568 318.083 28.343C318.083 29.628 317.813 31.7198 317.276 34.6186C316.498 38.5931 315.362 46.6617 313.866 58.8243C312.401 70.9867 311.668 77.8752 311.668 79.4887C311.668 80.5349 311.818 81.2517 312.116 81.6403C312.445 81.999 313.044 82.1784 313.911 82.1784C315.317 82.1784 318.636 81.7452 323.869 80.8784C327.1 80.3702 333.2 79.8773 342.172 79.399C343.787 79.3393 345.775 78.9958 348.138 78.3681C348.587 78.2485 348.916 78.1887 349.125 78.1887C350.261 78.1887 351.159 78.5627 351.817 79.3094C352.474 80.0567 352.803 80.9534 352.803 81.999C352.803 83.7022 352.146 85.062 350.83 86.0783C349.514 87.0641 348.048 87.5576 346.433 87.5576C345.805 87.5576 344.564 87.468 342.71 87.2886C340.826 87.1391 339.421 87.0641 338.494 87.0641C328.744 87.0641 319.339 88.5886 310.278 91.6363C308.752 92.1444 307.377 92.3989 306.151 92.3989C304.805 92.3989 303.758 91.8156 303.01 90.6505C302.293 89.4847 301.934 88.3495 301.934 87.2434C301.934 86.5865 302.218 85.1516 302.786 82.9403C303.414 80.3403 303.803 78.4132 303.952 77.1578Z" fill="black"/>
<path d="M303.952 77.1578C303.952 76.5599 304.401 72.9144 305.298 66.2205C306.195 59.4967 307.048 51.6971 307.855 42.8216C308.662 33.9163 309.171 28.9407 309.38 27.8948C309.62 26.8488 310.098 25.9971 310.816 25.3397C311.563 24.6823 312.715 24.3535 314.27 24.3535C315.257 24.3535 316.139 24.7719 316.917 25.6087C317.694 26.4454 318.083 27.3568 318.083 28.343C318.083 29.628 317.813 31.7198 317.276 34.6186C316.498 38.5931 315.362 46.6617 313.866 58.8243C312.401 70.9867 311.668 77.8752 311.668 79.4887C311.668 80.5349 311.818 81.2517 312.116 81.6403C312.445 81.999 313.044 82.1784 313.911 82.1784C315.317 82.1784 318.636 81.7452 323.869 80.8784C327.1 80.3702 333.2 79.8773 342.172 79.399C343.787 79.3393 345.775 78.9958 348.138 78.3681C348.587 78.2485 348.916 78.1887 349.125 78.1887C350.261 78.1887 351.159 78.5627 351.817 79.3094C352.474 80.0567 352.803 80.9534 352.803 81.999C352.803 83.7022 352.146 85.062 350.83 86.0783C349.514 87.0641 348.048 87.5576 346.433 87.5576C345.805 87.5576 344.564 87.468 342.71 87.2886C340.826 87.1391 339.421 87.0641 338.494 87.0641C328.744 87.0641 319.339 88.5886 310.278 91.6363C308.752 92.1444 307.377 92.3989 306.151 92.3989C304.805 92.3989 303.758 91.8156 303.01 90.6505C302.293 89.4847 301.934 88.3495 301.934 87.2434C301.934 86.5865 302.218 85.1516 302.786 82.9403C303.414 80.3403 303.803 78.4132 303.952 77.1578Z" fill="black"/>
<path d="M271.861 78.289L270.827 62.6546C270.787 62.0151 269.925 61.5537 269.463 61.9212L268.827 62.4272C268.392 62.772 267.585 62.3851 267.472 61.7759L265.705 52.2282C265.592 51.6191 264.787 51.23 264.351 51.577L262.224 53.2682C261.795 53.6089 260.459 54.3184 260.874 52.6352C260.746 52.0333 251.289 47.7005 256.766 59.163C257.15 58.8573 257.812 58.9254 258.029 59.4621L261.672 68.4352C261.89 68.9719 262.597 69.2416 262.981 68.9354L264.797 67.4919C265.181 67.1864 265.88 67.4521 266.102 67.9848L270.361 78.2658C270.697 79.0808 271.915 79.0994 271.861 78.289Z" fill="black"/>
<path d="M286.07 35.5303C286.394 35.7494 286.67 36.0414 286.866 36.3799C300.231 59.4707 284.657 85.9554 260.588 87.9555C260.344 87.9761 260.096 87.9595 259.857 87.9097C256.901 87.2959 257.117 83.0093 260.119 82.6945L260.562 82.648C268.83 81.8628 277.561 77.258 282.64 68.4C287.718 59.5428 287.859 48.4925 282.325 39.2361L282.194 38.9842C280.908 36.5201 283.766 33.9727 286.07 35.5303Z" fill="#28A528"/>
<path d="M274.418 24.4078C275.24 24.8696 275.756 25.7323 275.774 26.6748C275.811 28.7144 273.628 30.0324 271.838 29.0512L271.36 28.7891L270.97 28.5831L270.528 28.3575L270.081 28.1401L269.624 27.9278L269.166 27.7247L268.707 27.5301L268.236 27.3404L267.997 27.248L267.755 27.1569L267.517 27.069L267.277 26.9836L266.807 26.823L266.346 26.6743L265.891 26.536L265.623 26.4584L265.351 26.3824L264.884 26.2588L264.661 26.2028L264.441 26.1494L263.94 26.0346L263.672 25.977L263.402 25.9215L263.133 25.8694L262.864 25.8196L262.621 25.7768L262.373 25.7355L261.885 25.6611L261.637 25.6265L261.389 25.5938L260.89 25.5354L260.405 25.4864L260.158 25.4651L259.91 25.4454L259.41 25.4127L259.161 25.3995L258.913 25.3883L258.667 25.3797L258.415 25.3727L258.168 25.3683L257.922 25.3663H257.654L257.421 25.3675L257.171 25.3709L256.924 25.3769L256.422 25.3953L255.932 25.4216L254.918 25.503L254.666 25.5285L254.421 25.5562L254.18 25.585L253.939 25.6156L253.708 25.6472L253.477 25.6807L253.247 25.7157L253.017 25.7529L252.755 25.7975L252.493 25.8445L252.231 25.8951L251.97 25.9464L251.578 26.0295L251.188 26.1174L250.797 26.2116L250.408 26.3115L248.026 27.0532C246.182 27.6272 244.361 26.1078 244.597 24.1929C244.721 23.1865 245.408 22.3385 246.367 22.0075L247.397 21.6522L247.982 21.4717L248.276 21.3853L248.565 21.3031L248.825 21.2316L249.081 21.1637L249.338 21.0972L249.597 21.0326L249.853 20.9704L250.106 20.9114L250.368 20.8525L250.62 20.7975L250.85 20.7498L251.078 20.7036L251.306 20.6589L251.537 20.6159L251.764 20.5749L251.989 20.536L252.214 20.4979L252.448 20.4607L252.686 20.4247L252.931 20.3889L253.41 20.3248L253.89 20.2669L254.151 20.2386L254.395 20.2137L254.646 20.1901L254.884 20.1696L255.124 20.1504L255.361 20.1332L255.607 20.1172L255.855 20.1026L256.092 20.0905L256.338 20.0796L256.578 20.0707L256.826 20.063L256.949 20.0598L257.065 20.0578L257.187 20.0557L257.325 20.0533L257.559 20.0513H257.709H257.992L258.278 20.0549L258.517 20.0596L258.764 20.0658L259.261 20.084L259.513 20.0958L259.759 20.1094L259.998 20.1239L260.237 20.1405L260.487 20.1595L260.737 20.18L260.987 20.2031L261.234 20.2272L261.526 20.2581L261.818 20.2918L262.033 20.318L262.244 20.345L262.484 20.378L262.724 20.4118L262.98 20.4504L263.109 20.4706L263.237 20.4908L263.491 20.5331L263.743 20.577L263.995 20.6227L264.247 20.6702L264.489 20.7179L264.731 20.7674L264.972 20.8188L265.207 20.8702L265.453 20.9262L265.695 20.9833L265.94 21.0428L266.174 21.1017C266.178 21.1025 266.181 21.1033 266.184 21.1042C266.239 21.1181 266.741 21.2461 267.094 21.3488C267.259 21.397 267.498 21.4677 267.58 21.4922C267.6 21.4981 267.62 21.504 267.64 21.5101L268.119 21.6584L268.561 21.803L269.001 21.9541L269.24 22.0386L269.48 22.1253L269.774 22.2348L270.068 22.3479L270.328 22.4499L270.586 22.5535L271.098 22.7665L271.609 22.9901L271.86 23.1033L272.111 23.2195L272.339 23.3262L272.568 23.4359L272.792 23.5457L273.015 23.6563L273.459 23.8841L273.902 24.1178L274.418 24.4078Z" fill="#D0D000"/>
<path d="M232.673 31.1084C233.533 30.5027 234.682 30.4551 235.582 30.9992C236.935 31.8171 237.275 33.6296 236.309 34.8811L235.606 35.7934L235.443 35.99L235.285 36.1865L235.128 36.3855L234.973 36.5845L234.82 36.7861L234.668 36.9892L234.592 37.091L234.518 37.1935L234.369 37.3996L234.079 37.8123L233.799 38.2282L233.526 38.6469L233.392 38.8578L233.259 39.0729L233.126 39.2908L232.997 39.5078L232.869 39.7268L232.744 39.9445L232.62 40.1666L232.498 40.3892L232.377 40.6144L232.258 40.8381L232.026 41.2933L231.969 41.41L231.913 41.5229L231.804 41.7515L231.589 42.2134L231.485 42.4438L231.384 42.6765L231.092 43.3835C230.45 44.9449 228.517 45.5109 227.118 44.5653C226.133 43.8997 225.709 42.648 226.099 41.5258L226.472 40.6272L226.666 40.1827L226.766 39.9613L226.869 39.7405L227.081 39.2913L227.19 39.0682L227.302 38.8438L227.414 38.6232L227.527 38.4024L227.643 38.1821L227.701 38.0726L227.76 37.9623L227.878 37.7457L227.937 37.6372L227.998 37.529L228.118 37.3147L228.241 37.0993L228.302 36.9936L228.366 36.8852L228.493 36.6706L228.621 36.4576L228.752 36.244L228.886 36.0276L229.022 35.8118L229.182 35.5644L229.301 35.3826L229.441 35.1724L229.583 34.9614L229.873 34.5417L230.019 34.3358L230.166 34.1316L230.466 33.7252L230.769 33.3243L230.925 33.1238L231.081 32.9248L231.398 32.5334L231.558 32.3388L231.72 32.1463L232.094 31.6617C232.258 31.4501 232.455 31.2624 232.673 31.1084Z" fill="#FD7700"/>
<path d="M226.374 57.0515C227.842 57.0515 229.033 55.8619 229.033 54.3944C229.033 52.9269 227.842 51.7373 226.374 51.7373C224.905 51.7373 223.715 52.9269 223.715 54.3944C223.715 55.8619 224.905 57.0515 226.374 57.0515Z" fill="#FF0000"/>
<path d="M271.861 78.289L270.827 62.6546C270.787 62.0151 269.925 61.5537 269.463 61.9212L268.827 62.4272C268.392 62.772 267.585 62.3851 267.472 61.7759L265.705 52.2282C265.592 51.6191 264.787 51.23 264.351 51.577L262.224 53.2682C261.795 53.6089 260.459 54.3184 260.874 52.6352C260.746 52.0333 251.289 47.7005 256.766 59.163C257.15 58.8573 257.812 58.9254 258.029 59.4621L261.672 68.4352C261.89 68.9719 262.597 69.2416 262.981 68.9354L264.797 67.4919C265.181 67.1864 265.88 67.4521 266.102 67.9848L270.361 78.2658C270.697 79.0808 271.915 79.0994 271.861 78.289Z" fill="black"/>
<path d="M286.07 35.5303C286.394 35.7494 286.67 36.0414 286.866 36.3799C300.231 59.4707 284.657 85.9554 260.588 87.9555C260.344 87.9761 260.096 87.9595 259.857 87.9097C256.901 87.2959 257.117 83.0093 260.119 82.6945L260.562 82.648C268.83 81.8628 277.561 77.258 282.64 68.4C287.718 59.5428 287.859 48.4925 282.325 39.2361L282.194 38.9842C280.908 36.5201 283.766 33.9727 286.07 35.5303Z" fill="#28A528"/>
<path d="M274.418 24.4078C275.24 24.8696 275.756 25.7323 275.774 26.6748C275.811 28.7144 273.628 30.0324 271.838 29.0512L271.36 28.7891L270.97 28.5831L270.528 28.3575L270.081 28.1401L269.624 27.9278L269.166 27.7247L268.707 27.5301L268.236 27.3404L267.997 27.248L267.755 27.1569L267.517 27.069L267.277 26.9836L266.807 26.823L266.346 26.6743L265.891 26.536L265.623 26.4584L265.351 26.3824L264.884 26.2588L264.661 26.2028L264.441 26.1494L263.94 26.0346L263.672 25.977L263.402 25.9215L263.133 25.8694L262.864 25.8196L262.621 25.7768L262.373 25.7355L261.885 25.6611L261.637 25.6265L261.389 25.5938L260.89 25.5354L260.405 25.4864L260.158 25.4651L259.91 25.4454L259.41 25.4127L259.161 25.3995L258.913 25.3883L258.667 25.3797L258.415 25.3727L258.168 25.3683L257.922 25.3663H257.654L257.421 25.3675L257.171 25.3709L256.924 25.3769L256.422 25.3953L255.932 25.4216L254.918 25.503L254.666 25.5285L254.421 25.5562L254.18 25.585L253.939 25.6156L253.708 25.6472L253.477 25.6807L253.247 25.7157L253.017 25.7529L252.755 25.7975L252.493 25.8445L252.231 25.8951L251.97 25.9464L251.578 26.0295L251.188 26.1174L250.797 26.2116L250.408 26.3115L248.026 27.0532C246.182 27.6272 244.361 26.1078 244.597 24.1929C244.721 23.1865 245.408 22.3385 246.367 22.0075L247.397 21.6522L247.982 21.4717L248.276 21.3853L248.565 21.3031L248.825 21.2316L249.081 21.1637L249.338 21.0972L249.597 21.0326L249.853 20.9704L250.106 20.9114L250.368 20.8525L250.62 20.7975L250.85 20.7498L251.078 20.7036L251.306 20.6589L251.537 20.6159L251.764 20.5749L251.989 20.536L252.214 20.4979L252.448 20.4607L252.686 20.4247L252.931 20.3889L253.41 20.3248L253.89 20.2669L254.151 20.2386L254.395 20.2137L254.646 20.1901L254.884 20.1696L255.124 20.1504L255.361 20.1332L255.607 20.1172L255.855 20.1026L256.092 20.0905L256.338 20.0796L256.578 20.0707L256.826 20.063L256.949 20.0598L257.065 20.0578L257.187 20.0557L257.325 20.0533L257.559 20.0513H257.709H257.992L258.278 20.0549L258.517 20.0596L258.764 20.0658L259.261 20.084L259.513 20.0958L259.759 20.1094L259.998 20.1239L260.237 20.1405L260.487 20.1595L260.737 20.18L260.987 20.2031L261.234 20.2272L261.526 20.2581L261.818 20.2918L262.033 20.318L262.244 20.345L262.484 20.378L262.724 20.4118L262.98 20.4504L263.109 20.4706L263.237 20.4908L263.491 20.5331L263.743 20.577L263.995 20.6227L264.247 20.6702L264.489 20.7179L264.731 20.7674L264.972 20.8188L265.207 20.8702L265.453 20.9262L265.695 20.9833L265.94 21.0428L266.174 21.1017C266.178 21.1025 266.181 21.1033 266.184 21.1042C266.239 21.1181 266.741 21.2461 267.094 21.3488C267.259 21.397 267.498 21.4677 267.58 21.4922C267.6 21.4981 267.62 21.504 267.64 21.5101L268.119 21.6584L268.561 21.803L269.001 21.9541L269.24 22.0386L269.48 22.1253L269.774 22.2348L270.068 22.3479L270.328 22.4499L270.586 22.5535L271.098 22.7665L271.609 22.9901L271.86 23.1033L272.111 23.2195L272.339 23.3262L272.568 23.4359L272.792 23.5457L273.015 23.6563L273.459 23.8841L273.902 24.1178L274.418 24.4078Z" fill="#D0D000"/>
<path d="M232.673 31.1084C233.533 30.5027 234.682 30.4551 235.582 30.9992C236.935 31.8171 237.275 33.6296 236.309 34.8811L235.606 35.7934L235.443 35.99L235.285 36.1865L235.128 36.3855L234.973 36.5845L234.82 36.7861L234.668 36.9892L234.592 37.091L234.518 37.1935L234.369 37.3996L234.079 37.8123L233.799 38.2282L233.526 38.6469L233.392 38.8578L233.259 39.0729L233.126 39.2908L232.997 39.5078L232.869 39.7268L232.744 39.9445L232.62 40.1666L232.498 40.3892L232.377 40.6144L232.258 40.8381L232.026 41.2933L231.969 41.41L231.913 41.5229L231.804 41.7515L231.589 42.2134L231.485 42.4438L231.384 42.6765L231.092 43.3835C230.45 44.9449 228.517 45.5109 227.118 44.5653C226.133 43.8997 225.709 42.648 226.099 41.5258L226.472 40.6272L226.666 40.1827L226.766 39.9613L226.869 39.7405L227.081 39.2913L227.19 39.0682L227.302 38.8438L227.414 38.6232L227.527 38.4024L227.643 38.1821L227.701 38.0726L227.76 37.9623L227.878 37.7457L227.937 37.6372L227.998 37.529L228.118 37.3147L228.241 37.0993L228.302 36.9936L228.366 36.8852L228.493 36.6706L228.621 36.4576L228.752 36.244L228.886 36.0276L229.022 35.8118L229.182 35.5644L229.301 35.3826L229.441 35.1724L229.583 34.9614L229.873 34.5417L230.019 34.3358L230.166 34.1316L230.466 33.7252L230.769 33.3243L230.925 33.1238L231.081 32.9248L231.398 32.5334L231.558 32.3388L231.72 32.1463L232.094 31.6617C232.258 31.4501 232.455 31.2624 232.673 31.1084Z" fill="#FD7700"/>
<path d="M226.374 57.0515C227.842 57.0515 229.033 55.8619 229.033 54.3944C229.033 52.9269 227.842 51.7373 226.374 51.7373C224.905 51.7373 223.715 52.9269 223.715 54.3944C223.715 55.8619 224.905 57.0515 226.374 57.0515Z" fill="#FF0000"/>
<path d="M195.63 76.6226C184.625 85.2595 174.681 89.5773 165.799 89.5773C160.775 89.5773 156.782 88.0979 153.821 85.1399C150.861 82.1514 149.381 78.0275 149.381 72.7678C149.381 60.1271 154.779 48.3381 165.574 37.4007C176.371 26.4333 187.556 20.9497 199.129 20.9497C202.538 20.9497 205.259 21.5624 207.293 22.7876C209.356 24.0128 210.388 25.5667 210.388 27.4494C210.388 29.093 209.761 30.9159 208.504 32.9181C207.278 34.8904 206.082 35.8766 204.916 35.8766C204.138 35.8766 203.495 35.264 202.987 34.0387C202.149 32.0963 201.237 30.7515 200.25 30.0045C199.263 29.2574 197.753 28.8838 195.719 28.8838C190.516 28.8838 184.669 31.3642 178.18 36.3248C171.69 41.2856 166.562 46.9784 162.794 53.4034C159.055 59.7984 157.186 65.9993 157.186 72.0059C157.186 78.9987 160.401 82.4948 166.831 82.4948C169.791 82.4948 173.201 81.7628 177.058 80.2987C180.946 78.8048 185.088 76.5628 189.484 73.5749C193.91 70.5565 196.587 67.912 197.514 65.6407C198.471 63.3695 199.219 60.2766 199.757 56.3618C200.056 54.2401 201.611 53.1792 204.422 53.1792C207.443 53.1792 208.953 54.1056 208.953 55.9584C208.953 56.7951 208.504 58.2893 207.607 60.4409C206.142 63.9074 205.05 67.0604 204.332 69.8988C203.615 72.7379 202.957 76.0254 202.358 79.7606C201.791 83.4958 201.506 86.1556 201.506 87.7399C201.506 89.1442 201.775 91.2213 202.314 93.9701C202.404 94.5381 202.448 95.0163 202.448 95.4049C202.448 96.4505 202.045 97.4668 201.237 98.4526C200.46 99.4391 199.488 99.932 198.321 99.932C197.036 99.932 195.765 99.4244 194.508 98.4081C193.282 97.4217 192.669 96.3163 192.669 95.0907C192.669 94.1348 193.357 89.8463 194.733 82.2264C195.151 79.8357 195.45 77.9678 195.63 76.6226Z" fill="black"/>
<path d="M195.63 76.6226C184.625 85.2595 174.681 89.5773 165.799 89.5773C160.775 89.5773 156.782 88.0979 153.821 85.1399C150.861 82.1514 149.381 78.0275 149.381 72.7678C149.381 60.1271 154.779 48.3381 165.574 37.4007C176.371 26.4333 187.556 20.9497 199.129 20.9497C202.538 20.9497 205.259 21.5624 207.293 22.7876C209.356 24.0128 210.388 25.5667 210.388 27.4494C210.388 29.093 209.761 30.9159 208.504 32.9181C207.278 34.8904 206.082 35.8766 204.916 35.8766C204.138 35.8766 203.495 35.264 202.987 34.0387C202.149 32.0963 201.237 30.7515 200.25 30.0045C199.263 29.2574 197.753 28.8838 195.719 28.8838C190.516 28.8838 184.669 31.3642 178.18 36.3248C171.69 41.2856 166.562 46.9784 162.794 53.4034C159.055 59.7984 157.186 65.9993 157.186 72.0059C157.186 78.9987 160.401 82.4948 166.831 82.4948C169.791 82.4948 173.201 81.7628 177.058 80.2987C180.946 78.8048 185.088 76.5628 189.484 73.5749C193.91 70.5565 196.587 67.912 197.514 65.6407C198.471 63.3695 199.219 60.2766 199.757 56.3618C200.056 54.2401 201.611 53.1792 204.422 53.1792C207.443 53.1792 208.953 54.1056 208.953 55.9584C208.953 56.7951 208.504 58.2893 207.607 60.4409C206.142 63.9074 205.05 67.0604 204.332 69.8988C203.615 72.7379 202.957 76.0254 202.358 79.7606C201.791 83.4958 201.506 86.1556 201.506 87.7399C201.506 89.1442 201.775 91.2213 202.314 93.9701C202.404 94.5381 202.448 95.0163 202.448 95.4049C202.448 96.4505 202.045 97.4668 201.237 98.4526C200.46 99.4391 199.488 99.932 198.321 99.932C197.036 99.932 195.765 99.4244 194.508 98.4081C193.282 97.4217 192.669 96.3163 192.669 95.0907C192.669 94.1348 193.357 89.8463 194.733 82.2264C195.151 79.8357 195.45 77.9678 195.63 76.6226Z" fill="black"/>
<path d="M116.939 30.405C116.76 31.5704 115.758 35.7392 113.934 42.9112C113.066 46.2881 112.498 49.127 112.229 51.4281C112.05 52.9821 111.825 54.6705 111.556 56.4934C110.36 64.1436 109.762 69.3732 109.762 72.1824C109.762 76.3958 110.016 80.5349 110.524 84.5989C110.824 86.9598 110.405 88.663 109.269 89.7092C108.132 90.7548 106.996 91.2782 105.859 91.2782C104.244 91.2782 103.123 90.3814 102.495 88.5886C101.867 86.7658 101.553 83.837 101.553 79.8029C101.553 75.5888 102.151 69.7617 103.347 62.3207C103.766 59.5116 104.005 57.8232 104.065 57.2554C104.125 56.2393 104.244 55.1934 104.424 54.1177C104.573 53.0717 104.693 52.0258 104.783 50.9798C104.962 48.2006 105.5 44.5698 106.398 40.0873C107.056 36.7105 107.534 33.737 107.833 31.167C108.042 29.374 108.281 28.1637 108.551 27.5361C108.82 26.9086 109.508 26.2213 110.614 25.4741C111.751 24.7271 112.603 24.3535 113.171 24.3535C114.427 24.3535 115.369 24.9662 115.997 26.1914C116.626 27.3867 116.939 28.7913 116.939 30.405Z" fill="black"/>
<path d="M116.939 30.405C116.76 31.5704 115.758 35.7392 113.934 42.9112C113.066 46.2881 112.498 49.127 112.229 51.4281C112.05 52.9821 111.825 54.6705 111.556 56.4934C110.36 64.1436 109.762 69.3732 109.762 72.1824C109.762 76.3958 110.016 80.5349 110.524 84.5989C110.824 86.9598 110.405 88.663 109.269 89.7092C108.132 90.7548 106.996 91.2782 105.859 91.2782C104.244 91.2782 103.123 90.3814 102.495 88.5886C101.867 86.7658 101.553 83.837 101.553 79.8029C101.553 75.5888 102.151 69.7617 103.347 62.3207C103.766 59.5116 104.005 57.8232 104.065 57.2554C104.125 56.2393 104.244 55.1934 104.424 54.1177C104.573 53.0717 104.693 52.0258 104.783 50.9798C104.962 48.2006 105.5 44.5698 106.398 40.0873C107.056 36.7105 107.534 33.737 107.833 31.167C108.042 29.374 108.281 28.1637 108.551 27.5361C108.82 26.9086 109.508 26.2213 110.614 25.4741C111.751 24.7271 112.603 24.3535 113.171 24.3535C114.427 24.3535 115.369 24.9662 115.997 26.1914C116.626 27.3867 116.939 28.7913 116.939 30.405Z" fill="black"/>
<path d="M21.2863 26.4621C30.0786 25.0277 36.4933 24.3105 40.5306 24.3105C46.8407 24.3105 51.8798 25.8047 55.6479 28.7931C59.416 31.7814 61.3001 35.5318 61.3001 40.0443C61.3001 44.5567 59.2964 48.8151 55.289 52.8195C51.3116 56.794 46.3024 59.9168 40.2615 62.1881C39.5138 62.4868 39.14 62.8007 39.14 63.1293C39.14 63.6374 42.2202 66.2821 48.3808 71.0635C54.5713 75.8151 60.2534 79.7894 65.427 82.9872C66.8924 83.8834 67.6248 85.0638 67.6248 86.5285C67.6248 87.4844 67.1169 88.4409 66.0999 89.3968C65.1131 90.3235 64.186 90.7865 63.3187 90.7865C61.5543 90.7865 58.7282 89.3224 54.8404 86.3936C50.9826 83.4649 46.9753 80.2378 42.8184 76.7112C33.8168 69.1511 28.7926 65.3408 27.7459 65.281C25.7123 65.2212 24.2768 64.9374 23.4395 64.4293C22.6022 63.9213 22.1834 63.0098 22.1834 61.695C22.1834 60.5594 22.7218 59.5732 23.7984 58.7365C24.875 57.8698 26.146 57.4365 27.6114 57.4365C28.1198 57.4365 28.9272 57.5112 30.0337 57.6606C31.1402 57.8399 31.9626 57.9296 32.501 57.9296C34.8934 57.9296 38.9755 56.1515 44.7473 52.5954C50.549 49.0392 53.4498 44.8555 53.4498 40.0443C53.4498 37.5041 52.1489 35.3227 49.5471 33.4997C46.9753 31.6768 43.6857 30.7654 39.6783 30.7654C36.6877 30.7654 33.6971 30.9746 30.7066 31.393C27.716 31.8113 25.8021 32.1699 24.9647 32.4688C24.1573 32.7676 23.4993 33.5445 22.9909 34.7997C22.4825 36.0249 21.6302 39.9695 20.434 46.6336C19.2377 53.2976 18.2957 59.5882 17.6079 65.5051C16.95 71.4223 16.621 75.7699 16.621 78.5492C16.621 80.7008 16.7705 82.5688 17.0696 84.1524C17.3388 85.736 17.4733 87.0061 17.4733 87.9626C17.4733 88.8594 16.9948 89.7854 16.0378 90.742C15.1108 91.6979 14.094 92.1761 12.9875 92.1761C9.84738 92.1761 8.27734 89.636 8.27734 84.5563C8.27734 72.5728 10.3857 56.6297 14.6024 36.7271C14.8118 35.6812 14.9164 35.0686 14.9164 34.8893C14.9164 34.71 14.8118 34.441 14.6024 34.0825C13.4062 32.1998 12.808 30.9447 12.808 30.3171C12.808 29.1815 13.3613 28.1954 14.4678 27.3586C15.5743 26.5219 16.5762 26.1036 17.4733 26.1036L21.2863 26.4621Z" fill="black"/>
<path d="M21.2863 26.4621C30.0786 25.0277 36.4933 24.3105 40.5306 24.3105C46.8407 24.3105 51.8798 25.8047 55.6479 28.7931C59.416 31.7814 61.3001 35.5318 61.3001 40.0443C61.3001 44.5567 59.2964 48.8151 55.289 52.8195C51.3116 56.794 46.3024 59.9168 40.2615 62.1881C39.5138 62.4868 39.14 62.8007 39.14 63.1293C39.14 63.6374 42.2202 66.2821 48.3808 71.0635C54.5713 75.8151 60.2534 79.7894 65.427 82.9872C66.8924 83.8834 67.6248 85.0638 67.6248 86.5285C67.6248 87.4844 67.1169 88.4409 66.0999 89.3968C65.1131 90.3235 64.186 90.7865 63.3187 90.7865C61.5543 90.7865 58.7282 89.3224 54.8404 86.3936C50.9826 83.4649 46.9753 80.2378 42.8184 76.7112C33.8168 69.1511 28.7926 65.3408 27.7459 65.281C25.7123 65.2212 24.2768 64.9374 23.4395 64.4293C22.6022 63.9213 22.1834 63.0098 22.1834 61.695C22.1834 60.5594 22.7218 59.5732 23.7984 58.7365C24.875 57.8698 26.146 57.4365 27.6114 57.4365C28.1198 57.4365 28.9272 57.5112 30.0337 57.6606C31.1402 57.8399 31.9626 57.9296 32.501 57.9296C34.8934 57.9296 38.9755 56.1515 44.7473 52.5954C50.549 49.0392 53.4498 44.8555 53.4498 40.0443C53.4498 37.5041 52.1489 35.3227 49.5471 33.4997C46.9753 31.6768 43.6857 30.7654 39.6783 30.7654C36.6877 30.7654 33.6971 30.9746 30.7066 31.393C27.716 31.8113 25.8021 32.1699 24.9647 32.4688C24.1573 32.7676 23.4993 33.5445 22.9909 34.7997C22.4825 36.0249 21.6302 39.9695 20.434 46.6336C19.2377 53.2976 18.2957 59.5882 17.6079 65.5051C16.95 71.4223 16.621 75.7699 16.621 78.5492C16.621 80.7008 16.7705 82.5688 17.0696 84.1524C17.3388 85.736 17.4733 87.0061 17.4733 87.9626C17.4733 88.8594 16.9948 89.7854 16.0378 90.742C15.1108 91.6979 14.094 92.1761 12.9875 92.1761C9.84738 92.1761 8.27734 89.636 8.27734 84.5563C8.27734 72.5728 10.3857 56.6297 14.6024 36.7271C14.8118 35.6812 14.9164 35.0686 14.9164 34.8893C14.9164 34.71 14.8118 34.441 14.6024 34.0825C13.4062 32.1998 12.808 30.9447 12.808 30.3171C12.808 29.1815 13.3613 28.1954 14.4678 27.3586C15.5743 26.5219 16.5762 26.1036 17.4733 26.1036L21.2863 26.4621Z" fill="black"/>
</svg>
