<svg width="18" height="17" viewBox="0 0 18 17" fill="none" xmlns="http://www.w3.org/2000/svg">
<path d="M17.5001 3.35376L13.6442 0.118164L12.5629 1.40067L16.4188 4.63626L17.5001 3.35376ZM5.66418 1.40067L4.59124 0.118164L0.735352 3.34537L1.81668 4.62788L5.66418 1.40067ZM9.53683 5.26494H8.27948V10.2944L12.2611 12.6833L12.8898 11.6523L9.53683 9.66568V5.26494ZM9.11771 1.91199C4.95168 1.91199 1.57359 5.29008 1.57359 9.45612C1.57359 13.6222 4.9433 17.0002 9.11771 17.0002C13.2837 17.0002 16.6618 13.6222 16.6618 9.45612C16.6618 5.29008 13.2837 1.91199 9.11771 1.91199ZM9.11771 15.3238C5.87374 15.3238 3.25006 12.7001 3.25006 9.45612C3.25006 6.21214 5.87374 3.58846 9.11771 3.58846C12.3617 3.58846 14.9854 6.21214 14.9854 9.45612C14.9854 12.7001 12.3617 15.3238 9.11771 15.3238Z" fill="black"/>
</svg>
