<svg width="25" height="24" viewBox="0 0 25 24" fill="none" xmlns="http://www.w3.org/2000/svg">
<g opacity="0.5">
<path d="M22.2195 5.69352L17.6195 1.86035L16.3295 3.37972L20.9295 7.21288L22.2195 5.69352ZM8.09948 3.37972L6.81948 1.86035L2.21948 5.68359L3.50948 7.20295L8.09948 3.37972ZM12.7195 7.95767H11.2195V13.916L15.9695 16.7462L16.7195 15.5247L12.7195 13.1712V7.95767ZM12.2195 3.98548C7.24948 3.98548 3.21948 7.98746 3.21948 12.9229C3.21948 17.8584 7.23948 21.8604 12.2195 21.8604C17.1895 21.8604 21.2195 17.8584 21.2195 12.9229C21.2195 7.98746 17.1895 3.98548 12.2195 3.98548ZM12.2195 19.8743C8.34948 19.8743 5.21948 16.766 5.21948 12.9229C5.21948 9.07982 8.34948 5.97157 12.2195 5.97157C16.0895 5.97157 19.2195 9.07982 19.2195 12.9229C19.2195 16.766 16.0895 19.8743 12.2195 19.8743Z" fill="black"/>
</g>
</svg>
